<?xml version="1.0" standalone="no"?><!DOCTYPE svg PUBLIC "-//W3C//DTD SVG 1.1//EN" "http://www.w3.org/Graphics/SVG/1.1/DTD/svg11.dtd"><svg t="1697175728482" class="icon" viewBox="0 0 1024 1024" version="1.1" xmlns="http://www.w3.org/2000/svg" p-id="14750" xmlns:xlink="http://www.w3.org/1999/xlink" width="24px" height="24px"><path d="M899.584 856.7296L387.584 936.8064l-142.0288 22.272c-39.0656 6.144-75.776-19.9168-82.0224-58.2656L76.1856 365.1584 871.7824 240.64l87.296 535.6544a70.5024 70.5024 0 0 1-59.4944 80.4864z" fill="#CFD8DC" p-id="14751"></path><path d="M843.776 114.7904c-10.9056-37.2736-50.688-58.7776-88.8832-48.0256L116.1216 246.4768a70.144 70.144 0 0 0-49.3568 86.8864l9.472 31.7952 776.96-218.5728-9.4208-31.744zM871.8336 240.64l-96 109.2608-1.536 1.6896-113.92 17.7152 1.536-1.536 96-109.4144 113.92-17.7152zM644.096 276.2752l-95.9488 109.2096-113.9712 17.92 96.256-109.4656 113.664-17.664zM415.4368 312.1152l-95.744 109.2096-113.1008 17.7152L302.592 329.8304l112.8448-17.7152zM188.8256 347.4944L93.0816 456.704l-1.536 1.7408-0.2048-1.28-15.1552-91.9552 112.64-17.7152z" fill="#455A64" p-id="14752"></path><path d="M853.1456 146.5856l-150.7328-65.0752 52.4288-14.7456c6.656-1.8944 13.312-2.7136 19.968-2.7136 31.1296 0 59.904 19.968 68.864 50.688l9.4208 31.8464zM742.1952 177.7664l-110.7968 31.232L480.768 143.9744l110.6944-31.232h0.1024l150.5792 65.024zM520.5504 240.128l-110.848 31.2832L259.072 206.1824l110.9504-31.1296 150.528 65.1264zM298.9056 302.592l-110.9504 31.232-116.5312-50.4832c8.5504-17.3568 24.32-31.1296 44.7488-36.9152l32-8.96 150.7328 65.0752z" fill="#CFD8DC" p-id="14753"></path><path d="M528.64 646.144l-97.0752 229.7856-194.3552 30.464c-10.24 1.536-19.6096-4.6592-21.0944-14.2848l-1.536-9.3696 314.0608-236.544z" fill="#64DD17" p-id="14754"></path><path d="M676.6592 837.5296l-120.7296 18.944-27.3408-210.3296 148.0704 191.3856z" fill="#1E88E5" p-id="14755"></path><path d="M906.3936 784.8448a15.4624 15.4624 0 0 1-2.9696 11.9296 9.728 9.728 0 0 1-2.56 2.7648l-372.224-153.344 347.904-44.3904 29.8496 183.04z" fill="#AB47BC" p-id="14756"></path><path d="M528.5888 646.144l-314.0096 236.544-31.3856-192.6144 345.3952-43.9296z" fill="#B2FF59" p-id="14757"></path><path d="M555.9808 856.4736l-124.416 19.456 97.0752-229.7856 27.3408 210.3296z" fill="#00ACC1" p-id="14758"></path><path d="M900.864 799.5392a17.5616 17.5616 0 0 1-9.5744 4.4544l-214.6304 33.536-148.0704-191.3856 372.2752 153.3952z" fill="#7C4DFF" p-id="14759"></path><path d="M528.64 646.144l-345.3952 43.9808-32.4608-199.2704 377.856 155.2896z" fill="#FFEA00" p-id="14760"></path><path d="M528.64 646.144L380.8256 454.8096l120.4736-18.8416 27.3408 210.176z" fill="#FFA726" p-id="14761"></path><path d="M528.64 646.144l-377.856-155.2384 229.888-36.0448 147.968 191.3344z" fill="#FDD835" p-id="14762"></path><path d="M876.544 601.8048l-347.9552 44.3392 316.416-238.4896 31.5392 194.1504z" fill="#E91E63" p-id="14763"></path><path d="M626.176 416.4096l-97.6384 229.7344-27.3408-210.176 124.9792-19.5584z" fill="#FF7043" p-id="14764"></path><path d="M844.9536 407.6544l-316.3648 238.4896 97.7408-229.7344 214.5792-33.6896 4.096 24.9344z" fill="#F44336" p-id="14765"></path><path d="M388.8128 751.5648c18.432 24.4224 43.008 44.032 71.6288 56.064l68.1984-161.4336-139.8272 105.3696z" fill="#76FF03" p-id="14766"></path><path d="M551.1168 819.8144a174.2336 174.2336 0 0 0 84.5824-35.1232l-107.1104-138.496 22.528 173.568z" fill="#64B5F6" p-id="14767"></path><path d="M690.688 713.0112c8.4992-20.6336 13.312-43.264 13.312-66.9696a174.592 174.592 0 0 0-1.536-22.016l-173.8752 22.1696 162.0992 66.816z" fill="#BA68C8" p-id="14768"></path><path d="M354.816 668.3648c3.9424 31.0272 15.9744 59.4432 33.9456 83.2512l139.8272-105.3696-173.7728 22.1184z" fill="#CCFF90" p-id="14769"></path><path d="M460.3904 807.6288a174.9504 174.9504 0 0 0 90.7264 12.1856l-22.528-173.568-68.1984 161.3824z" fill="#4DD0E1" p-id="14770"></path><path d="M635.7504 784.6912a175.616 175.616 0 0 0 54.9376-71.68l-162.0992-66.816 107.1616 138.496z" fill="#9575CD" p-id="14771"></path><path d="M528.4864 646.144l-162.1504-66.6624a174.6944 174.6944 0 0 0-11.5712 88.832l173.7728-22.1184z" fill="#FFEE58" p-id="14772"></path><path d="M505.9584 472.32a174.3872 174.3872 0 0 0-84.5824 35.1744l107.1616 138.5984-22.5792-173.7728z" fill="#FFB74D" p-id="14773"></path><path d="M421.376 507.4944a175.616 175.616 0 0 0-54.9888 72.0384l162.1504 66.6624L421.376 507.4944z" fill="#FFEB3B" p-id="14774"></path><path d="M528.5888 646.1952l173.824-22.1696a174.336 174.336 0 0 0-33.8432-83.3536l-139.9808 105.5232z" fill="#F06292" p-id="14775"></path><path d="M505.8048 472.32l22.6304 173.824 68.608-161.4848a174.592 174.592 0 0 0-91.2384-12.3392z" fill="#FF8A65" p-id="14776"></path><path d="M668.5696 540.7232a175.9232 175.9232 0 0 0-71.2704-56.0128l-68.7104 161.4848 139.9808-105.472z" fill="#FF5252" p-id="14777"></path><path d="M528.64 646.144l-43.8272 103.5776a112.384 112.384 0 0 1-46.0288-35.84l89.856-67.7376z" fill="#BAFF81" p-id="14778"></path><path d="M597.4016 735.0784c-15.36 11.9296-34.048 19.9168-54.272 22.4768l-14.5408-111.4112 68.8128 88.9344z" fill="#90CAF9" p-id="14779"></path><path d="M641.2288 645.9904c0 15.2064-3.072 29.9008-8.4992 43.1104l-104.1408-42.9568 111.7696-14.336c0.512 4.7616 0.8704 9.472 0.8704 14.1824z" fill="#CE93D8" p-id="14780"></path><path d="M528.7424 646.144l-89.856 67.7376a111.9232 111.9232 0 0 1-21.8624-53.6064l111.7184-14.1312z" fill="#DBFFB1" p-id="14781"></path><path d="M543.0784 757.5552a95.488 95.488 0 0 1-14.4384 1.024c-15.616 0-30.464-3.2256-43.8272-8.8576l43.8272-103.5776 14.4896 111.4112z" fill="#80DEEA" p-id="14782"></path><path d="M632.7296 689.0496a111.0016 111.0016 0 0 1-35.328 46.0288l-68.8128-88.9344 104.1408 42.9056z" fill="#B39DDB" p-id="14783"></path><path d="M528.64 646.144l-111.7184 14.1824a110.7968 110.7968 0 0 1 7.6288-56.832l104.0896 42.7008z" fill="#FFF59D" p-id="14784"></path><path d="M528.5888 646.144l-68.9664-89.2928c15.36-11.9296 34.048-19.9168 54.4768-22.4256l14.4896 111.7184z" fill="#FFCC80" p-id="14785"></path><path d="M528.7424 646.144l-104.1408-42.9056c7.424-18.2784 19.5584-34.2016 35.1232-46.336l69.0176 89.2928z" fill="#FFF176" p-id="14786"></path><path d="M640.3584 631.9104l-111.7696 14.336 90.0096-67.9424c11.4176 15.2064 19.2 33.6384 21.76 53.6064z" fill="#F48FB1" p-id="14787"></path><path d="M572.8768 542.4128l-44.1856 103.7312-14.4896-111.7184a112.128 112.128 0 0 1 58.6752 7.9872z" fill="#FFAB91" p-id="14788"></path><path d="M618.5984 578.2528l-90.0096 67.8912 44.1856-103.7312c18.3296 7.7824 34.048 20.2752 45.824 35.84z" fill="#FF8A80" p-id="14789"></path><path d="M528.5888 646.1952l-19.0976 45.056a47.7696 47.7696 0 0 1-19.9168-15.616l39.0144-29.44z" fill="#E5FFC7" p-id="14790"></path><path d="M558.4896 684.9024a47.7184 47.7184 0 0 1-23.6544 9.728l-6.2464-48.4352 29.9008 38.7072z" fill="#BBDEFB" p-id="14791"></path><path d="M577.4336 646.144c0 6.7072-1.3312 12.9536-3.584 18.688l-45.2608-18.6368 48.4352-6.2464c0.256 1.9968 0.4096 4.096 0.4096 6.2464z" fill="#E1BEE7" p-id="14792"></path><path d="M528.5376 646.1952l-38.9632 29.44a47.6672 47.6672 0 0 1-9.5744-23.3472l48.5376-6.0928z" fill="#E5FFC7" p-id="14793"></path><path d="M534.7328 694.5792a50.3808 50.3808 0 0 1-25.344-3.328l19.1488-45.056 6.1952 48.384z" fill="#B2EBF2" p-id="14794"></path><path d="M573.7984 664.8832a49.8688 49.8688 0 0 1-15.3088 19.968l-29.9008-38.656 45.2096 18.688z" fill="#D1C4E9" p-id="14795"></path><path d="M528.5888 646.1952l-48.5376 6.0928a50.432 50.432 0 0 1 3.2256-24.7296l45.312 18.6368z" fill="#FFF9C4" p-id="14796"></path><path d="M528.6912 646.1952l-29.9008-38.7072c6.656-5.12 14.7456-8.6016 23.6544-9.728l6.2464 48.4352z" fill="#FFE0B2" p-id="14797"></path><path d="M528.5376 646.1952l-45.3632-18.6368a48.9472 48.9472 0 0 1 15.5136-20.0704l29.8496 38.7072z" fill="#FFF9C4" p-id="14798"></path><path d="M577.024 640l-48.4352 6.144 39.0144-29.3888c5.0176 6.656 8.3456 14.592 9.4208 23.1936z" fill="#F8BBD0" p-id="14799"></path><path d="M547.7376 601.1392l-19.0976 45.056-6.2464-48.384a50.5344 50.5344 0 0 1 25.344 3.328z" fill="#FFCCBC" p-id="14800"></path><path d="M567.6032 616.7552l-39.0144 29.44 19.1488-45.056a48.8448 48.8448 0 0 1 19.8656 15.616z" fill="#FFCDD2" p-id="14801"></path></svg>