<?xml version="1.0" encoding="UTF-8"?>
<svg width="24px" height="24px" viewBox="0 0 32 30" version="1.1" xmlns="http://www.w3.org/2000/svg" xmlns:xlink="http://www.w3.org/1999/xlink">
    <title>Icon/App/FP/Simple</title>
    <defs>
        <linearGradient x1="50%" y1="0%" x2="50%" y2="100%" id="linearGradient-1">
            <stop stop-color="#FF702E" offset="0%"></stop>
            <stop stop-color="#CF4F14" offset="100%"></stop>
        </linearGradient>
        <linearGradient x1="0%" y1="27.4485642%" x2="100%" y2="72.5514358%" id="linearGradient-2">
            <stop stop-color="#1B1D21" offset="0%"></stop>
            <stop stop-color="#2A2F34" offset="100%"></stop>
        </linearGradient>
        <linearGradient x1="50%" y1="0%" x2="50%" y2="100%" id="linearGradient-3">
            <stop stop-color="#FF702E" offset="0%"></stop>
            <stop stop-color="#CF4F14" offset="100%"></stop>
        </linearGradient>
        <path d="M10.5124176,0 L10.5124176,14.12 L13.0557244,14.12 L13.0557244,9.48386868 L15.7898452,9.48386868 C19.1173163,9.48386868 21.0248352,7.74800088 21.0248352,4.74195374 L21.0248352,4.74195374 C21.0248352,1.7358678 19.1173163,0 15.7898452,0 L15.7898452,0 L10.5124176,0 Z M13.0782233,2.35101879 L15.6198621,2.35101879 C18.0131633,2.35101879 18.5214833,3.30408 18.5214833,4.74432 L18.5214833,4.74432 C18.5214833,6.20574 18.0131633,7.18002 15.6198621,7.18002 L15.6198621,7.18002 L13.0782233,7.18002 L13.0782233,2.35101879 Z M0,0 L0,14.12 L2.53807,14.12 L2.53807,8.25608813 L8.22761538,8.25608813 L8.22761538,5.86395066 L2.53807,5.86395066 L2.53807,2.28627626 L9.11593407,2.28627626 L9.11593407,0 L0,0 Z" id="path-4"></path>
    </defs>
    <g id="Icon/App/FP/Simple" stroke="none" stroke-width="1" fill="none" fill-rule="evenodd">
        <path d="M10.2555408,-4.14336123e-16 L21.7444592,4.14336123e-16 C25.3105342,-2.4074122e-16 26.6036791,0.371302445 27.9073828,1.06853082 C29.2110865,1.76575919 30.2342408,2.78891348 30.9314692,4.09261719 C31.6286976,5.39632089 32,6.68946584 32,10.2555408 L32,19.7444592 C32,23.3105342 31.6286976,24.6036791 30.9314692,25.9073828 C30.2342408,27.2110865 29.2110865,28.2342408 27.9073828,28.9314692 C26.6036791,29.6286976 25.3105342,30 21.7444592,30 L10.2555408,30 C6.68946584,30 5.39632089,29.6286976 4.09261719,28.9314692 C2.78891348,28.2342408 1.76575919,27.2110865 1.06853082,25.9073828 C0.371302445,24.6036791 1.60494146e-16,23.3105342 -2.76224082e-16,19.7444592 L2.76224082e-16,10.2555408 C-1.60494146e-16,6.68946584 0.371302445,5.39632089 1.06853082,4.09261719 C1.76575919,2.78891348 2.78891348,1.76575919 4.09261719,1.06853082 C5.39632089,0.371302445 6.68946584,2.4074122e-16 10.2555408,-4.14336123e-16 Z" id="Rectangle" fill="#0E171D"></path>
        <path d="M3.00011286,1.77978454 L3.00011286,28.2202155 C2.20645653,27.5976136 1.55738251,26.821456 1.06853082,25.9073828 C0.371302445,24.6036791 -6.15504586e-17,23.3105342 -4.98268687e-16,19.7444592 L5.41794771e-17,10.2555408 C-3.82538751e-16,6.68946584 0.371302445,5.39632089 1.06853082,4.09261719 C1.55738251,3.178544 2.20645653,2.40238644 3.00011286,1.77978454 Z" id="Combined-Shape" fill="url(#linearGradient-1)"></path>
        <g id="Group-3" transform="translate(6.700000, 7.440000)">
            <path d="M10.2874176,-0.225 L15.7958999,-0.22491852 C17.5635212,-0.177334926 18.9113295,0.296840096 19.8244688,1.12397908 C20.760454,1.9718123 21.2498352,3.19397604 21.2497147,4.74931696 C21.1969377,6.36117036 20.6722635,7.59214696 19.7509684,8.4266668 C18.8818749,9.21390178 17.6523483,9.65200642 16.1037969,9.70369436 L15.7898452,9.70886868 L13.2807244,9.70886868 L13.2807244,14.345 L10.2874176,14.345 L10.2874176,-0.225 Z M15.6198621,2.57601879 L13.3032233,2.57601879 L13.3032233,6.95475797 L15.852698,6.95179059 L16.0798988,6.94170723 C16.8883303,6.89218075 17.4278858,6.70444891 17.7692044,6.37489572 C18.1907986,5.96783399 18.2955849,5.35670891 18.2947381,4.60218972 C18.2784441,3.95736735 18.145076,3.41604138 17.6879566,3.06121986 C17.2761287,2.74155409 16.6210633,2.57601879 15.6198621,2.57601879 L15.6198621,2.57601879 Z M-0.225,-0.225 L9.34093407,-0.225 L9.34093407,2.51127626 L2.76307,2.51127626 L2.76307,5.63895066 L8.45261538,5.63895066 L8.45261538,8.48108813 L2.76307,8.48108813 L2.76307,14.345 L-0.225,14.345 L-0.225,-0.225 Z" id="Clip-2" stroke="url(#linearGradient-2)" stroke-width="0.45"></path>
            <mask id="mask-5" fill="white">
                <use xlink:href="#path-4"></use>
            </mask>
            <use id="Clip-2" fill="url(#linearGradient-3)" xlink:href="#path-4"></use>
        </g>
    </g>
</svg>