<?xml version="1.0" encoding="utf-8"?>
<!DOCTYPE svg PUBLIC "-//W3C//DTD SVG 20010904//EN" "http://www.w3.org/TR/2001/REC-SVG-20010904/DTD/svg10.dtd">
<svg version="1.0" xmlns="http://www.w3.org/2000/svg" width="24px" height="24px" viewBox="0 0 107 107" style="" preserveAspectRatio="xMidYMid meet">
<g fill="#00000008" stroke="#00000008">
<path d="M 9.281 3.911 C 7.071 5.512 4.304 8.169 3.131 9.815 C 1.036 12.758 1.000 13.536 1.000 55.401 L 1.000 97.994 4.616 101.997 L 8.233 106.000 54.013 106.000 L 99.793 106.000 102.896 102.465 L 106.000 98.930 106.000 55.430 C 106.000 6.619 106.416 9.447 98.418 3.943 L 94.140 1.000 53.720 1.000 L 13.300 1.000 9.281 3.911 M 76.625 8.465 C 76.967 9.357 74.930 12.453 71.414 16.384 C 65.260 23.265 62.743 28.537 68.031 23.471 C 69.667 21.903 72.130 20.659 73.710 20.601 C 75.697 20.529 76.476 19.996 76.417 18.750 C 76.371 17.788 76.258 17.675 76.167 18.500 C 75.997 20.023 74.000 20.668 74.000 19.200 C 74.000 18.165 76.165 16.000 77.200 16.000 C 77.640 16.000 78.000 17.744 78.000 19.875 C 78.000 23.311 78.314 23.813 80.777 24.305 C 82.304 24.611 84.833 25.868 86.398 27.098 C 91.289 30.946 92.000 34.241 92.000 53.067 C 92.000 72.367 91.191 75.566 85.353 79.345 C 82.264 81.345 81.538 82.679 81.908 85.675 C 81.988 86.321 81.591 87.135 81.027 87.484 C 80.066 88.077 79.554 86.108 79.925 83.250 C 80.015 82.563 79.618 82.000 79.044 82.000 C 78.470 82.000 78.112 82.506 78.250 83.125 C 78.388 83.744 77.875 84.477 77.111 84.755 C 76.260 85.064 75.992 84.822 76.420 84.130 C 77.135 82.972 75.799 82.534 74.751 83.583 C 73.945 84.389 35.162 84.218 33.843 83.403 C 33.256 83.040 32.368 83.364 31.870 84.122 C 31.125 85.254 30.779 85.187 29.932 83.750 C 29.365 82.788 28.548 82.000 28.117 82.000 C 27.159 82.000 27.313 85.080 28.356 86.768 C 29.383 88.429 28.139 88.257 24.300 86.208 C 22.539 85.269 21.139 84.050 21.187 83.500 C 21.236 82.950 20.316 82.010 19.144 81.411 C 16.774 80.200 17.294 78.792 19.762 79.739 C 20.820 80.145 21.085 79.947 20.580 79.129 C 20.168 78.463 18.970 78.192 17.916 78.527 C 15.583 79.267 15.668 80.281 15.981 55.500 C 16.298 30.431 17.672 27.050 28.759 24.065 C 31.092 23.437 33.000 22.450 33.000 21.873 C 33.000 21.295 34.388 21.990 36.085 23.418 C 37.834 24.890 39.674 25.692 40.335 25.272 C 40.976 24.864 41.838 24.467 42.250 24.390 C 42.663 24.313 42.775 24.194 42.500 24.125 C 42.225 24.056 41.784 24.113 41.519 24.250 C 41.255 24.388 40.242 23.453 39.269 22.173 C 38.296 20.893 37.725 20.548 38.000 21.407 C 38.275 22.265 37.030 21.192 35.233 19.022 C 33.118 16.466 31.429 15.282 30.442 15.660 C 29.604 15.982 28.990 15.853 29.078 15.373 C 29.453 13.317 28.901 12.837 27.500 14.000 C 25.239 15.876 25.698 13.583 28.000 11.500 C 29.241 10.377 30.000 10.151 30.000 10.904 C 30.000 11.572 30.453 11.838 31.007 11.496 C 31.561 11.153 32.284 11.577 32.614 12.437 C 32.944 13.296 33.751 14.000 34.407 14.000 C 35.063 14.000 36.150 14.550 36.823 15.223 C 37.496 15.896 39.723 16.327 41.773 16.182 C 44.286 16.003 45.058 16.216 44.143 16.834 C 43.309 17.397 43.040 18.551 43.446 19.830 C 44.016 21.624 44.436 21.758 46.522 20.808 C 47.850 20.203 48.699 19.323 48.408 18.852 C 47.544 17.453 52.740 16.000 58.609 16.000 C 62.478 16.000 64.003 16.367 63.801 17.250 C 63.643 17.938 63.940 18.500 64.461 18.500 C 64.982 18.500 65.466 17.713 65.537 16.750 C 65.652 15.184 64.449 14.986 54.083 14.864 C 47.712 14.789 43.625 14.523 45.000 14.273 C 46.375 14.022 48.294 13.108 49.265 12.240 C 52.523 9.328 67.376 9.740 66.889 12.728 C 66.820 13.153 66.816 13.838 66.882 14.250 C 66.947 14.663 66.888 14.800 66.750 14.556 C 66.283 13.726 73.385 7.000 74.728 7.000 C 75.462 7.000 76.316 7.659 76.625 8.465 M 73.309 85.977 C 73.754 85.989 73.840 86.450 73.500 87.000 C 73.160 87.550 73.696 88.052 74.691 88.116 C 76.363 88.223 76.367 88.267 74.750 88.689 C 73.788 88.941 73.000 89.597 73.000 90.147 C 73.000 90.697 73.788 90.995 74.750 90.810 C 75.716 90.624 76.500 89.583 76.500 88.486 C 76.500 87.394 77.131 86.102 77.902 85.615 C 79.010 84.916 79.170 85.231 78.666 87.115 C 78.314 88.427 78.021 91.188 78.014 93.250 L 78.000 97.000 53.500 97.000 L 29.000 97.000 29.015 92.750 C 29.031 88.275 30.190 85.402 31.638 86.247 C 32.112 86.523 33.270 86.469 34.212 86.125 C 35.486 85.660 59.250 85.570 73.309 85.977 M 77.467 98.807 C 76.207 99.710 76.226 102.299 77.500 103.235 C 78.877 104.246 67.813 104.168 66.216 103.155 C 65.508 102.706 65.220 101.591 65.573 100.670 C 66.487 98.287 62.793 98.467 60.580 100.912 C 58.936 102.728 58.941 102.848 60.675 103.296 C 61.679 103.556 58.225 103.748 53.000 103.724 C 47.775 103.700 44.971 103.498 46.769 103.275 C 48.567 103.053 49.778 102.450 49.460 101.935 C 49.142 101.421 49.471 100.993 50.191 100.985 C 51.142 100.974 51.090 100.704 50.000 100.000 C 47.509 98.390 44.183 98.849 43.534 100.892 C 43.204 101.933 41.936 103.052 40.717 103.378 C 38.050 104.093 28.969 104.056 30.750 103.338 C 32.622 102.582 32.256 99.208 30.250 98.726 C 29.288 98.495 39.735 98.263 53.467 98.210 C 67.199 98.157 77.999 98.426 77.467 98.807 M 30.020 18.173 C 32.277 19.841 32.703 20.653 31.857 21.673 C 30.322 23.521 29.129 23.329 29.429 21.281 C 29.568 20.336 28.741 18.776 27.591 17.815 C 24.589 15.305 26.527 15.591 30.020 18.173 M 33.000 18.000 L 31.000 16.000 33.000 18.000 L 35.000 20.000 33.000 18.000 "/></g>
<g fill="#30302EFE" stroke="#30302EFE">
<path d="M 17.615 4.472 C 15.479 5.234 12.008 7.539 9.903 9.595 C 3.358 15.986 3.000 18.280 3.000 53.812 C 3.000 75.030 3.383 86.546 4.176 89.193 C 4.823 91.352 7.074 95.075 9.179 97.466 C 15.509 104.657 17.516 105.000 53.235 105.000 C 72.178 105.000 85.785 104.579 88.436 103.912 C 93.861 102.546 99.396 98.044 102.279 92.653 C 104.450 88.593 104.500 87.731 104.500 54.000 C 104.500 20.410 104.442 19.392 102.309 15.405 C 99.476 10.112 94.046 5.384 89.277 4.060 C 83.268 2.391 22.473 2.741 17.615 4.472 M 76.625 8.465 C 76.967 9.357 74.930 12.453 71.414 16.384 C 65.260 23.265 62.743 28.537 68.031 23.471 C 69.667 21.903 72.130 20.659 73.710 20.601 C 75.697 20.529 76.476 19.996 76.417 18.750 C 76.371 17.788 76.258 17.675 76.167 18.500 C 75.997 20.023 74.000 20.668 74.000 19.200 C 74.000 18.165 76.165 16.000 77.200 16.000 C 77.640 16.000 78.000 17.744 78.000 19.875 C 78.000 23.311 78.314 23.813 80.777 24.305 C 82.304 24.611 84.833 25.868 86.398 27.098 C 91.289 30.946 92.000 34.241 92.000 53.067 C 92.000 72.367 91.191 75.566 85.353 79.345 C 82.264 81.345 81.538 82.679 81.908 85.675 C 81.988 86.321 81.591 87.135 81.027 87.484 C 80.066 88.077 79.554 86.108 79.925 83.250 C 80.015 82.563 79.618 82.000 79.044 82.000 C 78.470 82.000 78.112 82.506 78.250 83.125 C 78.388 83.744 77.875 84.477 77.111 84.755 C 76.260 85.064 75.992 84.822 76.420 84.130 C 77.135 82.972 75.799 82.534 74.751 83.583 C 73.945 84.389 35.162 84.218 33.843 83.403 C 33.256 83.040 32.368 83.364 31.870 84.122 C 31.125 85.254 30.779 85.187 29.932 83.750 C 29.365 82.788 28.548 82.000 28.117 82.000 C 27.159 82.000 27.313 85.080 28.356 86.768 C 29.383 88.429 28.139 88.257 24.300 86.208 C 22.539 85.269 21.139 84.050 21.187 83.500 C 21.236 82.950 20.316 82.010 19.144 81.411 C 16.774 80.200 17.294 78.792 19.762 79.739 C 20.820 80.145 21.085 79.947 20.580 79.129 C 20.168 78.463 18.970 78.192 17.916 78.527 C 15.583 79.267 15.668 80.281 15.981 55.500 C 16.298 30.431 17.672 27.050 28.759 24.065 C 31.092 23.437 33.000 22.450 33.000 21.873 C 33.000 21.295 34.388 21.990 36.085 23.418 C 37.834 24.890 39.674 25.692 40.335 25.272 C 40.976 24.864 41.838 24.467 42.250 24.390 C 42.663 24.313 42.775 24.194 42.500 24.125 C 42.225 24.056 41.784 24.113 41.519 24.250 C 41.255 24.388 40.242 23.453 39.269 22.173 C 38.296 20.893 37.725 20.548 38.000 21.407 C 38.275 22.265 37.030 21.192 35.233 19.022 C 33.118 16.466 31.429 15.282 30.442 15.660 C 29.604 15.982 28.990 15.853 29.078 15.373 C 29.453 13.317 28.901 12.837 27.500 14.000 C 25.239 15.876 25.698 13.583 28.000 11.500 C 29.241 10.377 30.000 10.151 30.000 10.904 C 30.000 11.572 30.453 11.838 31.007 11.496 C 31.561 11.153 32.284 11.577 32.614 12.437 C 32.944 13.296 33.751 14.000 34.407 14.000 C 35.063 14.000 36.150 14.550 36.823 15.223 C 37.496 15.896 39.723 16.327 41.773 16.182 C 44.286 16.003 45.058 16.216 44.143 16.834 C 43.309 17.397 43.040 18.551 43.446 19.830 C 44.016 21.624 44.436 21.758 46.522 20.808 C 47.850 20.203 48.699 19.323 48.408 18.852 C 47.544 17.453 52.740 16.000 58.609 16.000 C 62.478 16.000 64.003 16.367 63.801 17.250 C 63.643 17.938 63.940 18.500 64.461 18.500 C 64.982 18.500 65.466 17.713 65.537 16.750 C 65.652 15.184 64.449 14.986 54.083 14.864 C 47.712 14.789 43.625 14.523 45.000 14.273 C 46.375 14.022 48.294 13.108 49.265 12.240 C 52.523 9.328 67.376 9.740 66.889 12.728 C 66.820 13.153 66.816 13.838 66.882 14.250 C 66.947 14.663 66.888 14.800 66.750 14.556 C 66.283 13.726 73.385 7.000 74.728 7.000 C 75.462 7.000 76.316 7.659 76.625 8.465 M 73.309 85.977 C 73.754 85.989 73.840 86.450 73.500 87.000 C 73.160 87.550 73.696 88.052 74.691 88.116 C 76.363 88.223 76.367 88.267 74.750 88.689 C 73.788 88.941 73.000 89.597 73.000 90.147 C 73.000 90.697 73.788 90.995 74.750 90.810 C 75.716 90.624 76.500 89.583 76.500 88.486 C 76.500 87.394 77.131 86.102 77.902 85.615 C 79.010 84.916 79.170 85.231 78.666 87.115 C 78.314 88.427 78.021 91.188 78.014 93.250 L 78.000 97.000 53.500 97.000 L 29.000 97.000 29.015 92.750 C 29.031 88.275 30.190 85.402 31.638 86.247 C 32.112 86.523 33.270 86.469 34.212 86.125 C 35.486 85.660 59.250 85.570 73.309 85.977 M 77.467 98.807 C 76.207 99.710 76.226 102.299 77.500 103.235 C 78.877 104.246 67.813 104.168 66.216 103.155 C 65.508 102.706 65.220 101.591 65.573 100.670 C 66.487 98.287 62.793 98.467 60.580 100.912 C 58.936 102.728 58.941 102.848 60.675 103.296 C 61.679 103.556 58.225 103.748 53.000 103.724 C 47.775 103.700 44.971 103.498 46.769 103.275 C 48.567 103.053 49.778 102.450 49.460 101.935 C 49.142 101.421 49.471 100.993 50.191 100.985 C 51.142 100.974 51.090 100.704 50.000 100.000 C 47.509 98.390 44.183 98.849 43.534 100.892 C 43.204 101.933 41.936 103.052 40.717 103.378 C 38.050 104.093 28.969 104.056 30.750 103.338 C 32.622 102.582 32.256 99.208 30.250 98.726 C 29.288 98.495 39.735 98.263 53.467 98.210 C 67.199 98.157 77.999 98.426 77.467 98.807 M 30.020 18.173 C 32.277 19.841 32.703 20.653 31.857 21.673 C 30.322 23.521 29.129 23.329 29.429 21.281 C 29.568 20.336 28.741 18.776 27.591 17.815 C 24.589 15.305 26.527 15.591 30.020 18.173 M 33.000 18.000 L 31.000 16.000 33.000 18.000 L 35.000 20.000 33.000 18.000 "/></g>
<g fill="#484E62FE" stroke="#484E62FE">
<path d="M 24.500 25.861 C 16.890 30.561 16.275 32.704 15.983 55.518 C 15.850 65.958 15.799 74.332 15.871 74.128 C 15.942 73.923 16.675 74.315 17.500 75.000 C 18.325 75.685 19.000 75.886 19.000 75.448 C 19.000 75.010 20.053 75.641 21.340 76.850 C 22.627 78.059 25.211 79.487 27.083 80.024 C 30.751 81.076 72.802 81.397 75.418 80.393 C 77.575 79.566 77.406 77.659 74.750 72.829 C 73.513 70.579 71.734 67.334 70.798 65.619 C 69.831 63.846 69.056 60.126 69.004 57.000 L 68.912 51.500 67.400 55.500 C 66.568 57.700 65.519 60.651 65.069 62.058 C 62.500 70.081 56.494 75.000 49.266 75.000 C 44.743 75.000 43.284 74.196 40.947 70.414 C 39.192 67.574 38.964 66.134 39.542 61.513 C 40.308 55.377 39.339 54.482 36.220 58.447 C 34.443 60.707 34.130 60.779 32.147 59.391 C 28.844 57.077 29.542 55.035 35.997 48.127 C 41.985 41.719 42.167 41.645 47.500 43.450 C 48.600 43.823 48.203 43.378 46.619 42.463 C 44.376 41.168 43.216 41.036 41.388 41.869 C 39.386 42.781 38.863 42.611 37.856 40.720 C 36.275 37.753 28.695 27.587 27.750 27.167 C 26.396 26.565 26.965 25.156 28.750 24.689 C 30.000 24.363 30.071 24.200 29.000 24.120 C 28.175 24.058 26.150 24.841 24.500 25.861 "/></g>
<g fill="#8E98ACFE" stroke="#8E98ACFE">
<path d="M 67.625 24.798 C 67.354 25.237 67.545 26.249 68.051 27.048 C 68.556 27.846 68.976 31.032 68.985 34.128 C 68.995 37.876 69.497 40.168 70.489 40.991 C 71.308 41.671 71.763 42.575 71.500 43.000 C 71.237 43.425 71.805 44.387 72.761 45.137 C 74.335 46.370 74.370 46.334 73.128 44.750 C 72.373 43.788 72.190 43.000 72.723 43.000 C 74.002 43.000 77.152 46.514 76.478 47.189 C 76.189 47.478 76.750 48.342 77.726 49.107 C 79.339 50.374 79.376 50.341 78.128 48.750 C 77.373 47.788 77.205 47.000 77.755 47.000 C 79.208 47.000 81.106 49.560 80.272 50.395 C 79.881 50.786 80.335 50.809 81.280 50.446 C 83.526 49.584 83.616 52.661 81.417 55.092 C 79.913 56.754 79.713 56.737 77.451 54.770 C 76.140 53.631 75.267 52.377 75.511 51.983 C 75.754 51.589 74.951 50.420 73.726 49.384 L 71.500 47.500 73.405 49.750 C 74.453 50.988 74.817 52.000 74.214 52.000 C 73.611 52.000 72.835 51.543 72.490 50.984 C 71.210 48.913 70.233 51.099 70.972 54.377 C 71.911 58.541 72.079 58.832 78.572 67.559 C 85.404 76.741 85.608 78.042 80.500 79.890 C 77.460 80.990 70.801 81.356 52.752 81.418 C 39.691 81.463 29.003 81.782 29.002 82.128 C 29.001 82.473 29.675 83.315 30.500 84.000 C 31.536 84.860 32.000 84.898 32.000 84.122 C 32.000 83.326 38.546 83.000 54.559 83.000 C 69.169 83.000 76.903 83.348 76.507 83.989 C 76.162 84.546 76.545 84.728 77.385 84.406 C 78.204 84.092 78.661 83.280 78.401 82.602 C 78.111 81.846 79.353 81.009 81.617 80.435 C 84.013 79.828 86.391 78.154 88.403 75.658 L 91.500 71.816 91.500 52.983 C 91.500 35.441 91.357 33.956 89.408 31.325 C 85.487 26.031 81.330 24.000 74.411 24.000 C 70.950 24.000 67.896 24.359 67.625 24.798 "/></g>
<g fill="#30302EFE" stroke="#30302EFE">
<path d="M 45.131 45.162 C 44.433 46.280 43.555 46.888 43.181 46.514 C 42.806 46.140 42.500 46.220 42.500 46.693 C 42.500 48.607 34.792 56.857 33.476 56.352 C 31.668 55.659 29.791 56.852 30.609 58.176 C 31.022 58.845 31.560 58.732 32.125 57.857 C 32.852 56.729 33.160 56.749 33.947 57.974 C 34.750 59.223 35.263 59.102 37.313 57.176 L 39.731 54.904 40.408 60.886 C 40.993 66.059 41.556 67.281 44.577 69.933 C 48.611 73.476 50.887 73.689 56.666 71.065 C 60.166 69.475 61.385 68.070 64.296 62.270 C 66.201 58.474 68.075 53.935 68.460 52.184 C 69.071 49.402 68.896 49.000 67.079 49.000 C 65.936 49.000 65.000 49.477 65.000 50.059 C 65.000 50.641 65.450 50.840 66.000 50.500 C 66.550 50.160 67.000 50.531 67.000 51.325 C 67.000 53.736 59.389 59.836 55.461 60.573 C 52.900 61.054 52.207 61.516 53.151 62.115 C 54.195 62.776 54.210 62.973 53.218 62.985 C 50.525 63.017 45.247 60.129 43.168 57.486 C 40.828 54.511 40.289 52.442 42.155 53.595 C 42.798 53.993 43.040 53.874 42.701 53.326 C 42.367 52.785 43.423 50.888 45.047 49.110 C 46.671 47.331 48.000 45.481 48.000 44.997 C 48.000 43.128 46.341 43.224 45.131 45.162 "/></g>
<g fill="#8E98ACFE" stroke="#8E98ACFE">
<path d="M 42.164 26.552 C 40.937 31.828 41.251 34.581 42.959 33.525 C 43.410 33.247 47.467 34.752 51.974 36.870 C 60.518 40.886 60.753 42.000 53.057 42.000 C 50.720 42.000 48.098 41.141 46.186 39.750 L 43.095 37.500 45.091 40.213 C 49.102 45.665 60.486 44.340 65.081 37.887 C 67.732 34.163 67.030 32.305 62.264 30.426 C 60.194 29.610 55.953 27.767 52.839 26.330 C 49.726 24.893 46.440 24.001 45.537 24.347 C 44.635 24.694 44.115 24.623 44.382 24.191 C 44.649 23.758 44.546 22.883 44.151 22.245 C 43.754 21.602 42.869 23.519 42.164 26.552 "/></g>
<g fill="#565E72FE" stroke="#565E72FE">
<path d="M 34.321 22.625 C 34.731 23.343 33.522 23.981 30.982 24.387 C 27.377 24.963 25.815 26.307 27.750 27.167 C 28.537 27.516 35.382 36.640 38.209 41.107 C 39.744 43.533 39.742 43.836 38.179 45.493 C 37.247 46.481 37.979 46.215 39.823 44.894 C 42.292 43.127 42.678 42.510 41.323 42.496 C 39.898 42.482 39.991 42.302 41.750 41.671 C 42.988 41.228 44.000 40.371 44.000 39.766 C 44.000 39.161 43.701 38.966 43.335 39.332 C 42.969 39.698 42.538 38.765 42.377 37.259 C 42.174 35.356 42.353 34.953 42.963 35.940 C 43.445 36.720 44.439 37.462 45.170 37.587 C 45.902 37.712 48.650 38.783 51.277 39.966 C 54.208 41.286 56.871 41.858 58.168 41.447 C 59.894 40.899 58.793 40.075 52.186 36.970 C 47.238 34.644 43.274 33.377 41.993 33.712 C 40.123 34.201 39.970 33.950 40.576 31.380 C 40.950 29.796 41.252 28.275 41.247 28.000 C 41.200 25.640 40.844 24.978 39.926 25.546 C 39.335 25.911 37.688 25.150 36.265 23.855 C 34.842 22.560 33.967 22.006 34.321 22.625 "/></g>
<g fill="#565E72FE" stroke="#565E72FE">
<path d="M 69.070 55.820 C 69.653 63.677 70.257 65.528 74.521 72.500 C 77.200 76.880 77.698 79.956 75.750 80.079 C 75.063 80.122 75.748 80.613 77.273 81.170 C 78.798 81.727 79.982 82.704 79.904 83.341 C 79.827 83.978 79.874 85.175 80.009 86.000 C 80.144 86.825 80.383 86.375 80.540 85.000 C 80.701 83.589 80.101 81.905 79.162 81.135 C 77.684 79.920 77.801 79.821 80.220 80.240 C 81.716 80.499 82.731 80.373 82.475 79.960 C 82.220 79.547 82.676 78.954 83.489 78.643 C 85.563 77.847 84.594 75.796 77.802 66.609 C 71.932 58.671 70.327 55.197 71.325 52.596 C 71.622 51.822 71.108 50.502 70.183 49.663 C 68.616 48.244 68.539 48.667 69.070 55.820 "/></g>
<g fill="#00000008" stroke="#00000008">
<path d="M 29.507 88.250 C 29.216 89.488 29.095 91.962 29.238 93.748 L 29.500 96.996 53.750 96.998 L 78.000 97.000 78.000 91.500 C 78.000 88.475 77.627 86.000 77.171 86.000 C 76.714 86.000 76.377 86.998 76.421 88.219 C 76.471 89.631 75.814 90.576 74.614 90.818 C 73.063 91.131 72.817 90.739 73.226 88.599 C 73.499 87.170 73.335 86.000 72.861 86.000 C 72.388 86.000 72.000 88.250 72.000 91.000 L 72.000 96.000 54.000 96.000 L 36.000 96.000 36.000 91.000 C 36.000 88.250 35.627 86.000 35.171 86.000 C 34.714 86.000 34.377 86.998 34.421 88.219 C 34.471 89.631 33.814 90.576 32.614 90.818 C 31.063 91.131 30.817 90.739 31.226 88.599 C 31.833 85.423 30.250 85.101 29.507 88.250 M 76.812 94.261 C 77.043 95.461 76.504 96.000 75.073 96.000 C 73.642 96.000 73.000 95.358 73.000 93.927 C 73.000 91.364 76.310 91.655 76.812 94.261 M 34.812 94.261 C 35.043 95.461 34.504 96.000 33.073 96.000 C 31.642 96.000 31.000 95.358 31.000 93.927 C 31.000 91.364 34.310 91.655 34.812 94.261 "/></g>
<g fill="#FA5E22FE" stroke="#FA5E22FE">
<path d="M 41.394 88.416 C 41.095 89.194 40.997 91.107 41.175 92.666 C 41.496 95.466 41.589 95.504 48.999 95.799 C 54.994 96.038 56.247 95.847 55.249 94.849 C 53.632 93.232 53.633 88.315 55.250 87.662 C 55.938 87.385 53.223 87.122 49.219 87.079 C 43.807 87.020 41.798 87.363 41.394 88.416 "/></g>
<g fill="#F4C822FE" stroke="#F4C822FE">
<path d="M 62.250 87.662 C 61.563 87.940 61.000 89.656 61.000 91.476 C 61.000 95.156 62.228 96.000 67.582 96.000 C 70.966 96.000 71.000 95.956 71.000 91.500 L 71.000 87.000 67.250 87.079 C 65.188 87.122 62.938 87.385 62.250 87.662 "/></g>
<g fill="#30302EFE" stroke="#30302EFE">
<path d="M 59.000 47.851 C 56.794 48.897 55.382 50.340 55.180 51.755 C 54.824 54.258 52.212 54.719 48.784 52.884 C 46.742 51.791 46.745 51.832 48.918 54.884 C 50.636 57.297 51.883 58.000 54.446 58.000 C 58.008 58.000 60.634 55.835 59.432 53.889 C 58.993 53.179 59.114 52.952 59.729 53.333 C 60.821 54.008 63.453 48.790 62.850 47.146 C 62.654 46.611 60.960 46.921 59.000 47.851 "/></g>
<g fill="#444832FE" stroke="#444832FE">
<path d="M 50.000 100.000 C 51.276 100.824 51.283 100.972 50.050 100.985 C 49.165 100.994 48.970 101.340 49.550 101.873 C 50.073 102.353 53.200 102.965 56.500 103.233 C 59.800 103.501 61.679 103.518 60.675 103.272 C 58.941 102.847 58.936 102.728 60.580 100.912 C 62.268 99.047 62.141 99.000 55.405 99.015 C 50.578 99.026 48.951 99.322 50.000 100.000 "/></g>
<g fill="#484E62FE" stroke="#484E62FE">
<path d="M 46.301 48.099 C 44.752 49.648 49.432 54.000 52.646 54.000 C 54.490 54.000 55.000 53.459 55.000 51.500 C 55.000 50.125 55.338 48.929 55.750 48.842 C 56.163 48.756 56.050 48.706 55.500 48.731 C 54.950 48.757 53.639 49.129 52.586 49.559 C 51.238 50.109 50.886 49.994 51.395 49.170 C 51.793 48.526 51.678 48.000 51.141 48.000 C 50.603 48.000 49.552 47.765 48.804 47.478 C 48.056 47.191 46.929 47.471 46.301 48.099 "/></g>
<g fill="#BCA8AAFE" stroke="#BCA8AAFE">
<path d="M 34.198 83.531 C 34.926 84.259 74.024 84.309 74.751 83.583 C 75.071 83.262 65.958 83.000 54.500 83.000 C 43.042 83.000 33.906 83.239 34.198 83.531 "/></g>
<g fill="#F8AE1CFE" stroke="#F8AE1CFE">
<path d="M 57.250 87.662 C 55.657 88.305 55.622 93.222 57.200 94.800 C 57.860 95.460 59.548 95.964 60.950 95.921 C 62.353 95.878 62.938 95.615 62.250 95.338 C 61.563 95.060 61.000 93.333 61.000 91.500 C 61.000 89.667 61.563 87.940 62.250 87.662 C 62.938 87.385 62.375 87.158 61.000 87.158 C 59.625 87.158 57.938 87.385 57.250 87.662 "/></g>
<g fill="#F62A36FE" stroke="#F62A36FE">
<path d="M 37.000 91.500 C 37.000 95.500 37.250 96.000 39.250 96.000 C 41.250 96.000 41.500 95.500 41.500 91.500 C 41.500 87.500 41.250 87.000 39.250 87.000 C 37.250 87.000 37.000 87.500 37.000 91.500 "/></g>
<g fill="#30302EFE" stroke="#30302EFE">
<path d="M 66.046 44.000 C 66.037 44.825 66.361 45.963 66.765 46.529 C 68.024 48.292 78.000 55.044 78.000 54.133 C 78.000 52.789 73.839 47.828 73.226 48.441 C 72.925 48.741 72.046 48.083 71.271 46.977 C 70.497 45.871 69.472 45.209 68.993 45.504 C 68.514 45.800 67.659 45.245 67.092 44.271 C 66.293 42.898 66.057 42.837 66.046 44.000 "/></g>
<g fill="#323230FE" stroke="#323230FE">
<path d="M 51.352 10.993 C 50.171 11.470 48.907 12.341 48.543 12.930 C 47.620 14.423 50.140 14.210 52.238 12.617 C 53.340 11.780 55.534 11.482 58.238 11.801 C 60.582 12.079 63.625 12.349 65.000 12.403 C 67.475 12.499 67.472 12.488 64.685 11.250 C 61.493 9.833 54.560 9.699 51.352 10.993 "/></g>
<g fill="#484E62FE" stroke="#484E62FE">
<path d="M 20.460 77.846 C 22.132 79.787 22.206 80.258 20.960 81.046 C 19.809 81.774 19.787 81.973 20.857 81.985 C 21.670 81.994 21.975 82.622 21.618 83.552 C 21.277 84.442 21.445 84.843 22.011 84.493 C 22.555 84.157 23.000 84.306 23.000 84.824 C 23.000 85.343 23.904 86.003 25.009 86.292 C 26.712 86.737 26.984 86.375 26.796 83.909 C 26.674 82.309 26.255 81.000 25.864 81.000 C 25.473 81.000 23.656 79.778 21.827 78.285 C 19.171 76.118 18.895 76.030 20.460 77.846 "/></g>
<g fill="#30302EFE" stroke="#30302EFE">
<path d="M 68.231 31.882 C 67.869 35.611 64.302 40.601 60.744 42.355 C 57.676 43.868 57.635 43.956 60.000 43.976 C 61.375 43.988 63.832 42.852 65.460 41.452 C 67.950 39.310 68.423 38.161 68.441 34.203 C 68.453 31.617 68.358 30.572 68.231 31.882 "/></g>
<g fill="#30302EFE" stroke="#30302EFE">
<path d="M 45.306 23.293 C 43.713 24.980 43.715 25.046 45.355 24.417 C 46.905 23.822 55.675 27.102 64.187 31.459 C 66.490 32.638 66.796 32.632 66.330 31.417 C 66.031 30.638 65.272 29.995 64.643 29.989 C 63.538 29.979 47.000 22.256 47.000 21.750 C 47.000 21.613 46.238 22.307 45.306 23.293 "/></g>
<g fill="#8E98ACFE" stroke="#8E98ACFE">
<path d="M 62.986 49.250 C 62.979 51.038 62.718 53.625 62.407 55.000 L 61.840 57.500 64.420 54.694 C 65.839 53.151 66.993 51.351 66.985 50.694 C 66.975 49.972 66.586 50.093 66.000 51.000 C 65.165 52.293 65.029 52.266 65.015 50.809 C 65.007 49.879 65.498 48.810 66.107 48.434 C 66.878 47.957 66.803 47.490 65.857 46.890 C 63.551 45.429 63.000 45.882 62.986 49.250 "/></g>
<g fill="#8E98ACFE" stroke="#8E98ACFE">
<path d="M 43.138 51.320 C 41.948 52.765 42.221 53.421 45.288 56.488 C 48.295 59.495 49.426 59.982 53.150 59.875 L 57.500 59.750 53.286 59.062 C 48.301 58.249 45.230 55.774 44.806 52.229 C 44.529 49.912 44.369 49.824 43.138 51.320 "/></g>
<g fill="#8E98ACFE" stroke="#8E98ACFE">
<path d="M 67.995 14.085 C 62.781 20.144 62.086 21.397 63.199 22.731 C 64.334 24.093 64.471 23.986 64.272 21.896 C 64.111 20.207 65.648 17.741 69.480 13.541 C 72.470 10.264 75.224 7.891 75.600 8.267 C 75.977 8.644 75.683 9.750 74.947 10.726 C 73.693 12.390 73.722 12.397 75.423 10.846 C 77.150 9.271 76.893 7.000 74.988 7.000 C 74.496 7.000 71.349 10.188 67.995 14.085 "/></g>
<g fill="#484E62FE" stroke="#484E62FE">
<path d="M 41.011 53.882 C 40.997 55.578 47.692 62.038 49.321 61.900 C 49.970 61.845 51.625 61.406 53.000 60.925 C 55.278 60.127 55.212 60.076 52.250 60.351 C 50.463 60.518 49.000 60.282 49.000 59.827 C 49.000 59.372 48.358 59.000 47.572 59.000 C 46.787 59.000 44.992 57.538 43.584 55.750 C 42.175 53.963 41.017 53.122 41.011 53.882 "/></g>
<g fill="#8E98ACFE" stroke="#8E98ACFE">
<path d="M 49.000 46.021 C 49.000 46.583 50.025 47.510 51.278 48.081 C 53.923 49.286 59.000 47.802 59.000 45.825 C 59.000 44.872 58.733 44.867 57.800 45.800 C 56.344 47.256 52.354 47.382 51.500 46.000 C 50.694 44.696 49.000 44.710 49.000 46.021 "/></g>
<g fill="#565E72FE" stroke="#565E72FE">
<path d="M 18.536 75.941 C 18.165 76.541 17.443 76.774 16.931 76.457 C 16.419 76.141 16.000 76.407 16.000 77.048 C 16.000 77.689 16.642 77.968 17.427 77.666 C 18.212 77.365 19.425 77.807 20.123 78.648 C 21.194 79.939 21.089 80.130 19.446 79.871 C 17.612 79.582 17.606 79.614 19.351 80.428 C 20.566 80.995 21.463 80.869 21.963 80.060 C 22.381 79.383 23.047 78.980 23.442 79.165 C 23.838 79.349 23.047 78.454 21.686 77.175 C 20.080 75.666 18.974 75.233 18.536 75.941 M 20.500 77.500 L 19.000 76.000 20.500 77.500 L 22.000 79.000 20.500 77.500 "/></g>
<g fill="#FC681CFE" stroke="#FC681CFE">
<path d="M 55.250 87.662 C 52.536 88.757 54.404 96.000 57.400 96.000 C 57.956 96.000 57.867 95.467 57.200 94.800 C 55.622 93.222 55.657 88.305 57.250 87.662 C 57.938 87.385 58.050 87.158 57.500 87.158 C 56.950 87.158 55.938 87.385 55.250 87.662 "/></g>
<g fill="#30302EFE" stroke="#30302EFE">
<path d="M 38.000 46.656 C 36.625 48.034 35.725 49.327 36.000 49.530 C 36.275 49.732 35.466 50.934 34.202 52.199 C 32.938 53.465 33.722 52.989 35.944 51.141 C 38.166 49.294 39.790 47.469 39.553 47.087 C 39.317 46.704 39.433 45.887 39.812 45.271 C 40.190 44.654 39.375 45.278 38.000 46.656 "/></g>
<g fill="#484E62FE" stroke="#484E62FE">
<path d="M 69.031 40.721 C 69.048 41.149 70.960 42.932 73.281 44.683 C 75.601 46.434 78.513 48.814 79.750 49.972 C 80.988 51.130 82.000 51.691 82.000 51.218 C 82.000 50.746 79.075 48.015 75.500 45.150 C 71.925 42.285 69.014 40.292 69.031 40.721 "/></g>
<g fill="#484E62FE" stroke="#484E62FE">
<path d="M 45.000 38.020 C 45.000 39.348 50.481 42.002 53.200 41.990 C 54.806 41.983 53.915 41.243 50.250 39.536 C 47.363 38.192 45.000 37.510 45.000 38.020 "/></g>
<g fill="#00000008" stroke="#00000008">
<path d="M 76.421 18.250 C 76.481 19.962 75.962 20.481 74.250 20.421 C 73.013 20.377 72.001 20.827 72.002 21.421 C 72.004 22.014 73.354 22.548 75.002 22.606 C 77.758 22.704 78.000 22.442 78.000 19.356 C 78.000 17.510 77.627 16.000 77.171 16.000 C 76.714 16.000 76.377 17.013 76.421 18.250 "/></g>
<g fill="#8E98ACFE" stroke="#8E98ACFE">
<path d="M 38.462 47.250 L 33.500 52.500 38.534 47.750 C 43.509 43.057 46.534 41.357 43.872 44.750 C 42.630 46.334 42.665 46.370 44.239 45.137 C 45.859 43.866 45.809 42.000 44.153 42.000 C 43.753 42.000 41.192 44.363 38.462 47.250 "/></g>
<g fill="#484E62FE" stroke="#484E62FE">
<path d="M 46.000 53.743 C 46.000 54.850 46.686 56.324 47.524 57.020 C 50.004 59.078 50.401 57.325 48.114 54.418 C 46.219 52.009 46.000 51.939 46.000 53.743 "/></g>
<g fill="#30302EFE" stroke="#30302EFE">
<path d="M 31.079 88.750 C 31.032 90.079 31.590 91.000 32.441 91.000 C 34.528 91.000 35.434 89.018 33.966 87.663 C 33.001 86.772 32.871 86.792 33.412 87.750 C 33.800 88.438 33.679 89.000 33.142 89.000 C 32.606 89.000 31.940 88.438 31.662 87.750 C 31.385 87.063 31.122 87.513 31.079 88.750 "/></g>
<g fill="#30302EFE" stroke="#30302EFE">
<path d="M 73.116 94.177 C 73.201 95.871 73.356 96.026 73.689 94.750 C 74.249 92.609 75.938 92.439 76.167 94.500 C 76.258 95.326 76.371 95.220 76.417 94.264 C 76.463 93.309 75.713 92.376 74.750 92.190 C 73.466 91.943 73.031 92.471 73.116 94.177 "/></g>
<g fill="#30302EFE" stroke="#30302EFE">
<path d="M 31.116 94.177 C 31.201 95.871 31.356 96.026 31.689 94.750 C 32.249 92.609 33.938 92.439 34.167 94.500 C 34.258 95.326 34.371 95.220 34.417 94.264 C 34.463 93.309 33.713 92.376 32.750 92.190 C 31.466 91.943 31.031 92.471 31.116 94.177 "/></g>
<g fill="#30302EFE" stroke="#30302EFE">
<path d="M 80.564 52.929 C 79.527 54.075 78.981 55.314 79.350 55.683 C 80.118 56.451 83.056 52.925 82.691 51.673 C 82.558 51.219 81.601 51.784 80.564 52.929 "/></g>
<g fill="#484E62FE" stroke="#484E62FE">
<path d="M 60.288 55.291 C 59.609 56.768 59.468 58.171 59.969 58.481 C 61.136 59.202 61.670 58.072 61.576 55.077 L 61.500 52.653 60.288 55.291 "/></g>
<g fill="#8E98ACFE" stroke="#8E98ACFE">
<path d="M 30.500 16.231 C 32.700 18.132 34.145 19.100 33.712 18.384 C 33.278 17.668 31.478 16.113 29.712 14.929 C 27.230 13.266 27.409 13.562 30.500 16.231 "/></g>
<g fill="#484E62FE" stroke="#484E62FE">
<path d="M 58.350 44.483 C 59.504 45.347 59.902 46.362 59.408 47.183 C 58.788 48.214 58.981 48.204 60.297 47.137 C 62.305 45.508 61.835 44.444 58.766 43.670 C 56.637 43.134 56.612 43.183 58.350 44.483 "/></g>
<g fill="#565E72FE" stroke="#565E72FE">
<path d="M 32.750 51.913 C 31.238 53.396 30.032 55.260 30.070 56.055 C 30.125 57.173 30.294 57.135 30.820 55.885 C 31.194 54.997 32.400 53.133 33.500 51.744 C 35.378 49.371 35.332 49.381 32.750 51.913 "/></g>
<g fill="#565E72FE" stroke="#565E72FE">
<path d="M 64.234 43.922 C 64.380 45.254 65.104 46.542 65.842 46.786 C 66.863 47.122 66.799 46.543 65.575 44.364 C 64.042 41.633 63.979 41.613 64.234 43.922 "/></g>
<g fill="#30302EFE" stroke="#30302EFE">
<path d="M 53.000 17.796 C 53.000 18.235 54.163 18.572 55.584 18.546 C 57.005 18.521 57.830 18.163 57.417 17.750 C 56.418 16.751 53.000 16.787 53.000 17.796 "/></g>
<g fill="#8E98ACFE" stroke="#8E98ACFE">
<path d="M 68.500 18.435 L 65.500 21.564 68.500 18.435 L 71.500 15.305 68.500 18.435 "/></g>
<g fill="#565E72FE" stroke="#565E72FE">
<path d="M 26.700 81.341 C 26.417 82.078 26.636 83.316 27.187 84.091 C 27.980 85.207 28.071 85.136 27.626 83.750 C 27.316 82.788 27.499 82.000 28.031 82.000 C 28.564 82.000 29.000 81.550 29.000 81.000 C 29.000 79.530 27.298 79.782 26.700 81.341 "/></g>
<g fill="#565E72FE" stroke="#565E72FE">
<path d="M 48.400 44.400 C 48.034 45.354 48.271 46.667 48.926 47.317 C 49.847 48.230 49.967 48.101 49.452 46.750 C 49.028 45.636 49.261 45.000 50.093 45.000 C 51.089 45.000 51.122 44.722 50.233 43.833 C 49.343 42.943 48.907 43.078 48.400 44.400 "/></g>
<g fill="#303030FE" stroke="#303030FE">
<path d="M 43.437 69.795 C 45.052 71.558 46.756 73.000 47.222 73.000 C 47.688 73.000 46.366 71.558 44.285 69.795 L 40.500 66.590 43.437 69.795 "/></g>
<g fill="#323230FE" stroke="#323230FE">
<path d="M 74.728 100.934 C 74.430 102.070 74.569 103.000 75.035 103.000 C 76.468 103.000 77.282 100.882 76.247 99.847 C 75.608 99.208 75.080 99.586 74.728 100.934 "/></g>
<g fill="#323230FE" stroke="#323230FE">
<path d="M 32.063 100.750 C 32.029 101.988 31.550 103.068 31.000 103.150 C 30.333 103.250 30.333 103.300 31.000 103.300 C 33.597 103.300 33.902 102.917 33.031 100.750 L 32.127 98.500 32.063 100.750 "/></g>
<g fill="#8E98ACFE" stroke="#8E98ACFE">
<path d="M 16.032 74.583 C 16.014 75.179 16.338 76.004 16.750 76.417 C 17.163 76.829 17.507 77.692 17.515 78.333 C 17.526 79.162 17.734 79.180 18.233 78.397 C 18.620 77.791 18.290 76.441 17.500 75.397 C 16.710 74.354 16.049 73.988 16.032 74.583 "/></g>
<g fill="#484E62FE" stroke="#484E62FE">
<path d="M 80.587 83.296 C 81.028 87.246 81.223 87.543 81.552 84.771 C 81.731 83.270 81.531 81.828 81.109 81.567 C 80.687 81.306 80.452 82.084 80.587 83.296 "/></g>
<g fill="#00000008" stroke="#00000008">
<path d="M 29.219 21.156 C 29.542 22.701 30.963 22.983 31.075 21.525 C 31.116 20.989 30.652 20.384 30.044 20.181 C 29.435 19.978 29.064 20.417 29.219 21.156 "/></g>
<g fill="#8E98ACFE" stroke="#8E98ACFE">
<path d="M 36.500 53.410 L 34.500 55.567 36.500 53.410 L 38.500 51.253 36.500 53.410 "/></g>
<g fill="#484E62FE" stroke="#484E62FE">
<path d="M 43.500 46.410 L 41.500 48.567 43.500 46.410 L 45.500 44.253 43.500 46.410 "/></g>
<g fill="#484E62FE" stroke="#484E62FE">
<path d="M 71.500 9.410 L 69.500 11.567 71.500 9.410 L 73.500 7.253 71.500 9.410 "/></g>
<g fill="#8E98ACFE" stroke="#8E98ACFE">
<path d="M 77.877 53.277 C 78.399 53.799 79.397 53.873 80.096 53.441 C 80.965 52.904 80.666 52.604 79.147 52.492 C 77.749 52.389 77.280 52.680 77.877 53.277 "/></g>
<g fill="#8E98ACFE" stroke="#8E98ACFE">
<path d="M 69.000 46.000 L 71.000 48.000 69.000 46.000 L 67.000 44.000 69.000 46.000 "/></g>
<g fill="#8E98ACFE" stroke="#8E98ACFE">
<path d="M 68.027 41.702 C 70.356 43.305 70.420 43.305 69.128 41.702 C 68.373 40.766 67.260 40.000 66.655 40.000 C 66.050 40.000 66.668 40.766 68.027 41.702 "/></g>
<g fill="#8E98ACFE" stroke="#8E98ACFE">
<path d="M 45.872 21.702 C 44.580 23.305 44.644 23.305 46.973 21.702 C 48.332 20.766 48.950 20.000 48.345 20.000 C 47.740 20.000 46.627 20.766 45.872 21.702 "/></g>
<g fill="#484E62FE" stroke="#484E62FE">
<path d="M 34.107 56.495 C 33.342 57.349 32.926 58.259 33.183 58.517 C 33.441 58.774 34.068 58.075 34.576 56.963 C 35.390 55.182 35.334 55.126 34.107 56.495 "/></g>
<g fill="#565E72FE" stroke="#565E72FE">
<path d="M 59.559 57.639 C 58.491 58.387 58.124 59.000 58.744 59.000 C 59.363 59.000 60.236 58.387 60.685 57.639 C 61.372 56.490 61.196 56.490 59.559 57.639 "/></g>
<g fill="#565E72FE" stroke="#565E72FE">
<path d="M 45.000 57.000 L 47.000 59.000 45.000 57.000 L 43.000 55.000 45.000 57.000 "/></g>
<g fill="#30302EFE" stroke="#30302EFE">
<path d="M 61.000 21.200 C 61.000 22.133 61.267 22.133 62.200 21.200 C 63.133 20.267 63.133 20.000 62.200 20.000 C 61.540 20.000 61.000 20.540 61.000 21.200 "/></g>
<g fill="#8E98ACFE" stroke="#8E98ACFE">
<path d="M 37.500 21.500 L 39.000 23.000 37.500 21.500 L 36.000 20.000 37.500 21.500 "/></g>
<g fill="#8E98ACFE" stroke="#8E98ACFE">
<path d="M 32.500 20.500 L 34.000 22.000 32.500 20.500 L 31.000 19.000 32.500 20.500 "/></g>
<g fill="#8E98ACFE" stroke="#8E98ACFE">
<path d="M 39.500 18.500 L 41.000 20.000 39.500 18.500 L 38.000 17.000 39.500 18.500 "/></g>
<g fill="#484E62FE" stroke="#484E62FE">
<path d="M 87.378 77.378 L 86.500 78.256 87.378 77.378 L 88.256 76.500 87.378 77.378 "/></g>
<g fill="#484E62FE" stroke="#484E62FE">
<path d="M 56.800 59.200 C 57.733 60.133 58.000 60.133 58.000 59.200 C 58.000 58.540 57.460 58.000 56.800 58.000 C 55.867 58.000 55.867 58.267 56.800 59.200 "/></g>
<g fill="#565E72FE" stroke="#565E72FE">
<path d="M 87.500 28.500 L 89.000 30.000 87.500 28.500 L 86.000 27.000 87.500 28.500 "/></g>
<g fill="#565E72FE" stroke="#565E72FE">
<path d="M 41.500 19.500 L 43.000 21.000 41.500 19.500 L 40.000 18.000 41.500 19.500 "/></g>
<g fill="#323230FE" stroke="#323230FE">
<path d="M 74.624 17.799 C 74.212 18.466 74.390 19.000 75.024 19.000 C 75.653 19.000 75.987 18.460 75.766 17.799 C 75.455 16.865 75.202 16.865 74.624 17.799 "/></g>
</svg>
