<svg xmlns="http://www.w3.org/2000/svg" width="24px" height="24px" viewBox="0 0 422 390">
    <defs>
        <linearGradient id="e3d8b5vgba" x1="50%" x2="50%" y1="0%" y2="100%">
            <stop offset="0%" stop-color="#48BFFF"/>
            <stop offset="100%" stop-color="#0095E5"/>
        </linearGradient>
        <linearGradient id="831r2w94fb" x1="50%" x2="50%" y1="0%" y2="100%">
            <stop offset="0%" stop-color="#48BFFF"/>
            <stop offset="100%" stop-color="#0095E5"/>
        </linearGradient>
        <linearGradient id="3tcq88a1sc" x1="2%" x2="98%" y1="28.676%" y2="71.324%">
            <stop offset="0%" stop-color="#1B1D21"/>
            <stop offset="100%" stop-color="#292F35"/>
        </linearGradient>
    </defs>
    <g fill="none" fill-rule="evenodd">
        <g>
            <g>
                <g>
                    <path fill="#0E171D" d="M134.375 0h152.603c46.725 0 63.669 4.865 80.75 14 17.083 9.136 30.489 22.542 39.624 39.624 9.136 17.082 14 34.026 14 80.751v121.25c0 46.725-4.864 63.669-14 80.75-9.135 17.083-22.541 30.489-39.623 39.624C350.647 385.135 333.703 390 286.978 390H134.375c-46.725 0-63.669-4.865-80.75-14-17.083-9.136-30.489-22.542-39.624-39.624C4.865 319.294 0 302.35 0 255.625v-121.25c0-46.725 4.865-63.669 14-80.75C23.137 36.541 36.543 23.135 53.625 14 70.706 4.865 87.65 0 134.375 0z" transform="translate(-105.000000, -7348.000000) translate(176.000000, 7286.000000) translate(-71.000000, 62.000000)"/>
                    <path fill="url(#e3d8b5vgba)" d="M39.5 23.17v343.66c-10.485-8.183-19.055-18.404-25.5-30.454-9.135-17.082-14-34.026-14-80.751v-121.25c0-46.725 4.865-63.669 14-80.75 6.445-12.05 15.015-22.272 25.5-30.455z" transform="translate(-105.000000, -7348.000000) translate(176.000000, 7286.000000) translate(-71.000000, 62.000000)"/>
                    <g>
                        <path fill="url(#831r2w94fb)" d="M160.32 5.735v183.53h123.567v-31.372h-89.952V5.735h-33.614zm-154.526 0v183.53H39.42V129.01h36.14c43.997 0 69.222-22.563 69.222-61.643 0-39.07-25.225-61.632-69.222-61.632H5.794zM39.42 36.27h33.614c31.668 0 38.389 12.388 38.389 31.097 0 18.984-6.721 31.647-38.389 31.647H39.42V36.27z" transform="translate(-105.000000, -7348.000000) translate(176.000000, 7286.000000) translate(-71.000000, 62.000000) translate(92.170956, 91.000000)"/>
                        <path fill="url(#3tcq88a1sc)" d="M193.935 0H154.527V195H289.68v-42.831H199.74V0h-5.805zm-33.614 5.735h33.614v152.158h89.952v31.372H160.32V5.735zM5.794 0H0V195h45.202v-60.255H75.56c47.021 0 75.004-24.96 75.004-67.378S122.581 0 75.56 0H5.794zm0 5.735H75.56c43.997 0 69.222 22.563 69.222 61.632 0 39.08-25.225 61.643-69.222 61.643H39.42v60.255H5.794V5.735zM39.42 36.27v62.744h33.614c31.668 0 38.389-12.663 38.389-31.647 0-18.709-6.721-31.097-38.389-31.097H39.42zm5.782 5.747h27.832c25.446 0 32.607 6.894 32.607 25.35 0 18.846-7.208 25.912-32.607 25.912H45.202V42.017z" transform="translate(-105.000000, -7348.000000) translate(176.000000, 7286.000000) translate(-71.000000, 62.000000) translate(92.170956, 91.000000)"/>
                    </g>
                </g>
            </g>
        </g>
    </g>
</svg>
