<svg width="24px" height="24px" viewBox="0 0 422 390" version="1.1" xmlns="http://www.w3.org/2000/svg" xmlns:xlink="http://www.w3.org/1999/xlink">
    <title>40C5B050-A28F-4089-83F0-330516F664A1</title>
    <defs>
        <linearGradient x1="50%" y1="0%" x2="50%" y2="100%" id="linearGradient-1">
            <stop stop-color="#1CDDD4" offset="0.0180971372%"></stop>
            <stop stop-color="#268C77" offset="100%"></stop>
        </linearGradient>
        <linearGradient x1="0%" y1="29.4083419%" x2="100%" y2="70.5916581%" id="linearGradient-2">
            <stop stop-color="#1B1D21" offset="0%"></stop>
            <stop stop-color="#2A2F34" offset="100%"></stop>
        </linearGradient>
        <linearGradient x1="50%" y1="0%" x2="50%" y2="100%" id="linearGradient-3">
            <stop stop-color="#1CDDD4" offset="0.0180971372%"></stop>
            <stop stop-color="#268C77" offset="100%"></stop>
        </linearGradient>
        <path d="M224.190812,96.72 L224.190812,280.28 L255.074567,280.28 L255.074567,212.847832 L290.934159,212.847832 L334.295764,280.28 L370.831103,280.28 L322.2847,207.541801 L322.829927,207.352504 C332.971274,203.792205 341.568883,198.052131 348.627899,190.139293 L348.627899,190.139293 C356.711786,181.078567 360.851138,168.886487 360.851138,153.482106 L360.851138,153.482106 C360.851138,135.215336 354.669758,121.210601 342.509528,111.361459 L342.509528,111.361459 C330.544758,101.671021 314.175094,96.72 293.309239,96.72 L293.309239,96.72 L224.190812,96.72 Z M255.074567,124.586703 L291.206773,124.586703 C304.25171,124.586703 314.111442,126.994015 320.656092,132.106926 L320.656092,132.106926 C326.958348,137.031178 329.96674,144.46727 329.96674,154.263511 L329.96674,154.263511 C329.96674,162.981973 327.407775,170.108945 322.156109,175.590251 L322.156109,175.590251 C316.854293,181.123183 306.930908,183.62355 292.738294,183.678363 L292.738294,183.678363 L292.258006,183.679001 L255.074567,183.679001 L255.074567,124.586703 Z M84.7972794,96.72 L84.7972794,280.28 L115.681034,280.28 L115.681034,214.409367 L152.339178,214.409367 L152.960917,214.408092 C173.413351,214.304839 189.232644,209.098874 200.526168,199.029206 L200.526168,199.029206 C212.042156,188.761318 217.909773,174.311067 217.909773,155.565002 L217.909773,155.565002 C217.909773,136.819574 212.042156,122.368048 200.526168,112.100798 L200.526168,112.100798 C189.118841,101.929152 173.093159,96.72 152.339178,96.72 L152.339178,96.72 L84.7972794,96.72 Z M115.681034,124.847383 L150.105549,124.847383 C164.883252,124.847383 175.00081,127.332454 179.979219,133.033649 L179.979219,133.033649 C184.916479,138.686405 187.288988,146.310519 187.288988,155.825045 L187.288988,155.825045 C187.288988,165.335748 184.896548,172.957312 179.921353,178.608156 L179.921353,178.608156 C174.95516,184.248164 165.024703,186.749169 150.578121,186.802707 L150.578121,186.802707 L150.105549,186.803345 L115.681034,186.803345 L115.681034,124.847383 Z" id="path-4"></path>
    </defs>
    <g id="Page-2" stroke="none" stroke-width="1" fill="none" fill-rule="evenodd">
        <g id="D-DxO_PureRAW-04" transform="translate(-126.000000, -2126.000000)">
            <g id="Bloc/Download/PR" transform="translate(173.000000, 2080.000000)">
                <g id="Icon/App/PR/Simple" transform="translate(-47.000000, 46.000000)">
                    <path d="M134.375153,-5.428917e-15 L286.977788,5.428917e-15 C333.702957,-3.15435712e-15 350.646632,4.86506013 367.728655,14.000626 C384.810678,23.1361919 398.216749,36.5422636 407.352315,53.6242866 C416.487881,70.7063097 421.352941,87.6499847 421.352941,134.375153 L421.352941,255.624847 C421.352941,302.350015 416.487881,319.29369 407.352315,336.375713 C398.216749,353.457736 384.810678,366.863808 367.728655,375.999374 C350.646632,385.13494 333.702957,390 286.977788,390 L134.375153,390 C87.6499847,390 70.7063097,385.13494 53.6242866,375.999374 C36.5422636,366.863808 23.1361919,353.457736 14.000626,336.375713 C4.86506013,319.29369 6.31807874e-15,302.350015 -1.08739511e-14,255.624847 L-3.63539511e-15,134.375153 C2.11226925e-15,87.6499847 4.86506013,70.7063097 14.000626,53.6242866 C23.1361919,36.5422636 36.5422636,23.1361919 53.6242866,14.000626 C70.7063097,4.86506013 87.6499847,3.15435712e-15 134.375153,-5.428917e-15 Z" id="Rectangle" fill="#0E171D"></path>
                    <path d="M39.5009259,23.1702213 L39.5009259,366.829779 C29.0148196,358.646848 20.4451474,348.425921 14.000626,336.375713 C4.86506013,319.29369 6.31807874e-15,302.350015 -1.08739511e-14,255.624847 L-3.63539511e-15,134.375153 C2.11226925e-15,87.6499847 4.86506013,70.7063097 14.000626,53.6242866 C20.4451474,41.5740792 29.0148196,31.3531519 39.5009259,23.1702213 Z" id="Combined-Shape" fill="url(#linearGradient-1)"></path>
                    <path d="M293.318718,93.7719104 L294.1717,93.7746683 C315.160778,93.9100192 331.673803,99.0108806 343.878925,108.681108 L344.371368,109.075647 L344.825912,109.44793 C357.197299,119.691055 363.647932,134.08139 363.796612,152.817474 L363.799242,153.488468 L363.796061,154.232125 C363.66282,169.887433 359.349601,182.314673 351.212471,191.665325 L350.8221,192.10827 L350.31605,192.669063 C343.867845,199.735062 336.219202,205.106259 327.357796,208.776922 L326.803,209.002 L376.343107,283.228105 L332.68649,283.228105 L289.324886,215.795937 L258.022672,215.795937 L258.022672,283.228105 L221.242707,283.228105 L221.242707,93.7718952 L293.318718,93.7719104 Z M291.206773,127.534807 L258.022672,127.534807 L258.022672,180.730846 L292.728557,180.730259 L293.381021,180.72596 L294.012432,180.71844 C306.371299,180.539132 315.253872,178.498492 320.323043,173.235961 C324.870146,168.323015 327.017123,161.966441 327.018634,154.27164 L327.018634,154.27164 L327.015744,153.756541 L327.007181,153.260613 C326.816857,145.032471 324.240806,138.670375 318.529002,134.191385 C312.383923,129.564299 303.195776,127.534807 291.206773,127.534807 L291.206773,127.534807 Z M152.348815,93.7719109 L153.16471,93.7745938 C174.132601,93.9120623 190.35768,99.3116769 202.047011,109.511241 L202.494365,109.905897 L202.935569,110.303703 C214.597415,120.934111 220.70904,135.717371 220.855193,154.859857 L220.857878,155.570831 L220.855083,156.283299 C220.705658,175.429601 214.590249,190.21359 202.916601,200.843592 L202.481702,201.235397 L202.020963,201.641454 C190.450794,211.723522 174.441529,217.109012 153.784774,217.349376 L152.966961,217.35619 L152.339178,217.357471 L118.629139,217.357471 L118.629139,283.228105 L81.8491746,283.228105 L81.8491746,93.7718952 L152.348815,93.7719109 Z M150.105549,127.795488 L118.629139,127.795488 L118.629139,183.855186 L150.568739,183.854603 L151.222968,183.850451 L151.841297,183.843404 C164.354653,183.670608 173.245296,181.689023 177.987291,176.33677 C182.342814,171.203906 184.339667,164.317911 184.340882,155.832799 L184.340882,155.832799 L184.337744,155.244056 L184.328448,154.674099 C184.150975,146.540196 182.067489,139.931559 177.573219,134.766598 C172.887126,129.653181 163.434268,127.795488 150.105549,127.795488 L150.105549,127.795488 Z" id="Clip-2" stroke="url(#linearGradient-2)" stroke-width="5.89620966"></path>
                    <mask id="mask-5" fill="white">
                        <use xlink:href="#path-4"></use>
                    </mask>
                    <use id="Clip-2" fill="url(#linearGradient-3)" xlink:href="#path-4"></use>
                </g>
            </g>
        </g>
    </g>
</svg>