<?xml version="1.0" encoding="utf-8"?>
<!DOCTYPE svg PUBLIC "-//W3C//DTD SVG 20010904//EN" "http://www.w3.org/TR/2001/REC-SVG-20010904/DTD/svg10.dtd">
<svg version="1.0" xmlns="http://www.w3.org/2000/svg" width="24px" height="24px" viewBox="0 0 258 258" style="" preserveAspectRatio="xMidYMid meet">
<g fill="#E00004FE" stroke="#E00004FE">
<path d="M 69.214 36.070 C 52.887 38.191 40.434 48.644 36.524 63.510 C 34.285 72.022 33.709 101.191 34.786 151.500 C 35.812 199.421 35.959 200.289 44.670 209.977 C 50.528 216.493 56.074 219.697 64.636 221.511 C 74.706 223.644 183.294 223.644 193.364 221.511 C 201.926 219.697 207.472 216.493 213.330 209.977 C 222.028 200.303 222.189 199.358 223.207 152.000 C 224.297 101.272 223.685 70.703 221.425 62.976 C 217.021 47.918 204.979 38.239 187.888 36.021 C 180.491 35.061 170.957 34.829 174.250 35.689 C 175.539 36.026 176.030 37.248 176.114 40.323 C 176.349 48.895 175.934 54.640 174.734 59.423 C 173.737 63.402 173.069 64.376 171.250 64.506 C 170.013 64.594 169.000 64.403 169.000 64.083 C 169.000 63.762 167.763 63.447 166.250 63.381 C 164.738 63.316 159.450 61.780 154.500 59.967 C 146.381 56.995 144.178 56.630 132.000 56.236 C 116.910 55.747 109.719 56.941 97.946 61.887 C 93.106 63.921 90.836 64.436 90.072 63.672 C 89.427 63.027 89.000 62.992 89.000 63.586 C 89.000 64.128 88.104 64.571 87.009 64.571 C 83.493 64.571 81.669 56.564 81.899 42.143 C 81.982 36.928 82.270 35.889 83.500 36.362 C 84.325 36.678 85.000 36.501 85.000 35.969 C 85.000 34.850 78.271 34.894 69.214 36.070 M 145.000 78.522 C 149.737 80.918 152.082 83.058 151.322 84.288 C 150.963 84.869 151.183 85.005 151.832 84.604 C 152.481 84.203 154.788 85.644 157.188 87.950 C 159.506 90.177 161.724 92.000 162.117 92.000 C 163.349 92.000 172.177 104.306 174.039 108.621 C 179.186 120.542 180.044 136.728 176.081 147.146 C 173.513 153.899 167.466 163.382 163.150 167.424 L 160.027 170.348 165.514 176.100 C 170.153 180.964 171.000 182.427 171.000 185.581 C 171.000 192.688 161.852 198.710 145.050 202.662 C 135.561 204.894 114.842 204.014 106.007 201.005 C 91.837 196.177 87.000 192.249 87.000 185.570 C 87.000 181.884 87.595 180.844 92.449 176.050 L 97.898 170.669 93.180 165.507 C 76.795 147.579 74.611 120.960 87.936 101.592 C 92.528 94.919 103.350 84.527 105.741 84.495 C 106.424 84.486 106.923 84.037 106.849 83.496 C 106.687 82.315 114.872 77.368 118.162 76.658 C 123.544 75.497 141.484 76.743 145.000 78.522 M 141.932 58.538 C 158.652 61.249 170.201 67.214 182.523 79.500 C 196.521 93.458 203.364 110.202 203.364 130.500 C 203.364 143.685 200.980 153.389 194.844 165.183 C 189.623 175.218 185.041 179.431 180.201 178.645 C 172.592 177.410 169.094 170.034 172.910 163.269 C 174.079 161.196 176.574 156.331 178.453 152.457 C 193.058 122.349 176.403 86.110 143.500 76.408 C 135.601 74.079 122.399 74.079 114.500 76.408 C 86.028 84.803 68.882 113.661 75.552 141.960 C 76.389 145.512 79.373 152.760 82.182 158.064 C 87.783 168.642 87.943 170.629 83.599 175.680 C 80.165 179.672 74.266 179.584 69.967 175.477 C 66.171 171.852 58.552 156.642 56.541 148.673 C 50.401 124.355 57.290 97.848 74.349 80.159 C 85.875 68.206 102.008 59.955 117.000 58.344 C 120.025 58.019 122.688 57.584 122.917 57.377 C 123.847 56.536 133.053 57.098 141.932 58.538 M 163.378 165.378 L 164.256 164.500 163.378 165.378 L 162.500 166.256 163.378 165.378 M 94.500 165.500 L 93.000 164.000 94.500 165.500 L 96.000 167.000 94.500 165.500 "/></g>
<g fill="#C24A4EFE" stroke="#C24A4EFE">
<path d="M 67.106 27.050 C 50.702 29.257 39.132 36.913 32.538 49.925 C 26.738 61.371 25.594 74.274 26.857 114.000 C 27.304 128.025 27.743 136.688 27.834 133.250 C 27.990 127.395 28.149 127.000 30.361 127.000 C 32.462 127.000 32.791 126.423 33.352 121.750 C 33.699 118.863 34.002 109.300 34.025 100.500 C 34.082 79.119 35.380 65.735 38.103 58.445 C 41.128 50.351 50.148 41.271 58.500 37.912 L 64.500 35.500 129.000 35.500 L 193.500 35.500 199.500 37.912 C 207.854 41.272 216.859 50.341 219.942 58.500 C 222.677 65.738 223.893 78.434 223.965 100.500 C 223.994 109.300 224.293 118.795 224.630 121.599 C 225.173 126.113 225.497 126.670 227.455 126.456 C 229.481 126.233 229.685 126.685 229.894 131.834 C 230.019 134.925 230.246 137.580 230.400 137.733 C 231.229 138.562 231.767 79.941 231.009 71.407 C 228.937 48.103 218.356 34.166 198.280 28.302 C 193.182 26.812 185.485 26.588 133.000 26.402 C 100.275 26.286 70.623 26.577 67.106 27.050 "/></g>
<g fill="#FE2620FE" stroke="#FE2620FE">
<path d="M 85.000 35.965 C 85.000 36.500 84.325 36.678 83.500 36.362 C 82.270 35.889 81.982 36.928 81.899 42.143 C 81.669 56.564 83.493 64.571 87.009 64.571 C 88.104 64.571 89.000 64.128 89.000 63.586 C 89.000 62.992 89.427 63.027 90.072 63.672 C 90.836 64.436 93.106 63.921 97.946 61.887 C 109.719 56.941 116.910 55.747 132.000 56.236 C 144.178 56.630 146.381 56.995 154.500 59.967 C 159.450 61.780 164.738 63.316 166.250 63.381 C 167.763 63.447 169.000 63.762 169.000 64.083 C 169.000 64.403 170.013 64.594 171.250 64.506 C 173.060 64.377 173.753 63.382 174.793 59.423 C 176.134 54.318 176.644 37.311 175.491 36.157 C 174.396 35.061 85.000 34.872 85.000 35.965 "/></g>
<g fill="#5E020AFE" stroke="#5E020AFE">
<path d="M 26.521 176.500 C 26.771 195.524 28.143 201.872 33.965 210.945 C 40.838 221.656 53.160 229.045 67.322 230.948 C 77.740 232.349 180.260 232.349 190.678 230.948 C 204.840 229.045 217.162 221.656 224.035 210.945 C 229.801 201.960 231.221 195.481 231.477 177.000 C 231.696 161.196 231.678 161.027 231.057 173.000 C 230.700 179.875 230.316 183.813 230.204 181.750 C 230.012 178.218 229.322 177.537 226.316 177.910 C 225.664 177.991 224.949 176.582 224.726 174.779 C 224.503 172.975 224.240 174.650 224.143 178.500 C 223.751 193.939 219.406 205.605 211.245 213.128 C 205.012 218.873 198.082 221.740 187.494 222.953 C 175.772 224.296 82.228 224.296 70.506 222.953 C 46.484 220.202 34.472 205.291 33.889 177.500 C 33.797 173.079 33.595 172.290 33.125 174.500 C 32.679 176.600 31.814 177.596 30.244 177.820 C 28.430 178.078 27.961 178.844 27.794 181.820 C 27.681 183.844 27.298 179.650 26.943 172.500 C 26.319 159.915 26.305 160.043 26.521 176.500 "/></g>
<g fill="#00000008" stroke="#00000008">
<path d="M 27.113 56.750 C 23.400 65.790 23.035 72.343 23.035 130.000 C 23.035 192.315 23.237 194.857 29.155 207.000 C 35.268 219.543 49.277 230.448 64.000 234.126 C 72.029 236.132 185.971 236.132 194.000 234.126 C 208.723 230.448 222.732 219.543 228.845 207.000 C 234.763 194.857 234.965 192.315 234.965 130.000 C 234.965 72.343 234.600 65.790 230.887 56.750 C 228.969 52.081 228.099 53.719 229.825 58.750 C 231.245 62.893 231.494 71.296 231.771 124.463 C 231.980 164.704 231.721 187.818 231.008 192.463 C 228.317 209.987 216.872 223.584 200.042 229.251 C 193.641 231.406 192.220 231.461 134.000 231.792 C 92.730 232.026 72.061 231.778 66.539 230.980 C 45.364 227.919 30.163 213.114 26.992 192.463 C 26.279 187.818 26.020 164.704 26.229 124.463 C 26.506 71.296 26.755 62.893 28.175 58.750 C 29.901 53.719 29.031 52.081 27.113 56.750 "/></g>
<g fill="#36080AFE" stroke="#36080AFE">
<path d="M 118.230 81.170 C 115.881 81.696 114.217 82.542 114.532 83.051 C 114.846 83.561 114.451 83.727 113.653 83.420 C 110.650 82.268 92.026 94.173 91.983 97.273 C 91.973 97.948 90.850 99.558 89.486 100.851 C 88.123 102.145 87.257 103.607 87.563 104.101 C 87.868 104.596 87.566 105.000 86.892 105.000 C 86.218 105.000 85.945 105.279 86.286 105.619 C 86.626 105.960 86.251 106.892 85.452 107.690 C 83.770 109.373 83.537 113.137 85.023 114.623 C 87.015 116.615 86.965 119.876 84.934 120.521 C 82.444 121.311 82.427 124.683 84.908 125.471 C 85.957 125.804 87.087 126.785 87.419 127.651 C 87.927 128.974 88.278 129.014 89.620 127.900 C 90.971 126.779 91.430 126.868 92.608 128.479 C 93.973 130.346 94.003 130.345 94.152 128.441 C 94.236 127.374 94.352 125.903 94.410 125.174 C 94.468 124.445 94.849 124.183 95.258 124.591 C 95.938 125.271 96.384 123.356 96.269 120.250 C 96.243 119.563 96.608 119.000 97.080 119.000 C 97.551 119.000 97.678 118.325 97.362 117.500 C 97.036 116.651 97.338 116.000 98.060 116.000 C 98.760 116.000 99.060 115.727 98.727 115.393 C 98.393 115.060 98.549 114.272 99.072 113.643 C 99.596 113.015 101.399 110.700 103.079 108.500 C 104.759 106.300 108.691 102.742 111.817 100.592 C 114.943 98.443 116.825 96.917 116.000 97.200 C 110.760 99.000 103.990 100.210 102.456 99.622 C 100.911 99.029 101.276 98.370 105.038 94.965 C 107.448 92.784 110.000 91.000 110.710 91.000 C 111.419 91.000 112.000 90.502 112.000 89.893 C 112.000 89.257 111.268 89.067 110.280 89.446 C 109.335 89.809 108.916 89.750 109.351 89.316 C 109.785 88.882 111.571 88.469 113.320 88.400 C 115.069 88.330 119.308 87.683 122.740 86.962 C 127.751 85.909 130.283 85.891 135.592 86.869 C 142.153 88.078 150.830 91.886 153.010 94.513 C 153.635 95.265 154.862 95.606 155.737 95.271 C 156.752 94.881 157.080 95.062 156.643 95.769 C 156.266 96.378 156.755 97.324 157.729 97.871 C 159.377 98.797 159.382 98.911 157.800 99.520 C 155.073 100.571 146.393 99.388 143.871 97.622 C 142.597 96.730 140.418 96.032 139.027 96.070 C 136.872 96.131 137.058 96.346 140.293 97.533 C 142.379 98.299 145.417 99.873 147.043 101.031 C 148.669 102.189 150.000 102.656 150.000 102.068 C 150.000 100.717 153.673 100.662 154.500 102.000 C 155.439 103.520 154.035 105.140 152.534 104.269 C 151.417 103.621 155.426 109.475 159.026 113.750 C 159.605 114.438 159.784 115.000 159.424 115.000 C 159.064 115.000 159.492 116.101 160.374 117.448 C 161.261 118.801 161.683 120.662 161.319 121.612 C 160.905 122.691 161.052 123.086 161.716 122.676 C 162.316 122.304 162.976 123.096 163.247 124.512 C 163.509 125.880 163.335 127.000 162.861 127.000 C 162.388 127.000 162.000 128.125 162.000 129.500 C 162.000 132.223 163.720 132.894 164.629 130.526 C 165.118 129.251 165.411 129.268 166.799 130.656 C 168.272 132.130 168.482 132.087 169.355 130.131 C 170.451 127.675 171.930 127.273 171.600 129.522 C 171.477 130.358 171.067 130.733 170.688 130.355 C 170.310 129.976 170.000 130.223 170.000 130.903 C 170.000 132.813 174.433 131.747 174.814 129.745 C 175.002 128.758 174.350 127.664 173.324 127.245 C 171.133 126.350 170.650 118.998 172.782 118.999 C 173.487 119.000 174.439 117.988 174.897 116.750 C 175.446 115.265 175.350 114.500 174.615 114.500 C 174.002 114.500 173.500 113.375 173.500 112.000 C 173.500 110.625 173.152 109.242 172.727 108.927 C 172.301 108.611 171.743 107.263 171.486 105.930 C 171.230 104.597 170.565 103.355 170.010 103.170 C 169.454 102.985 169.000 102.245 169.000 101.527 C 169.000 100.808 166.624 97.808 163.720 94.860 C 152.027 82.990 134.143 77.608 118.230 81.170 M 103.334 102.427 C 104.035 104.256 101.487 106.401 99.513 105.643 C 97.955 105.046 97.487 102.846 98.667 101.667 C 99.850 100.483 102.770 100.958 103.334 102.427 M 97.820 109.828 C 98.057 111.443 97.624 112.000 96.129 112.000 C 93.497 112.000 92.512 110.293 94.064 108.423 C 95.688 106.466 97.420 107.115 97.820 109.828 M 163.824 103.336 C 164.236 105.461 161.087 106.758 159.956 104.929 C 158.983 103.354 160.738 100.746 162.400 101.300 C 163.005 101.501 163.646 102.417 163.824 103.336 M 92.664 115.567 C 93.560 117.903 91.450 119.618 89.585 118.070 C 88.401 117.088 88.339 116.535 89.292 115.451 C 90.895 113.626 91.933 113.662 92.664 115.567 M 163.544 115.401 C 164.744 116.602 164.744 116.967 163.542 117.965 C 162.438 118.882 161.920 118.718 161.105 117.196 C 159.519 114.233 161.165 113.022 163.544 115.401 M 159.514 110.977 C 159.010 111.793 158.380 111.559 157.431 110.205 C 156.683 109.137 156.365 107.968 156.726 107.608 C 157.757 106.576 160.320 109.673 159.514 110.977 M 167.571 110.000 C 167.571 112.136 166.517 112.645 165.500 111.000 C 164.826 109.909 165.682 108.000 166.845 108.000 C 167.244 108.000 167.571 108.900 167.571 110.000 M 169.400 122.764 C 169.345 123.444 169.233 123.523 169.150 122.941 C 169.068 122.359 168.581 122.141 168.069 122.457 C 167.557 122.774 166.829 122.532 166.451 121.920 C 166.018 121.220 166.456 120.941 167.632 121.168 C 168.659 121.365 169.455 122.084 169.400 122.764 M 138.340 82.673 C 138.710 83.044 137.920 83.394 136.584 83.453 C 135.248 83.511 134.371 83.208 134.636 82.780 C 135.228 81.822 137.426 81.759 138.340 82.673 M 128.340 82.673 C 128.710 83.044 127.920 83.394 126.584 83.453 C 125.248 83.511 124.371 83.208 124.636 82.780 C 125.228 81.822 127.426 81.759 128.340 82.673 M 151.613 89.157 C 150.224 89.963 149.910 89.955 150.422 89.126 C 150.805 88.507 151.654 88.014 152.309 88.030 C 152.964 88.047 152.651 88.554 151.613 89.157 "/></g>
<g fill="#9E0208FE" stroke="#9E0208FE">
<path d="M 87.425 69.913 C 64.495 84.470 51.614 111.736 55.002 138.540 C 56.807 152.817 63.932 169.832 70.583 175.750 C 74.161 178.933 79.924 178.803 83.265 175.463 C 87.191 171.536 87.518 168.425 84.564 163.098 C 76.568 148.684 74.000 140.516 74.000 129.500 C 74.000 114.568 79.593 101.291 90.420 90.519 C 107.905 73.124 132.535 69.290 154.079 80.611 C 166.847 87.320 175.314 96.891 180.715 110.720 C 183.010 116.596 183.372 119.033 183.431 129.000 C 183.508 142.135 182.161 147.408 176.022 158.000 C 171.053 166.574 170.639 168.201 172.371 172.346 C 174.105 176.495 176.552 178.000 181.566 178.000 C 186.363 178.000 190.322 173.913 195.315 163.808 C 210.822 132.425 203.014 95.009 176.648 74.356 C 172.717 71.276 168.742 68.473 167.816 68.128 C 166.890 67.783 168.879 69.525 172.236 72.000 C 183.797 80.522 193.371 94.573 198.130 110.000 C 199.977 115.987 200.444 119.820 200.449 129.000 C 200.456 142.313 198.805 149.766 193.404 160.813 C 186.828 174.262 181.712 177.803 176.455 172.545 C 173.526 169.617 173.314 166.147 175.865 162.885 C 185.051 151.138 188.915 129.595 184.547 114.475 C 179.113 95.665 164.484 80.361 146.542 74.715 C 136.672 71.610 121.328 71.610 111.458 74.715 C 94.090 80.180 80.379 93.747 74.614 111.172 C 68.903 128.435 70.802 144.325 80.501 160.431 C 84.649 167.320 84.817 169.274 81.545 172.545 C 78.062 176.029 74.813 175.690 71.096 171.457 C 60.230 159.081 54.680 134.823 58.401 115.975 C 61.460 100.481 71.737 82.936 82.824 74.281 C 90.804 68.051 91.705 67.196 87.425 69.913 "/></g>
<g fill="#E00004FE" stroke="#E00004FE">
<path d="M 109.366 106.919 C 102.963 110.823 98.163 119.362 97.358 128.278 C 96.599 136.689 99.521 144.472 105.936 151.127 C 111.139 156.526 113.130 157.081 115.443 153.777 C 117.664 150.607 117.380 148.239 114.348 144.644 C 103.580 131.874 109.772 113.806 125.737 111.412 C 137.664 109.624 148.944 118.797 148.984 130.316 C 149.002 135.624 148.433 137.046 143.206 144.770 L 139.640 150.040 141.676 152.770 C 142.796 154.272 144.442 155.644 145.334 155.819 C 146.235 155.996 149.128 153.967 151.835 151.260 C 163.193 139.903 163.844 123.476 153.429 111.098 C 149.803 106.788 145.043 104.324 143.883 106.156 C 143.414 106.895 143.024 108.063 143.015 108.750 C 142.996 110.301 143.900 110.195 129.075 110.388 L 116.649 110.551 115.075 107.782 C 113.200 104.486 113.325 104.504 109.366 106.919 "/></g>
<g fill="#00000008" stroke="#00000008">
<path d="M 82.573 115.200 C 80.883 123.547 80.821 125.298 82.130 127.755 C 83.207 129.777 83.232 130.417 82.250 130.747 C 79.355 131.719 82.244 146.125 85.428 146.592 C 88.088 146.983 88.549 147.891 87.189 150.069 C 86.212 151.634 86.210 152.510 87.183 154.273 C 88.280 156.260 88.453 156.305 88.791 154.693 C 89.009 153.647 89.866 153.020 90.823 153.204 C 93.000 153.624 93.667 157.000 91.573 157.000 C 89.435 157.000 89.596 158.325 92.000 160.500 C 93.134 161.526 94.000 161.810 94.000 161.155 C 94.000 160.520 94.900 160.000 96.000 160.000 C 98.099 160.000 98.750 162.418 96.951 163.530 C 95.289 164.557 97.864 166.976 100.348 166.721 C 101.621 166.590 102.398 167.010 102.250 167.750 C 102.113 168.438 102.353 169.000 102.784 169.000 C 104.023 169.000 114.542 158.017 113.466 157.848 C 112.935 157.764 112.017 157.644 111.428 157.581 C 109.608 157.387 100.845 146.872 98.920 142.572 C 97.917 140.332 96.561 138.500 95.907 138.500 C 95.253 138.500 94.219 137.688 93.609 136.697 C 92.727 135.263 92.859 134.689 94.250 133.897 C 95.510 133.179 95.973 131.725 95.903 128.700 L 95.806 124.500 94.267 128.250 C 92.338 132.951 89.356 133.320 87.864 129.041 C 87.297 127.413 85.970 125.808 84.916 125.473 C 82.428 124.684 82.440 121.313 84.934 120.521 C 87.100 119.834 87.000 117.265 84.679 113.951 C 83.288 111.967 83.220 112.007 82.573 115.200 M 92.812 142.265 C 93.210 144.331 90.324 145.724 88.800 144.200 C 87.276 142.676 88.669 139.790 90.735 140.188 C 91.693 140.372 92.628 141.307 92.812 142.265 M 97.820 148.828 C 98.057 150.443 97.624 151.000 96.129 151.000 C 93.497 151.000 92.512 149.293 94.064 147.423 C 95.688 145.466 97.420 146.115 97.820 148.828 M 87.820 135.828 C 88.057 137.443 87.624 138.000 86.129 138.000 C 83.497 138.000 82.512 136.293 84.064 134.423 C 85.688 132.466 87.420 133.115 87.820 135.828 M 102.664 154.567 C 102.995 155.429 102.775 156.625 102.175 157.225 C 100.731 158.669 97.904 156.414 98.666 154.427 C 99.398 152.521 101.913 152.609 102.664 154.567 M 107.500 161.570 C 107.500 162.616 106.713 163.624 105.750 163.810 C 103.990 164.149 103.216 161.117 104.688 159.646 C 105.869 158.464 107.500 159.580 107.500 161.570 "/></g>
<g fill="#00000008" stroke="#00000008">
<path d="M 173.000 111.941 C 173.000 113.009 173.450 114.160 174.000 114.500 C 175.597 115.487 175.157 118.000 173.250 118.782 C 170.775 119.797 170.831 126.227 173.324 127.245 C 174.350 127.664 175.002 128.758 174.814 129.745 C 174.419 131.816 170.008 132.797 169.985 130.820 C 169.972 129.748 169.809 129.753 169.115 130.848 C 168.403 131.971 168.042 131.960 166.944 130.785 C 165.813 129.574 165.389 129.611 163.958 131.042 C 163.040 131.960 162.001 133.859 161.649 135.262 C 161.297 136.666 160.762 138.456 160.461 139.241 C 160.082 140.230 160.608 140.642 162.175 140.584 C 163.574 140.532 164.573 141.169 164.793 142.253 C 165.284 144.680 162.031 145.764 160.508 143.680 C 159.423 142.196 159.202 142.261 158.256 144.338 C 157.430 146.151 157.541 146.851 158.779 147.632 C 160.885 148.961 159.405 151.195 156.654 150.840 C 153.225 150.397 151.808 151.720 153.245 154.021 C 154.195 155.542 154.177 156.220 153.158 157.225 C 152.109 158.260 151.611 158.156 150.516 156.673 C 149.240 154.945 149.025 154.937 146.592 156.532 C 143.780 158.374 144.000 160.000 147.059 160.000 C 148.196 160.000 149.000 160.683 149.000 161.649 C 149.000 162.556 150.580 164.833 152.512 166.709 L 156.024 170.119 162.042 164.379 C 165.352 161.221 169.355 156.357 170.937 153.569 C 174.543 147.213 177.169 138.569 175.883 137.283 C 175.294 136.694 175.512 135.248 176.465 133.421 C 178.366 129.774 178.363 129.567 176.342 125.308 C 175.123 122.740 174.991 121.623 175.844 121.096 C 176.709 120.562 176.612 119.057 175.464 115.190 C 173.855 109.773 173.000 108.645 173.000 111.941 M 169.837 135.392 C 170.244 137.504 168.356 139.074 166.341 138.300 C 164.922 137.756 164.519 134.814 165.701 133.632 C 166.942 132.392 169.466 133.466 169.837 135.392 M 168.964 147.456 C 170.338 149.112 169.558 151.000 167.500 151.000 C 165.700 151.000 164.676 149.286 165.380 147.452 C 166.090 145.601 167.425 145.603 168.964 147.456 M 174.559 141.096 C 175.616 142.806 172.282 145.682 170.874 144.274 C 170.247 143.647 170.005 142.429 170.336 141.567 C 171.028 139.764 173.561 139.481 174.559 141.096 M 158.820 161.828 C 159.027 163.240 158.610 164.000 157.629 164.000 C 155.684 164.000 154.661 162.325 155.412 160.369 C 156.226 158.247 158.432 159.191 158.820 161.828 M 164.000 154.941 C 164.000 156.009 163.511 157.184 162.913 157.554 C 161.384 158.499 159.614 156.448 160.336 154.567 C 161.193 152.333 164.000 152.620 164.000 154.941 "/></g>
<g fill="#5E020AFE" stroke="#5E020AFE">
<path d="M 119.097 87.585 C 116.125 88.384 112.900 88.786 111.931 88.478 C 110.961 88.170 109.882 88.382 109.532 88.948 C 109.154 89.560 109.525 89.736 110.448 89.382 C 111.302 89.054 112.000 89.284 112.000 89.893 C 112.000 90.502 111.419 91.000 110.710 91.000 C 110.000 91.000 107.448 92.784 105.038 94.965 C 101.276 98.370 100.911 99.029 102.456 99.622 C 103.446 100.002 106.432 99.755 109.090 99.074 C 111.748 98.392 114.460 98.166 115.116 98.572 C 115.905 99.059 116.045 98.882 115.529 98.047 C 114.949 97.109 115.326 96.969 117.000 97.500 C 118.453 97.961 119.024 97.847 118.611 97.179 C 117.663 95.646 121.391 94.795 125.601 95.585 C 128.246 96.081 129.090 95.955 128.586 95.138 C 127.675 93.666 130.068 93.672 133.685 95.151 C 135.233 95.785 137.488 96.206 138.695 96.087 C 141.102 95.850 145.511 97.822 144.604 98.729 C 143.811 99.522 156.048 100.196 157.947 99.464 C 159.298 98.944 159.269 98.736 157.729 97.871 C 156.755 97.324 156.266 96.378 156.643 95.769 C 157.080 95.062 156.752 94.881 155.737 95.271 C 154.862 95.606 153.635 95.265 153.010 94.513 C 151.091 92.200 142.781 88.319 137.201 87.130 C 130.362 85.672 125.781 85.787 119.097 87.585 "/></g>
<g fill="#9E0208FE" stroke="#9E0208FE">
<path d="M 92.631 175.948 C 86.031 182.867 85.249 186.766 89.458 191.768 C 96.618 200.277 122.440 205.959 140.702 203.046 C 151.198 201.371 163.161 196.657 167.643 192.430 C 170.955 189.306 171.218 188.659 170.709 184.869 C 170.278 181.656 169.077 179.632 165.364 175.862 C 162.699 173.157 159.671 171.010 158.538 171.022 C 156.936 171.039 157.731 172.199 162.250 176.436 C 168.436 182.238 169.686 186.171 166.389 189.468 C 160.469 195.388 144.096 200.000 129.000 200.000 C 107.255 200.000 86.864 191.321 89.668 183.259 C 90.004 182.291 92.511 179.191 95.238 176.369 C 97.965 173.548 99.761 170.970 99.229 170.642 C 98.697 170.313 95.728 172.701 92.631 175.948 "/></g>
<g fill="#FE2620FE" stroke="#FE2620FE">
<path d="M 116.424 101.057 C 108.097 104.261 100.480 111.906 98.547 119.000 C 98.147 120.468 98.956 119.642 100.507 117.000 C 101.960 114.525 104.128 111.445 105.324 110.155 C 107.399 107.919 112.953 104.493 113.396 105.176 C 113.511 105.354 114.313 106.636 115.178 108.025 C 116.733 110.521 116.898 110.549 129.126 110.388 C 143.894 110.195 142.996 110.300 143.015 108.750 C 143.100 101.839 151.354 106.543 157.493 117.000 C 159.044 119.642 159.853 120.468 159.453 119.000 C 157.485 111.778 149.843 104.207 141.292 101.008 C 134.221 98.363 123.372 98.384 116.424 101.057 "/></g>
<g fill="#00000008" stroke="#00000008">
<path d="M 77.500 23.608 C 69.598 24.308 60.004 26.198 60.476 26.961 C 60.740 27.389 62.879 27.368 65.228 26.913 C 70.800 25.836 187.200 25.836 192.772 26.913 C 199.253 28.167 198.774 26.454 192.227 24.963 C 187.981 23.997 172.924 23.607 134.000 23.457 C 105.125 23.345 79.700 23.413 77.500 23.608 "/></g>
<g fill="#FE2620FE" stroke="#FE2620FE">
<path d="M 118.000 76.812 C 114.762 77.713 108.181 81.363 105.000 84.023 L 102.500 86.113 106.719 84.052 C 119.898 77.614 138.211 77.623 151.281 84.074 L 155.500 86.156 152.500 83.563 C 146.181 78.102 142.221 76.791 131.000 76.443 C 125.225 76.264 119.375 76.430 118.000 76.812 "/></g>
<g fill="#9E0208FE" stroke="#9E0208FE">
<path d="M 140.210 116.162 C 144.619 120.320 146.000 123.544 146.000 129.679 C 146.000 134.039 142.667 142.000 140.842 142.000 C 139.820 142.000 137.000 147.445 137.000 149.416 C 137.000 151.643 142.896 157.977 144.424 157.391 C 145.343 157.038 144.878 156.032 142.867 154.021 C 139.240 150.394 139.273 149.178 143.128 144.388 C 149.028 137.054 150.439 130.380 147.551 123.467 C 146.074 119.934 142.104 115.664 138.500 113.733 C 137.400 113.144 138.170 114.237 140.210 116.162 "/></g>
<g fill="#9E0208FE" stroke="#9E0208FE">
<path d="M 114.790 117.368 C 110.418 121.248 109.000 124.493 109.000 130.615 C 109.000 135.445 110.879 140.016 114.502 144.000 C 118.355 148.237 118.524 150.630 115.203 153.951 C 113.250 155.904 112.685 157.049 113.518 157.369 C 114.207 157.633 116.022 156.543 117.552 154.946 C 121.459 150.868 121.208 147.229 116.652 141.907 C 109.389 133.422 109.545 125.645 117.174 115.787 C 117.904 114.846 116.830 115.557 114.790 117.368 "/></g>
<g fill="#9E0208FE" stroke="#9E0208FE">
<path d="M 225.000 171.167 C 225.000 175.625 225.189 176.000 227.443 176.000 C 229.589 176.000 229.931 176.514 230.268 180.250 C 230.505 182.889 230.711 181.656 230.810 177.000 C 230.984 168.808 230.244 166.721 227.080 166.487 C 225.239 166.352 225.000 166.890 225.000 171.167 "/></g>
<g fill="#9E0208FE" stroke="#9E0208FE">
<path d="M 27.624 169.273 C 27.296 170.498 27.100 174.425 27.188 178.000 C 27.309 182.851 27.447 183.422 27.732 180.250 C 28.098 176.192 28.998 175.336 32.308 175.901 C 32.753 175.977 32.978 174.160 32.808 171.864 C 32.559 168.485 32.092 167.628 30.361 167.368 C 28.844 167.140 28.047 167.695 27.624 169.273 "/></g>
<g fill="#5E020AFE" stroke="#5E020AFE">
<path d="M 98.667 101.667 C 97.487 102.846 97.955 105.046 99.513 105.643 C 101.487 106.401 104.035 104.256 103.334 102.427 C 102.770 100.958 99.850 100.483 98.667 101.667 "/></g>
<g fill="#5E020AFE" stroke="#5E020AFE">
<path d="M 94.064 108.423 C 92.512 110.293 93.497 112.000 96.129 112.000 C 97.624 112.000 98.057 111.443 97.820 109.828 C 97.420 107.115 95.688 106.466 94.064 108.423 "/></g>
<g fill="#5E020AFE" stroke="#5E020AFE">
<path d="M 160.207 102.250 C 158.725 104.036 160.344 106.466 162.473 105.649 C 164.269 104.959 164.218 101.905 162.400 101.300 C 161.795 101.098 160.808 101.526 160.207 102.250 "/></g>
<g fill="#5E020AFE" stroke="#5E020AFE">
<path d="M 150.000 102.378 C 150.000 104.810 152.568 106.225 153.953 104.556 C 154.624 103.748 154.882 102.618 154.527 102.044 C 153.578 100.508 150.000 100.772 150.000 102.378 "/></g>
<g fill="#C24A4EFE" stroke="#C24A4EFE">
<path d="M 97.554 169.088 C 97.864 169.590 98.865 170.000 99.778 170.000 C 100.864 170.000 99.376 172.158 95.469 176.250 L 89.500 182.500 95.741 176.541 C 99.818 172.647 101.641 170.241 101.001 169.601 C 99.729 168.329 96.818 167.896 97.554 169.088 "/></g>
<g fill="#5E020AFE" stroke="#5E020AFE">
<path d="M 159.872 115.692 C 158.736 117.093 158.733 117.244 159.857 116.567 C 160.908 115.934 161.062 116.286 160.542 118.125 C 160.023 119.956 160.109 120.157 160.919 119.000 C 161.497 118.175 161.976 117.893 161.985 118.372 C 161.993 118.852 162.662 118.695 163.472 118.023 C 164.734 116.976 164.744 116.602 163.544 115.401 C 161.766 113.623 161.536 113.642 159.872 115.692 "/></g>
<g fill="#5E020AFE" stroke="#5E020AFE">
<path d="M 89.292 115.451 C 88.339 116.535 88.401 117.088 89.585 118.070 C 91.450 119.618 93.560 117.903 92.664 115.567 C 91.933 113.662 90.895 113.626 89.292 115.451 "/></g>
<g fill="#36080AFE" stroke="#36080AFE">
<path d="M 170.380 141.452 C 169.662 143.323 170.846 145.243 172.342 144.632 C 173.134 144.307 173.093 144.133 172.211 144.079 C 171.164 144.015 171.162 143.742 172.198 142.633 C 173.274 141.482 173.682 141.521 174.792 142.883 C 175.921 144.267 175.953 144.176 175.020 142.250 C 173.788 139.707 171.219 139.266 170.380 141.452 "/></g>
<g fill="#36080AFE" stroke="#36080AFE">
<path d="M 84.036 134.456 C 83.372 135.257 83.118 136.382 83.473 136.956 C 84.317 138.322 88.000 138.310 88.000 136.941 C 88.000 136.359 87.597 136.131 87.105 136.435 C 86.612 136.740 85.932 136.266 85.593 135.383 C 85.147 134.219 85.407 133.942 86.541 134.377 C 87.439 134.722 87.844 134.557 87.493 133.989 C 86.634 132.598 85.445 132.759 84.036 134.456 "/></g>
<g fill="#36080AFE" stroke="#36080AFE">
<path d="M 80.447 129.074 C 80.597 132.058 80.783 133.750 80.860 132.833 C 80.937 131.917 81.545 130.985 82.212 130.763 C 83.114 130.462 83.008 129.501 81.799 127.003 L 80.174 123.648 80.447 129.074 "/></g>
<g fill="#FE2620FE" stroke="#FE2620FE">
<path d="M 175.000 147.642 C 175.000 148.179 173.424 151.234 171.498 154.433 C 169.573 157.631 168.708 159.658 169.576 158.937 C 171.572 157.281 176.326 147.993 175.567 147.234 C 175.255 146.922 175.000 147.106 175.000 147.642 "/></g>
<g fill="#C24A4EFE" stroke="#C24A4EFE">
<path d="M 163.668 163.879 C 162.110 165.475 161.263 167.044 161.784 167.367 C 162.673 167.916 166.793 164.252 166.250 163.395 C 166.113 163.178 166.113 162.545 166.250 161.989 C 166.388 161.433 165.226 162.283 163.668 163.879 "/></g>
<g fill="#C24A4EFE" stroke="#C24A4EFE">
<path d="M 91.911 162.250 C 92.644 163.213 92.895 164.000 92.467 164.000 C 92.040 164.000 92.514 164.911 93.521 166.024 C 94.529 167.137 95.726 167.674 96.183 167.217 C 96.640 166.760 95.565 165.062 93.795 163.443 C 92.025 161.825 91.177 161.288 91.911 162.250 "/></g>
<g fill="#FE2620FE" stroke="#FE2620FE">
<path d="M 82.012 147.283 C 81.992 148.614 86.992 157.999 87.859 158.257 C 88.308 158.391 87.180 155.800 85.350 152.500 C 83.521 149.200 82.018 146.852 82.012 147.283 "/></g>
<g fill="#5E020AFE" stroke="#5E020AFE">
<path d="M 156.803 107.654 C 156.352 108.536 156.543 111.186 157.027 110.750 C 157.180 110.613 157.351 111.129 157.407 111.898 C 157.486 112.974 157.834 112.905 158.919 111.598 C 160.137 110.130 160.118 109.690 158.782 108.354 C 157.932 107.504 157.042 107.189 156.803 107.654 "/></g>
<g fill="#FE2620FE" stroke="#FE2620FE">
<path d="M 89.605 160.978 C 90.042 161.791 92.141 164.041 94.269 165.978 C 97.420 168.846 97.272 168.571 93.474 164.500 C 90.909 161.750 89.168 160.165 89.605 160.978 "/></g>
<g fill="#FE2620FE" stroke="#FE2620FE">
<path d="M 163.602 165.224 L 159.924 169.500 164.064 165.685 C 166.341 163.587 167.996 161.663 167.742 161.409 C 167.488 161.155 165.625 162.872 163.602 165.224 "/></g>
<g fill="#36080AFE" stroke="#36080AFE">
<path d="M 175.000 121.886 C 175.000 122.373 175.717 124.060 176.592 125.636 C 178.086 128.322 178.149 128.345 177.606 126.000 C 177.288 124.625 177.021 122.938 177.014 122.250 C 177.006 121.563 176.550 121.000 176.000 121.000 C 175.450 121.000 175.000 121.399 175.000 121.886 "/></g>
<g fill="#36080AFE" stroke="#36080AFE">
<path d="M 93.063 135.128 C 92.991 136.997 95.360 139.307 96.342 138.325 C 97.308 137.359 97.144 135.000 96.111 135.000 C 95.622 135.000 95.280 135.788 95.351 136.750 C 95.434 137.876 95.060 137.608 94.304 136.000 C 93.534 134.365 93.105 134.063 93.063 135.128 "/></g>
<g fill="#36080AFE" stroke="#36080AFE">
<path d="M 128.365 94.781 C 128.631 95.211 130.345 95.638 132.174 95.729 C 134.862 95.864 135.116 95.728 133.500 95.018 C 130.961 93.904 127.731 93.755 128.365 94.781 "/></g>
<g fill="#9E0208FE" stroke="#9E0208FE">
<path d="M 212.000 211.942 L 208.500 215.562 212.000 211.942 L 215.500 208.323 212.000 211.942 "/></g>
<g fill="#9E0208FE" stroke="#9E0208FE">
<path d="M 46.000 212.000 L 50.000 216.000 46.000 212.000 L 42.000 208.000 46.000 212.000 "/></g>
<g fill="#36080AFE" stroke="#36080AFE">
<path d="M 88.566 141.317 C 87.470 143.712 89.288 145.530 91.683 144.434 C 93.206 143.738 93.124 143.648 91.174 143.877 C 89.266 144.102 88.898 143.734 89.123 141.826 C 89.352 139.876 89.262 139.794 88.566 141.317 "/></g>
<g fill="#36080AFE" stroke="#36080AFE">
<path d="M 119.000 96.000 C 117.667 96.862 117.667 96.960 119.000 96.885 C 119.825 96.839 121.625 96.440 123.000 96.000 L 125.500 95.199 123.000 95.115 C 121.625 95.069 119.825 95.467 119.000 96.000 "/></g>
<g fill="#5E020AFE" stroke="#5E020AFE">
<path d="M 165.500 109.000 C 164.826 110.091 165.682 112.000 166.845 112.000 C 167.244 112.000 167.571 111.100 167.571 110.000 C 167.571 107.864 166.517 107.355 165.500 109.000 "/></g>
<g fill="#C24A4EFE" stroke="#C24A4EFE">
<path d="M 179.500 78.500 L 183.000 82.000 179.500 78.500 L 176.000 75.000 179.500 78.500 "/></g>
<g fill="#C24A4EFE" stroke="#C24A4EFE">
<path d="M 78.500 78.435 L 75.500 81.564 78.500 78.435 L 81.500 75.305 78.500 78.435 "/></g>
<g fill="#36080AFE" stroke="#36080AFE">
<path d="M 163.649 141.765 C 164.025 143.202 163.633 143.960 162.343 144.293 C 160.642 144.731 160.637 144.777 162.281 144.884 C 164.425 145.024 165.696 142.296 164.189 140.789 C 163.420 140.020 163.265 140.299 163.649 141.765 "/></g>
<g fill="#00000008" stroke="#00000008">
<path d="M 162.086 124.250 C 162.039 125.763 162.411 127.000 162.914 127.000 C 163.444 127.000 163.480 125.847 162.999 124.250 L 162.172 121.500 162.086 124.250 "/></g>
<g fill="#C24A4EFE" stroke="#C24A4EFE">
<path d="M 152.000 106.000 L 155.000 109.000 152.000 106.000 L 149.000 103.000 152.000 106.000 "/></g>
<g fill="#C24A4EFE" stroke="#C24A4EFE">
<path d="M 106.000 105.924 L 103.500 108.566 106.000 105.924 L 108.500 103.282 106.000 105.924 "/></g>
<g fill="#36080AFE" stroke="#36080AFE">
<path d="M 175.636 134.837 C 175.113 135.649 175.245 136.631 175.972 137.337 C 176.894 138.233 177.092 137.926 176.833 136.000 C 176.589 134.178 176.264 133.863 175.636 134.837 "/></g>
<g fill="#5E020AFE" stroke="#5E020AFE">
<path d="M 152.000 151.924 L 149.500 154.566 152.000 151.924 L 154.500 149.282 152.000 151.924 "/></g>
<g fill="#5E020AFE" stroke="#5E020AFE">
<path d="M 106.000 152.000 L 109.000 155.000 106.000 152.000 L 103.000 149.000 106.000 152.000 "/></g>
<g fill="#C24A4EFE" stroke="#C24A4EFE">
<path d="M 157.639 168.694 C 156.333 170.001 157.044 171.075 158.628 170.188 C 159.562 169.666 159.835 169.016 159.268 168.666 C 158.724 168.329 157.991 168.342 157.639 168.694 "/></g>
<g fill="#C24A4EFE" stroke="#C24A4EFE">
<path d="M 117.500 155.410 L 115.500 157.567 117.500 155.410 L 119.500 153.253 117.500 155.410 "/></g>
<g fill="#C24A4EFE" stroke="#C24A4EFE">
<path d="M 117.000 142.000 L 119.500 144.500 117.000 142.000 L 114.500 139.500 117.000 142.000 "/></g>
<g fill="#C24A4EFE" stroke="#C24A4EFE">
<path d="M 110.000 74.343 C 107.645 75.330 107.632 75.376 109.772 75.129 C 111.022 74.985 112.147 74.513 112.272 74.081 C 112.397 73.648 111.375 73.766 110.000 74.343 "/></g>
<g fill="#C24A4EFE" stroke="#C24A4EFE">
<path d="M 162.441 66.448 C 163.509 67.301 164.859 67.982 165.441 67.960 C 166.024 67.938 165.150 67.239 163.500 66.408 C 160.777 65.035 160.679 65.038 162.441 66.448 "/></g>
<g fill="#C24A4EFE" stroke="#C24A4EFE">
<path d="M 100.000 63.642 C 98.625 64.350 98.005 64.945 98.623 64.965 C 99.241 64.984 100.366 64.405 101.123 63.678 C 102.266 62.580 102.075 62.574 100.000 63.642 "/></g>
<g fill="#36080AFE" stroke="#36080AFE">
<path d="M 165.636 133.780 C 165.371 134.208 166.248 134.511 167.584 134.453 C 168.920 134.394 169.710 134.044 169.340 133.673 C 168.426 132.759 166.228 132.822 165.636 133.780 "/></g>
<g fill="#5E020AFE" stroke="#5E020AFE">
<path d="M 85.816 123.033 C 86.304 124.351 86.951 124.888 87.324 124.284 C 87.684 123.703 87.299 122.663 86.470 121.975 C 85.173 120.898 85.081 121.046 85.816 123.033 "/></g>
<g fill="#5E020AFE" stroke="#5E020AFE">
<path d="M 134.636 82.780 C 134.371 83.208 135.248 83.511 136.584 83.453 C 137.920 83.394 138.710 83.044 138.340 82.673 C 137.426 81.759 135.228 81.822 134.636 82.780 "/></g>
<g fill="#5E020AFE" stroke="#5E020AFE">
<path d="M 124.636 82.780 C 124.371 83.208 125.248 83.511 126.584 83.453 C 127.920 83.394 128.710 83.044 128.340 82.673 C 127.426 81.759 125.228 81.822 124.636 82.780 "/></g>
<g fill="#FE2620FE" stroke="#FE2620FE">
<path d="M 201.500 39.592 C 204.223 40.965 204.321 40.962 202.559 39.552 C 201.491 38.699 200.141 38.018 199.559 38.040 C 198.976 38.062 199.850 38.761 201.500 39.592 "/></g>
<g fill="#FE2620FE" stroke="#FE2620FE">
<path d="M 55.441 39.552 C 53.679 40.962 53.777 40.965 56.500 39.592 C 58.150 38.761 59.024 38.062 58.441 38.040 C 57.859 38.018 56.509 38.699 55.441 39.552 "/></g>
<g fill="#C24A4EFE" stroke="#C24A4EFE">
<path d="M 114.250 120.422 L 113.500 122.343 114.250 120.422 L 115.000 118.500 114.250 120.422 "/></g>
<g fill="#C24A4EFE" stroke="#C24A4EFE">
<path d="M 141.000 117.000 L 143.000 119.000 141.000 117.000 L 139.000 115.000 141.000 117.000 "/></g>
<g fill="#C24A4EFE" stroke="#C24A4EFE">
<path d="M 173.000 73.000 L 175.000 75.000 173.000 73.000 L 171.000 71.000 173.000 73.000 "/></g>
<g fill="#C24A4EFE" stroke="#C24A4EFE">
<path d="M 92.828 67.649 L 91.500 68.798 92.828 67.649 L 94.156 66.500 92.828 67.649 "/></g>
<g fill="#C24A4EFE" stroke="#C24A4EFE">
<path d="M 157.000 64.000 C 157.825 64.533 158.950 64.969 159.500 64.969 C 160.050 64.969 159.825 64.533 159.000 64.000 C 158.175 63.467 157.050 63.031 156.500 63.031 C 155.950 63.031 156.175 63.467 157.000 64.000 "/></g>
<g fill="#36080AFE" stroke="#36080AFE">
<path d="M 163.000 163.888 L 161.500 165.563 163.000 163.888 L 164.500 162.212 163.000 163.888 "/></g>
<g fill="#5E020AFE" stroke="#5E020AFE">
<path d="M 117.027 82.702 C 119.356 84.305 119.420 84.305 118.128 82.702 C 117.373 81.766 116.260 81.000 115.655 81.000 C 115.050 81.000 115.668 81.766 117.027 82.702 "/></g>
<g fill="#9E0208FE" stroke="#9E0208FE">
<path d="M 93.422 66.126 C 92.910 66.955 93.224 66.963 94.613 66.157 C 95.651 65.554 95.964 65.047 95.309 65.030 C 94.654 65.014 93.805 65.507 93.422 66.126 "/></g>
<g fill="#00000008" stroke="#00000008">
<path d="M 171.843 107.613 C 172.446 108.651 172.953 108.964 172.970 108.309 C 172.986 107.654 172.493 106.805 171.874 106.422 C 171.045 105.910 171.037 106.224 171.843 107.613 "/></g>
<g fill="#C24A4EFE" stroke="#C24A4EFE">
<path d="M 168.650 157.758 C 168.274 158.365 168.385 159.120 168.896 159.436 C 169.407 159.751 169.714 159.255 169.578 158.332 C 169.424 157.281 169.077 157.066 168.650 157.758 "/></g>
<g fill="#C24A4EFE" stroke="#C24A4EFE">
<path d="M 141.500 156.500 L 143.000 158.000 141.500 156.500 L 140.000 155.000 141.500 156.500 "/></g>
<g fill="#C24A4EFE" stroke="#C24A4EFE">
<path d="M 120.422 114.126 C 119.910 114.955 120.224 114.963 121.613 114.157 C 122.651 113.554 122.964 113.047 122.309 113.030 C 121.654 113.014 120.805 113.507 120.422 114.126 "/></g>
<g fill="#C24A4EFE" stroke="#C24A4EFE">
<path d="M 84.378 92.378 L 83.500 93.256 84.378 92.378 L 85.256 91.500 84.378 92.378 "/></g>
<g fill="#C24A4EFE" stroke="#C24A4EFE">
<path d="M 172.500 91.500 L 174.000 93.000 172.500 91.500 L 171.000 90.000 172.500 91.500 "/></g>
<g fill="#C24A4EFE" stroke="#C24A4EFE">
<path d="M 166.500 85.500 L 168.000 87.000 166.500 85.500 L 165.000 84.000 166.500 85.500 "/></g>
<g fill="#C24A4EFE" stroke="#C24A4EFE">
<path d="M 161.422 81.874 C 161.805 82.493 162.654 82.986 163.309 82.970 C 163.964 82.953 163.651 82.446 162.613 81.843 C 161.224 81.037 160.910 81.045 161.422 81.874 "/></g>
<g fill="#C24A4EFE" stroke="#C24A4EFE">
<path d="M 101.422 78.126 C 100.910 78.955 101.224 78.963 102.613 78.157 C 103.651 77.554 103.964 77.047 103.309 77.030 C 102.654 77.014 101.805 77.507 101.422 78.126 "/></g>
<g fill="#C24A4EFE" stroke="#C24A4EFE">
<path d="M 148.422 74.874 C 148.805 75.493 149.654 75.986 150.309 75.970 C 150.964 75.953 150.651 75.446 149.613 74.843 C 148.224 74.037 147.910 74.045 148.422 74.874 "/></g>
<g fill="#36080AFE" stroke="#36080AFE">
<path d="M 147.650 160.758 C 147.274 161.365 147.385 162.120 147.896 162.436 C 148.407 162.751 148.714 162.255 148.578 161.332 C 148.424 160.281 148.077 160.066 147.650 160.758 "/></g>
<g fill="#36080AFE" stroke="#36080AFE">
<path d="M 168.695 149.352 C 168.275 150.448 168.413 150.863 169.064 150.460 C 169.637 150.106 169.939 149.318 169.736 148.709 C 169.533 148.100 169.065 148.389 168.695 149.352 "/></g>
<g fill="#36080AFE" stroke="#36080AFE">
<path d="M 165.422 147.126 C 164.910 147.955 165.224 147.963 166.613 147.157 C 167.651 146.554 167.964 146.047 167.309 146.030 C 166.654 146.014 165.805 146.507 165.422 147.126 "/></g>
<g fill="#36080AFE" stroke="#36080AFE">
<path d="M 96.387 147.157 C 97.776 147.963 98.090 147.955 97.578 147.126 C 97.195 146.507 96.346 146.014 95.691 146.030 C 95.036 146.047 95.349 146.554 96.387 147.157 "/></g>
<g fill="#5E020AFE" stroke="#5E020AFE">
<path d="M 166.500 97.500 L 168.000 99.000 166.500 97.500 L 165.000 96.000 166.500 97.500 "/></g>
<g fill="#5E020AFE" stroke="#5E020AFE">
<path d="M 159.500 90.500 L 161.000 92.000 159.500 90.500 L 158.000 89.000 159.500 90.500 "/></g>
<g fill="#5E020AFE" stroke="#5E020AFE">
<path d="M 98.378 90.378 L 97.500 91.256 98.378 90.378 L 99.256 89.500 98.378 90.378 "/></g>
<g fill="#5E020AFE" stroke="#5E020AFE">
<path d="M 150.422 89.126 C 149.910 89.955 150.224 89.963 151.613 89.157 C 152.651 88.554 152.964 88.047 152.309 88.030 C 151.654 88.014 150.805 88.507 150.422 89.126 "/></g>
<g fill="#5E020AFE" stroke="#5E020AFE">
<path d="M 113.387 83.157 C 114.776 83.963 115.090 83.955 114.578 83.126 C 114.195 82.507 113.346 82.014 112.691 82.030 C 112.036 82.047 112.349 82.554 113.387 83.157 "/></g>
<g fill="#FE362CFE" stroke="#FE362CFE">
<path d="M 152.500 107.500 L 154.000 109.000 152.500 107.500 L 151.000 106.000 152.500 107.500 "/></g>
<g fill="#FE362CFE" stroke="#FE362CFE">
<path d="M 105.378 107.378 L 104.500 108.256 105.378 107.378 L 106.256 106.500 105.378 107.378 "/></g>
<g fill="#FE2620FE" stroke="#FE2620FE">
<path d="M 208.500 43.500 L 210.000 45.000 208.500 43.500 L 207.000 42.000 208.500 43.500 "/></g>
<g fill="#FE2620FE" stroke="#FE2620FE">
<path d="M 49.378 43.378 L 48.500 44.256 49.378 43.378 L 50.256 42.500 49.378 43.378 "/></g>
</svg>
