<?xml version="1.0" encoding="UTF-8"?>
<svg width="24px" height="24px" viewBox="0 0 32 30" version="1.1" xmlns="http://www.w3.org/2000/svg" xmlns:xlink="http://www.w3.org/1999/xlink">
    <title>Icon/App/VP/Simple</title>
    <defs>
        <linearGradient x1="0%" y1="32.9861111%" x2="69.5359802%" y2="67.0138889%" id="linearGradient-1">
            <stop stop-color="#1B1D21" offset="0%"></stop>
            <stop stop-color="#2A2F34" offset="100%"></stop>
        </linearGradient>
        <linearGradient x1="50%" y1="0%" x2="50%" y2="100%" id="linearGradient-2">
            <stop stop-color="#CADFEF" offset="0%"></stop>
            <stop stop-color="#8AB3D4" offset="100%"></stop>
        </linearGradient>
        <linearGradient x1="50%" y1="0%" x2="50%" y2="100%" id="linearGradient-3">
            <stop stop-color="#CADFEF" offset="0%"></stop>
            <stop stop-color="#8AB3D4" offset="100%"></stop>
        </linearGradient>
    </defs>
    <g id="Icon/App/VP/Simple" stroke="none" stroke-width="1" fill="none" fill-rule="evenodd">
        <path d="M10.2555408,-4.14336123e-16 L21.7444592,4.14336123e-16 C25.3105342,-2.4074122e-16 26.6036791,0.371302445 27.9073828,1.06853082 C29.2110865,1.76575919 30.2342408,2.78891348 30.9314692,4.09261719 C31.6286976,5.39632089 32,6.68946584 32,10.2555408 L32,19.7444592 C32,23.3105342 31.6286976,24.6036791 30.9314692,25.9073828 C30.2342408,27.2110865 29.2110865,28.2342408 27.9073828,28.9314692 C26.6036791,29.6286976 25.3105342,30 21.7444592,30 L10.2555408,30 C6.68946584,30 5.39632089,29.6286976 4.09261719,28.9314692 C2.78891348,28.2342408 1.76575919,27.2110865 1.06853082,25.9073828 C0.371302445,24.6036791 1.60494146e-16,23.3105342 -2.76224082e-16,19.7444592 L2.76224082e-16,10.2555408 C-1.60494146e-16,6.68946584 0.371302445,5.39632089 1.06853082,4.09261719 C1.76575919,2.78891348 2.78891348,1.76575919 4.09261719,1.06853082 C5.39632089,0.371302445 6.68946584,2.4074122e-16 10.2555408,-4.14336123e-16 Z" id="Rectangle" fill="#0E171D"></path>
        <path d="M18.6807595,7.75 L23.9928286,7.75010221 C25.6984291,7.79888822 26.9970869,8.27359774 27.8770682,9.098703 C28.7778468,9.9433085 29.25,11.1599396 29.2498683,12.7097366 C29.1977019,14.316385 28.690804,15.541765 27.8047477,16.3725731 C26.9665293,17.1585262 25.7815332,17.5964436 24.2884036,17.6481131 L23.9856806,17.6532857 L21.6169032,17.6532857 L21.6169032,22.25 L18.6807595,22.25 L18.6807595,7.75 Z M23.8029726,10.579803 L21.6169032,10.579803 L21.6169032,14.8650839 L24.0260981,14.8621848 L24.2591494,14.8511758 C25.0111145,14.8013807 25.5163963,14.6203662 25.8363205,14.3010001 C26.2366079,13.9014109 26.3333249,13.3008909 26.3325215,12.5607923 C26.317118,11.9307799 26.1939058,11.3998806 25.7610129,11.0524638 C25.3711002,10.7395406 24.7499021,10.579803 23.8029726,10.579803 L23.8029726,10.579803 Z M7.77539963,7.75 L11.4354176,18.121314 L15.0954001,7.75 L18.2297844,7.75 L12.8682134,22.25 L10.0231996,22.25 L4.6405256,7.75 L7.77539963,7.75 Z" id="Clip-20" stroke="url(#linearGradient-1)" stroke-width="0.5"></path>
        <path d="M18.9307595,8 L18.9307595,22 L21.3669032,22 L21.3669032,17.4032857 L23.9856806,17.4032857 C27.1729201,17.4032857 29,15.6821416 29,12.7016236 L29,12.7016236 C29,9.72110571 27.1729201,8 23.9856806,8 L23.9856806,8 L18.9307595,8 Z M21.3669032,10.329803 L23.8029726,10.329803 C26.096973,10.329803 26.5841943,11.2743334 26.5841943,12.7016236 L26.5841943,12.7016236 C26.5841943,14.1499419 26.096973,15.1153849 23.8029726,15.1153849 L23.8029726,15.1153849 L21.3669032,15.1153849 L21.3669032,10.329803 Z M15.2722866,8 L11.4354187,18.8725551 L7.59851368,8 L5,8 L10.1970646,22 L12.694111,22 L17.8708003,8 L15.2722866,8 Z" id="Clip-20" fill="url(#linearGradient-2)"></path>
        <path d="M3.00011286,1.77978454 L3.00011286,28.2202155 C2.20645653,27.5976136 1.55738251,26.821456 1.06853082,25.9073828 C0.371302445,24.6036791 -6.15504586e-17,23.3105342 -4.98268687e-16,19.7444592 L5.41794771e-17,10.2555408 C-3.82538751e-16,6.68946584 0.371302445,5.39632089 1.06853082,4.09261719 C1.55738251,3.178544 2.20645653,2.40238644 3.00011286,1.77978454 Z" id="Combined-Shape" fill="url(#linearGradient-3)"></path>
    </g>
</svg>