<?xml version="1.0" encoding="utf-8"?>
<!DOCTYPE svg PUBLIC "-//W3C//DTD SVG 20010904//EN" "http://www.w3.org/TR/2001/REC-SVG-20010904/DTD/svg10.dtd">
<svg version="1.0" xmlns="http://www.w3.org/2000/svg" width="24px" height="24px" viewBox="0 0 107 107" style="" preserveAspectRatio="xMidYMid meet">
<g fill="#2C2C2CFC" stroke="#2C2C2CFC">
<path d="M 23.000 3.120 C 15.329 4.021 13.063 5.124 8.333 10.255 C 2.191 16.918 1.772 20.056 2.165 56.500 C 2.467 84.438 2.684 87.846 4.364 91.000 C 6.811 95.594 10.778 99.801 14.500 101.749 C 17.060 103.089 32.477 105.433 35.500 104.943 C 36.050 104.853 48.200 104.492 62.500 104.140 C 91.639 103.423 91.982 103.344 98.355 95.898 C 103.680 89.677 104.150 85.704 103.803 49.836 L 103.500 18.500 100.848 14.000 C 98.035 9.228 94.516 6.205 89.331 4.107 C 85.862 2.703 33.218 1.919 23.000 3.120 M 24.000 14.059 C 24.000 14.641 23.581 14.859 23.069 14.543 C 21.684 13.687 20.996 15.380 22.051 17.048 C 22.779 18.199 22.973 18.219 22.985 17.143 C 22.994 16.350 23.623 16.025 24.500 16.362 C 25.429 16.718 26.000 16.357 26.000 15.411 C 26.000 14.189 27.112 13.946 31.590 14.192 C 34.945 14.376 37.479 15.034 37.930 15.839 C 38.342 16.576 38.864 17.110 39.090 17.025 C 39.527 16.861 41.817 17.560 46.207 19.197 C 47.696 19.753 49.221 20.122 49.595 20.018 C 49.970 19.914 50.621 20.387 51.043 21.069 C 51.618 22.001 53.120 21.624 57.077 19.555 C 66.023 14.877 70.424 13.989 78.000 15.332 L 80.500 15.775 77.685 16.887 C 76.137 17.499 73.977 18.000 72.885 18.000 C 71.794 18.000 69.599 18.673 68.007 19.496 C 65.883 20.595 64.924 20.687 64.402 19.842 C 63.962 19.130 64.132 18.963 64.845 19.405 C 65.480 19.797 66.000 19.615 66.000 19.000 C 66.000 18.385 66.343 18.094 66.763 18.353 C 67.182 18.612 68.644 18.205 70.013 17.448 C 72.411 16.120 72.422 16.070 70.315 16.035 C 67.491 15.990 63.609 17.476 58.000 20.750 C 55.525 22.195 53.818 23.180 54.207 22.939 C 54.596 22.697 55.553 23.375 56.335 24.443 C 57.670 26.270 57.858 26.285 59.449 24.693 C 60.381 23.762 61.587 23.000 62.130 23.000 C 62.674 23.000 62.797 22.480 62.405 21.845 C 61.968 21.139 62.130 20.962 62.822 21.390 C 63.445 21.775 65.848 21.580 68.162 20.956 C 72.792 19.710 82.419 19.247 81.344 20.323 C 80.971 20.695 81.192 21.000 81.833 21.000 C 82.475 21.000 83.000 21.360 83.000 21.799 C 83.000 22.239 81.313 22.485 79.250 22.346 C 75.738 22.109 76.348 22.405 81.750 23.558 C 83.874 24.011 85.146 28.000 83.167 28.000 C 82.709 28.000 82.422 29.013 82.530 30.250 C 82.638 31.488 82.462 32.950 82.139 33.500 C 81.542 34.518 81.422 35.104 81.152 38.309 C 81.069 39.304 80.555 39.843 80.011 39.507 C 79.424 39.144 79.290 39.593 79.681 40.612 C 80.164 41.868 79.985 42.109 79.015 41.510 C 78.186 40.997 77.931 41.080 78.334 41.731 C 79.060 42.906 77.185 49.000 76.097 49.000 C 75.708 49.000 72.307 46.458 68.540 43.351 C 62.592 38.444 61.540 37.909 60.538 39.279 C 59.274 41.007 59.716 48.294 61.035 47.478 C 61.485 47.200 61.485 45.689 61.035 44.120 C 60.580 42.535 60.617 40.653 61.118 39.884 C 61.822 38.803 62.893 39.422 66.010 42.711 C 68.204 45.027 70.000 46.629 70.000 46.270 C 70.000 44.734 72.939 49.665 72.968 51.250 C 72.994 52.667 69.302 57.637 68.882 56.750 C 68.816 56.613 68.799 56.785 68.843 57.134 C 68.968 58.130 54.552 71.461 52.951 71.830 C 52.163 72.012 49.826 71.603 47.759 70.920 C 44.063 69.701 42.928 67.780 45.107 66.434 C 45.898 65.945 45.867 65.536 45.000 65.000 C 43.253 63.920 38.857 64.444 36.314 66.034 C 34.186 67.365 34.179 67.437 36.033 68.736 C 37.691 69.897 38.105 69.805 39.210 68.035 C 40.639 65.748 42.500 65.253 41.685 67.378 C 41.394 68.136 41.684 69.352 42.328 70.080 C 43.288 71.165 43.205 71.182 41.867 70.176 C 40.542 69.181 40.122 69.239 39.645 70.484 C 39.321 71.328 38.684 71.902 38.229 71.759 C 37.244 71.451 28.000 81.640 28.000 83.033 C 28.000 85.321 36.458 82.771 37.441 80.187 C 37.794 79.259 38.053 78.871 38.016 79.325 C 37.928 80.423 42.230 79.108 43.500 77.649 C 44.050 77.017 45.400 76.356 46.500 76.181 C 47.600 76.005 49.058 75.138 49.740 74.254 C 50.421 73.370 51.315 72.981 51.725 73.391 C 53.538 75.204 41.086 82.251 31.919 84.599 C 25.368 86.277 21.505 85.637 17.669 82.238 C 15.776 80.559 15.748 80.574 16.848 82.672 C 19.029 86.831 21.004 88.000 25.821 87.985 C 29.407 87.973 30.150 87.720 29.000 86.904 C 27.845 86.083 28.132 85.976 30.250 86.438 C 31.920 86.803 33.000 86.615 33.000 85.960 C 33.000 85.367 33.433 85.150 33.963 85.477 C 34.980 86.106 43.616 82.072 48.250 78.804 C 49.763 77.737 51.000 77.140 51.000 77.478 C 51.000 79.189 73.392 55.019 77.554 48.816 C 85.861 36.434 88.986 25.580 85.903 19.819 C 85.047 18.220 85.092 17.864 86.109 18.203 C 89.778 19.426 94.205 35.000 90.883 35.000 C 90.259 35.000 89.997 35.882 90.290 37.001 C 90.620 38.262 90.419 38.759 89.749 38.345 C 89.067 37.924 88.888 38.462 89.249 39.845 C 89.560 41.032 89.453 41.780 89.012 41.507 C 88.011 40.888 86.794 43.858 87.549 45.079 C 87.854 45.573 87.490 45.741 86.739 45.453 C 85.290 44.897 82.715 47.340 81.683 50.250 C 80.957 52.298 81.826 52.467 84.183 50.736 C 85.552 49.731 85.511 49.990 83.962 52.121 C 82.086 54.704 82.087 54.768 84.029 56.526 C 85.113 57.507 86.052 58.128 86.115 57.905 C 86.276 57.340 86.666 59.150 86.848 61.309 C 86.931 62.304 87.427 62.854 87.950 62.531 C 88.472 62.208 89.388 62.857 89.985 63.972 C 90.582 65.087 90.760 66.000 90.380 66.000 C 90.001 66.000 90.505 66.900 91.500 68.000 C 92.495 69.100 92.903 69.999 92.405 69.999 C 91.907 69.998 91.570 72.427 91.655 75.396 C 91.834 81.619 88.927 87.036 85.500 86.867 C 83.627 86.774 83.620 86.737 85.395 86.283 C 86.918 85.893 87.016 85.624 85.895 84.914 C 84.897 84.282 84.856 84.026 85.750 84.015 C 86.542 84.006 87.000 82.513 87.000 79.941 C 87.000 77.490 86.604 76.127 86.000 76.500 C 85.450 76.840 85.000 76.390 85.000 75.500 C 85.000 74.610 85.445 74.157 85.989 74.493 C 86.555 74.843 86.724 74.443 86.384 73.558 C 86.057 72.707 85.339 72.290 84.788 72.631 C 84.179 73.007 84.031 72.478 84.410 71.282 C 84.799 70.058 84.023 67.504 82.355 64.520 L 79.675 59.725 74.862 65.112 C 72.214 68.076 70.150 70.775 70.274 71.111 C 70.516 71.765 75.077 77.555 78.715 81.826 C 80.342 83.735 80.607 84.630 79.715 85.197 C 79.047 85.622 78.864 85.976 79.309 85.985 C 79.754 85.993 79.835 86.458 79.489 87.018 C 79.107 87.637 77.683 87.146 75.863 85.768 C 74.215 84.521 73.533 83.725 74.348 84.000 C 75.163 84.275 73.706 82.416 71.111 79.870 C 66.565 75.410 66.291 75.291 63.695 76.652 C 62.213 77.428 61.000 78.532 61.000 79.103 C 61.000 80.559 63.631 83.036 64.381 82.286 C 64.721 81.945 65.000 82.218 65.000 82.892 C 65.000 83.566 65.450 83.840 66.000 83.500 C 66.550 83.160 67.000 83.328 67.000 83.874 C 67.000 84.766 69.898 86.211 72.500 86.614 C 73.050 86.699 73.500 86.890 73.500 87.037 C 73.500 87.184 74.162 87.350 74.972 87.405 C 75.781 87.460 76.936 88.494 77.539 89.703 C 78.628 91.886 78.655 91.888 81.718 90.025 C 84.494 88.337 84.769 88.317 84.477 89.825 C 84.299 90.746 84.119 91.890 84.077 92.367 C 84.034 92.843 83.099 92.998 81.999 92.710 C 80.738 92.380 80.241 92.581 80.655 93.251 C 81.442 94.525 71.927 93.453 71.054 92.169 C 70.389 91.191 66.805 89.618 65.750 89.841 C 65.338 89.929 65.000 89.502 65.000 88.893 C 65.000 88.284 64.302 88.054 63.448 88.382 C 62.525 88.736 62.154 88.560 62.532 87.948 C 62.882 87.382 64.030 87.192 65.084 87.527 C 68.283 88.542 67.230 86.229 63.268 83.536 C 59.155 80.741 57.102 80.213 58.935 82.421 C 59.908 83.594 59.711 83.756 57.807 83.345 L 55.500 82.848 57.854 84.919 C 59.149 86.058 60.681 86.697 61.259 86.340 C 61.873 85.960 62.012 86.171 61.594 86.848 C 61.083 87.675 60.324 87.709 58.939 86.968 C 57.873 86.397 57.000 86.256 57.000 86.656 C 57.000 87.055 56.426 86.597 55.724 85.637 C 54.924 84.543 53.804 84.138 52.724 84.553 C 50.364 85.458 50.550 87.000 53.019 87.000 C 54.130 87.000 58.116 88.197 61.878 89.661 L 68.717 92.322 67.964 95.661 C 67.550 97.497 67.501 99.019 67.855 99.042 C 68.210 99.065 66.925 99.946 65.000 101.000 C 58.712 104.442 52.347 103.280 48.146 97.921 C 45.525 94.578 44.318 90.000 46.058 90.000 C 46.760 90.000 47.075 89.742 46.760 89.426 C 46.444 89.111 44.794 89.572 43.093 90.452 C 41.392 91.332 40.000 91.760 40.000 91.403 C 40.000 91.047 39.384 91.267 38.631 91.892 C 36.754 93.449 26.996 93.648 24.306 92.184 C 22.354 91.121 22.155 91.210 22.500 92.999 C 23.057 95.894 23.994 97.122 25.118 96.427 C 25.732 96.047 25.654 95.288 24.907 94.388 C 23.941 93.224 24.026 93.073 25.359 93.584 C 27.414 94.373 27.469 96.366 25.481 98.016 C 24.241 99.045 23.618 98.964 22.086 97.578 C 19.914 95.613 18.734 91.015 20.389 90.968 C 21.000 90.951 20.338 89.912 18.917 88.660 C 16.467 86.501 15.976 85.141 15.972 80.500 C 15.971 79.400 15.455 77.221 14.825 75.658 C 14.060 73.758 14.018 72.597 14.696 72.158 C 15.255 71.796 16.079 69.700 16.528 67.500 C 16.977 65.300 17.400 63.275 17.468 63.000 C 17.535 62.725 18.583 60.605 19.795 58.290 C 21.008 55.974 22.000 53.373 22.000 52.508 C 22.000 51.644 22.672 50.679 23.494 50.364 C 24.316 50.048 24.697 49.318 24.340 48.741 C 23.931 48.080 24.181 47.994 25.015 48.510 C 25.985 49.109 26.164 48.868 25.681 47.612 C 25.319 46.668 25.411 46.136 25.886 46.429 C 26.360 46.722 27.592 45.800 28.624 44.379 C 33.029 38.313 34.259 36.925 34.775 37.441 C 35.075 37.742 34.461 39.003 33.411 40.244 L 31.500 42.500 33.764 40.582 C 36.225 38.498 36.032 36.124 33.151 33.028 C 32.243 32.052 30.514 29.959 29.310 28.377 C 21.010 17.478 19.022 16.792 18.970 24.809 C 18.945 28.597 18.735 29.150 17.881 27.680 C 16.857 25.921 16.777 25.921 15.443 27.680 C 14.684 28.681 13.962 30.175 13.837 31.000 C 13.712 31.825 13.544 31.150 13.462 29.500 C 13.288 25.979 14.954 22.256 17.898 19.593 C 19.054 18.546 20.000 16.935 20.000 16.012 C 20.000 15.089 20.300 14.033 20.667 13.667 C 21.715 12.619 24.000 12.888 24.000 14.059 M 20.548 44.093 C 21.428 45.794 21.922 47.411 21.647 47.686 C 21.185 48.148 18.000 42.790 18.000 41.550 C 18.000 40.178 19.082 41.258 20.548 44.093 M 85.866 26.309 L 85.733 30.500 85.078 25.822 C 84.719 23.249 84.779 21.363 85.212 21.631 C 85.645 21.899 85.940 24.004 85.866 26.309 M 19.642 48.670 C 20.356 50.905 20.193 50.804 18.667 48.067 C 17.659 46.259 17.274 45.051 17.810 45.382 C 18.346 45.714 19.171 47.193 19.642 48.670 M 16.970 42.309 C 16.953 42.964 16.446 42.651 15.843 41.613 C 15.037 40.224 15.045 39.910 15.874 40.422 C 16.493 40.805 16.986 41.654 16.970 42.309 M 33.378 40.378 L 34.256 39.500 33.378 40.378 L 32.500 41.256 33.378 40.378 "/></g>
<g fill="#888C9CFC" stroke="#888C9CFC">
<path d="M 75.000 62.585 C 70.980 66.669 60.151 73.880 55.314 75.694 C 53.657 76.316 53.630 76.207 55.000 74.437 C 56.393 72.639 56.373 72.600 54.726 73.893 C 53.750 74.658 53.191 75.524 53.483 75.816 C 54.049 76.382 46.990 80.398 38.066 84.587 C 31.799 87.528 24.227 88.691 19.759 87.398 L 16.659 86.500 20.505 89.500 C 23.910 92.156 25.123 92.500 31.074 92.496 C 36.999 92.493 38.777 91.993 46.035 88.284 C 52.958 84.747 54.610 84.255 56.386 85.202 C 58.240 86.189 58.342 86.136 57.220 84.775 C 56.131 83.454 56.636 82.610 60.611 79.111 C 63.180 76.850 65.628 75.000 66.052 75.000 C 66.476 75.000 69.563 77.990 72.911 81.645 C 80.557 89.988 80.862 88.646 73.381 79.577 C 70.291 75.830 68.172 72.480 68.674 72.133 C 69.959 71.241 79.062 59.866 79.302 58.852 C 79.411 58.391 77.475 60.071 75.000 62.585 "/></g>
<g fill="#00000004" stroke="#00000004">
<path d="M 94.869 7.269 C 95.491 7.891 96.000 8.015 96.000 7.545 C 96.000 7.075 96.889 7.495 97.976 8.479 C 99.063 9.462 99.710 10.660 99.413 11.141 C 99.116 11.621 99.574 12.283 100.431 12.612 C 101.288 12.941 101.740 13.612 101.435 14.105 C 101.131 14.597 101.385 15.000 102.000 15.000 C 102.615 15.000 102.840 15.450 102.500 16.000 C 102.160 16.550 102.407 17.000 103.048 17.000 C 103.726 17.000 103.946 17.698 103.573 18.670 C 103.221 19.589 103.285 20.601 103.716 20.920 C 104.971 21.848 103.622 87.070 102.284 90.139 C 100.393 94.478 94.783 100.193 90.509 102.135 C 86.996 103.731 83.529 103.961 62.500 103.993 C 48.773 104.015 37.858 104.446 37.000 105.000 C 36.012 105.638 45.269 105.975 64.109 105.985 L 92.718 106.000 97.503 101.789 C 105.984 94.323 105.953 94.497 105.978 54.566 C 105.999 21.599 105.887 19.398 103.991 15.482 C 101.769 10.891 97.828 6.739 95.348 6.375 C 94.151 6.199 94.028 6.428 94.869 7.269 "/></g>
<g fill="#485874FC" stroke="#485874FC">
<path d="M 26.000 15.559 C 26.000 16.483 25.530 16.827 24.845 16.405 C 24.130 15.962 23.962 16.130 24.405 16.845 C 24.827 17.530 24.483 18.000 23.559 18.000 C 22.702 18.000 22.000 17.462 22.000 16.804 C 22.000 16.146 20.416 17.143 18.481 19.019 C 14.981 22.410 12.479 28.626 13.325 31.825 C 13.677 33.156 13.798 33.089 13.916 31.500 C 13.997 30.400 14.724 28.626 15.532 27.559 C 16.339 26.491 17.000 24.595 17.000 23.344 C 17.000 21.252 19.841 18.725 21.709 19.155 C 22.144 19.255 24.075 19.010 26.000 18.611 C 29.918 17.800 44.948 20.905 50.309 23.634 C 60.356 28.749 71.370 40.178 70.559 44.647 C 70.320 45.963 70.534 46.788 71.034 46.479 C 71.534 46.170 73.082 46.663 74.474 47.575 C 76.976 49.214 77.010 49.198 77.631 46.095 C 77.976 44.370 78.650 42.716 79.129 42.420 C 79.608 42.124 80.000 41.373 80.000 40.750 C 80.000 40.127 79.405 40.432 78.677 41.427 C 77.456 43.097 76.778 42.673 69.927 35.962 C 60.623 26.847 59.617 26.000 58.107 26.000 C 57.433 26.000 57.157 25.555 57.493 25.011 C 57.856 24.424 57.407 24.290 56.388 24.681 C 55.273 25.109 54.910 24.954 55.352 24.239 C 55.726 23.634 55.506 22.813 54.862 22.415 C 54.131 21.963 53.959 22.124 54.405 22.845 C 54.797 23.480 54.668 24.000 54.118 24.000 C 53.568 24.000 52.836 23.543 52.491 22.985 C 51.609 21.559 45.621 19.178 38.275 17.333 C 34.839 16.470 32.273 15.367 32.573 14.882 C 32.873 14.397 31.516 14.000 29.559 14.000 C 27.002 14.000 26.000 14.439 26.000 15.559 "/></g>
<g fill="#FCF860FC" stroke="#FCF860FC">
<path d="M 74.000 23.678 C 73.175 23.990 71.056 25.610 69.292 27.278 L 66.084 30.311 71.173 35.906 C 73.972 38.983 76.590 41.629 76.992 41.787 C 78.243 42.279 81.917 32.510 82.216 27.895 C 82.499 23.516 82.487 23.499 79.000 23.305 C 77.075 23.198 74.825 23.366 74.000 23.678 "/></g>
<g fill="#00000004" stroke="#00000004">
<path d="M 1.435 59.159 L 1.500 93.817 4.593 97.659 C 10.530 105.033 12.944 106.013 24.898 105.900 C 35.666 105.799 35.932 104.302 25.218 104.100 C 15.978 103.925 9.083 99.700 4.658 91.500 C 2.617 87.717 2.469 85.788 1.935 56.000 L 1.371 24.500 1.435 59.159 "/></g>
<g fill="#485874FC" stroke="#485874FC">
<path d="M 86.015 20.028 C 87.847 23.451 86.730 31.755 83.530 38.500 C 81.964 41.800 80.754 44.838 80.841 45.250 C 80.929 45.663 80.475 46.000 79.833 46.000 C 79.192 46.000 78.951 46.284 79.298 46.631 C 80.321 47.655 78.003 51.120 76.795 50.373 C 76.109 49.949 75.976 50.151 76.443 50.909 C 76.867 51.594 76.389 53.081 75.348 54.313 C 73.503 56.497 73.503 56.497 75.632 54.701 C 77.063 53.494 78.589 53.110 80.270 53.532 C 82.203 54.017 83.119 53.628 84.284 51.830 C 85.669 49.693 85.657 49.603 84.147 50.736 C 81.836 52.470 80.958 52.297 81.683 50.250 C 82.715 47.340 85.290 44.897 86.739 45.453 C 87.490 45.741 87.854 45.573 87.549 45.079 C 86.794 43.858 88.011 40.888 89.012 41.507 C 89.453 41.780 89.560 41.032 89.249 39.845 C 88.888 38.462 89.067 37.924 89.749 38.345 C 90.410 38.753 90.626 38.286 90.320 37.114 C 90.048 36.076 90.315 34.923 90.913 34.554 C 93.724 32.817 89.791 19.430 86.109 18.203 C 85.061 17.854 85.042 18.211 86.015 20.028 "/></g>
<g fill="#2464DCFC" stroke="#2464DCFC">
<path d="M 27.529 58.148 C 22.123 64.573 19.518 71.913 20.599 77.676 C 21.266 81.230 21.269 81.226 24.260 73.367 C 27.938 63.699 28.405 63.151 30.980 65.482 C 32.659 67.001 33.438 67.122 35.504 66.180 C 39.079 64.551 38.590 61.809 34.077 58.182 L 30.153 55.029 27.529 58.148 "/></g>
<g fill="#485874FC" stroke="#485874FC">
<path d="M 31.122 46.625 C 27.424 50.611 25.025 52.590 25.413 51.334 C 25.808 50.054 25.593 48.866 24.886 48.430 C 24.174 47.989 23.953 48.115 24.340 48.741 C 24.697 49.318 24.204 50.172 23.244 50.639 C 22.285 51.105 22.010 51.395 22.633 51.283 C 23.256 51.170 22.478 53.455 20.905 56.359 C 17.193 63.213 14.881 73.987 16.143 78.556 C 16.657 80.418 18.046 82.619 19.229 83.448 C 21.899 85.318 23.070 84.503 20.458 82.593 C 16.732 79.869 18.717 67.443 24.085 59.887 C 25.106 58.450 25.654 56.988 25.304 56.637 C 24.953 56.287 25.095 56.000 25.618 56.000 C 26.492 56.000 36.577 42.635 37.220 40.625 C 37.374 40.144 34.630 42.844 31.122 46.625 "/></g>
<g fill="#543030FC" stroke="#543030FC">
<path d="M 51.292 89.750 C 50.936 90.713 50.163 91.831 49.573 92.235 C 48.852 92.729 48.910 92.974 49.750 92.985 C 50.438 92.993 51.000 93.675 51.000 94.500 C 51.000 95.325 51.469 96.000 52.042 96.000 C 52.615 96.000 54.046 96.896 55.222 97.992 C 57.185 99.821 57.504 99.854 59.117 98.394 C 60.083 97.520 61.349 97.098 61.929 97.456 C 63.659 98.525 65.616 96.677 65.588 94.000 C 65.568 92.073 64.671 91.099 61.672 89.750 C 59.532 88.788 56.467 88.000 54.859 88.000 C 52.989 88.000 51.705 88.630 51.292 89.750 "/></g>
<g fill="#888C9CFC" stroke="#888C9CFC">
<path d="M 83.802 66.743 C 85.848 71.108 86.543 74.231 86.676 79.660 C 86.835 86.111 87.001 86.656 88.356 85.159 C 92.150 80.967 92.839 75.189 90.490 67.278 C 89.254 63.116 88.637 62.282 87.092 62.686 C 86.054 62.958 84.282 62.686 83.154 62.083 C 81.241 61.059 81.284 61.370 83.802 66.743 "/></g>
<g fill="#888C9CFC" stroke="#888C9CFC">
<path d="M 37.000 20.857 C 37.000 21.454 37.745 21.651 38.664 21.299 C 39.717 20.895 40.084 21.056 39.663 21.737 C 39.254 22.398 39.674 22.639 40.749 22.362 C 43.778 21.582 59.675 32.099 58.454 34.075 C 57.858 35.038 69.895 44.439 70.697 43.637 C 72.765 41.568 59.029 28.106 50.789 24.126 C 43.788 20.744 37.000 19.135 37.000 20.857 "/></g>
<g fill="#2C2C2CFC" stroke="#2C2C2CFC">
<path d="M 29.000 19.667 C 29.000 20.007 31.113 22.808 33.695 25.892 C 36.277 28.976 38.516 31.677 38.670 31.893 C 38.825 32.108 39.638 31.716 40.476 31.020 C 41.314 30.324 42.014 30.148 42.032 30.628 C 42.049 31.107 42.726 30.624 43.536 29.554 C 44.569 28.187 45.322 27.922 46.064 28.664 C 46.806 29.406 46.209 30.488 44.057 32.299 C 42.371 33.717 41.353 35.100 41.794 35.373 C 42.935 36.078 45.491 34.315 45.545 32.786 C 45.570 32.079 46.158 31.621 46.850 31.768 C 47.543 31.916 49.085 31.353 50.277 30.518 C 52.445 29.000 52.314 28.889 48.000 28.592 C 47.103 28.531 46.489 27.487 46.474 25.995 C 46.457 24.401 46.166 23.949 45.669 24.743 C 45.072 25.696 43.972 25.516 40.946 23.972 C 38.776 22.865 37.000 21.533 37.000 21.011 C 37.000 20.490 36.403 20.292 35.672 20.572 C 34.942 20.852 33.142 20.624 31.672 20.066 C 30.203 19.507 29.000 19.327 29.000 19.667 "/></g>
<g fill="#8C84FCFC" stroke="#8C84FCFC">
<path d="M 28.291 71.250 C 25.117 74.722 22.831 79.892 23.516 82.050 C 24.136 84.004 28.000 84.851 28.000 83.033 C 28.000 82.502 30.025 79.787 32.500 77.000 C 34.975 74.213 37.000 71.273 37.000 70.467 C 37.000 68.042 30.707 68.608 28.291 71.250 "/></g>
<g fill="#2C2C2CFC" stroke="#2C2C2CFC">
<path d="M 27.203 23.185 C 29.016 25.487 31.175 28.097 32.000 28.986 C 32.825 29.874 34.610 32.081 35.968 33.889 C 38.761 37.612 42.095 41.531 45.045 44.558 C 47.309 46.883 46.539 48.649 44.092 46.741 C 42.696 45.653 42.663 45.708 43.823 47.191 C 44.551 48.120 45.743 48.652 46.472 48.372 C 47.201 48.093 48.148 48.430 48.576 49.123 C 49.023 49.846 48.836 50.555 48.135 50.788 C 47.204 51.099 47.191 51.525 48.081 52.597 C 49.350 54.126 51.463 54.558 50.565 53.105 C 49.780 51.835 52.413 51.019 54.043 52.027 C 57.175 53.962 56.687 51.664 53.342 48.727 C 49.810 45.626 49.739 45.609 50.411 48.024 C 51.077 50.421 51.020 50.406 48.609 47.558 C 46.084 44.576 46.037 41.956 48.545 44.038 C 49.326 44.685 50.429 44.813 51.117 44.336 C 52.035 43.699 52.020 43.568 51.055 43.785 C 50.359 43.942 49.101 43.499 48.259 42.800 C 47.418 42.102 46.227 41.523 45.614 41.515 C 45.002 41.507 44.388 41.050 44.250 40.500 C 44.113 39.950 43.619 39.500 43.153 39.500 C 42.267 39.500 31.663 26.494 28.682 21.750 C 27.732 20.238 26.268 19.000 25.430 19.000 C 24.347 19.000 24.860 20.211 27.203 23.185 "/></g>
<g fill="#FC6054FC" stroke="#FC6054FC">
<path d="M 50.596 63.440 C 45.218 67.641 44.336 68.958 46.122 70.121 C 50.114 72.719 51.974 72.267 57.465 67.361 C 60.457 64.688 62.164 63.025 61.256 63.668 C 59.955 64.589 59.158 64.483 57.486 63.168 C 56.320 62.250 55.284 61.163 55.183 60.750 C 55.082 60.338 53.018 61.548 50.596 63.440 "/></g>
<g fill="#2C2C2CFC" stroke="#2C2C2CFC">
<path d="M 78.030 53.750 C 78.014 54.438 77.663 54.890 77.250 54.756 C 76.838 54.621 71.778 59.234 66.008 65.006 C 60.237 70.778 56.300 74.882 57.258 74.128 C 58.216 73.373 59.000 73.104 59.000 73.531 C 59.000 73.957 59.862 73.312 60.916 72.097 C 61.969 70.882 63.758 69.819 64.890 69.733 C 66.022 69.648 67.181 68.970 67.467 68.226 C 67.752 67.482 68.407 67.133 68.921 67.451 C 69.435 67.769 70.113 67.220 70.427 66.231 C 70.741 65.242 72.358 63.629 74.022 62.646 C 78.291 60.124 80.443 56.595 79.110 54.304 C 78.533 53.312 78.047 53.063 78.030 53.750 "/></g>
<g fill="#485874FC" stroke="#485874FC">
<path d="M 44.002 46.502 C 46.039 48.671 46.041 48.727 44.151 51.062 C 42.593 52.986 42.440 53.871 43.329 55.822 C 44.222 57.784 44.099 58.454 42.651 59.514 C 40.279 61.247 42.159 62.270 45.431 61.026 C 48.628 59.811 54.000 55.915 54.000 54.812 C 54.000 54.365 52.965 54.000 51.700 54.000 C 49.425 54.000 47.000 52.349 47.000 50.800 C 47.000 50.360 47.539 50.113 48.198 50.250 C 48.856 50.388 48.429 49.632 47.249 48.572 C 44.482 46.086 45.507 44.297 48.349 46.652 C 50.454 48.396 50.463 48.392 48.752 46.505 C 47.791 45.444 45.865 44.515 44.472 44.441 L 41.938 44.306 44.002 46.502 "/></g>
<g fill="#303030FC" stroke="#303030FC">
<path d="M 46.190 89.560 C 44.657 91.297 45.397 94.372 48.222 98.000 C 52.328 103.275 58.748 104.423 65.000 101.000 C 66.925 99.946 68.210 99.065 67.855 99.042 C 67.501 99.019 67.566 97.425 68.000 95.500 C 68.666 92.546 68.520 92.000 67.062 92.000 C 65.915 92.000 65.387 92.718 65.492 94.138 C 65.578 95.313 64.664 97.338 63.460 98.638 C 60.354 101.989 55.179 101.825 51.243 98.250 C 47.663 94.998 46.995 93.289 48.119 90.250 C 49.064 87.693 48.132 87.360 46.190 89.560 "/></g>
<g fill="#888C9CFC" stroke="#888C9CFC">
<path d="M 23.000 19.433 C 23.000 19.891 25.925 23.846 29.500 28.222 C 33.075 32.599 36.000 36.840 36.000 37.649 C 36.000 38.457 35.571 38.853 35.047 38.529 C 33.979 37.869 25.758 47.774 26.221 49.163 C 26.384 49.652 28.962 47.576 31.951 44.550 L 37.385 39.047 41.497 42.774 C 44.092 45.124 41.775 41.701 35.223 33.500 C 23.585 18.935 23.000 18.262 23.000 19.433 M 33.378 40.378 L 34.256 39.500 33.378 40.378 L 32.500 41.256 33.378 40.378 "/></g>
<g fill="#485874FC" stroke="#485874FC">
<path d="M 54.370 42.443 C 49.811 44.423 49.614 45.496 53.247 48.570 C 55.036 50.084 56.381 51.719 56.236 52.204 C 56.090 52.689 56.890 52.594 58.014 51.993 C 59.137 51.392 59.792 50.472 59.469 49.950 C 59.146 49.427 59.288 49.000 59.784 49.000 C 60.991 49.000 59.766 41.744 58.496 41.374 C 57.948 41.214 56.092 41.695 54.370 42.443 "/></g>
<g fill="#60FC6CFC" stroke="#60FC6CFC">
<path d="M 50.150 36.757 C 45.834 40.478 45.815 40.523 47.809 42.327 C 49.678 44.019 50.032 44.035 52.895 42.555 C 55.999 40.949 57.705 37.280 56.639 34.502 C 55.798 32.310 54.974 32.596 50.150 36.757 "/></g>
<g fill="#34344CFC" stroke="#34344CFC">
<path d="M 49.566 88.328 C 44.519 92.018 50.551 101.000 58.076 101.000 C 62.118 101.000 63.937 99.537 62.136 97.736 C 61.351 96.951 60.533 97.112 59.204 98.316 C 57.476 99.879 57.225 99.858 55.222 97.992 C 54.046 96.896 52.615 96.000 52.042 96.000 C 51.469 96.000 51.000 95.325 51.000 94.500 C 51.000 93.675 50.438 92.993 49.750 92.985 C 48.910 92.974 48.852 92.729 49.573 92.235 C 50.163 91.831 50.923 90.747 51.262 89.828 C 51.601 88.908 52.918 87.957 54.189 87.714 C 56.390 87.293 56.378 87.266 53.941 87.136 C 52.534 87.061 50.565 87.598 49.566 88.328 "/></g>
<g fill="#FCA05CFC" stroke="#FCA05CFC">
<path d="M 66.822 51.955 C 64.841 53.017 63.027 53.694 62.791 53.458 C 62.556 53.223 60.819 54.701 58.932 56.744 C 57.044 58.786 56.431 59.683 57.570 58.737 C 59.377 57.234 59.885 57.195 61.570 58.427 C 62.631 59.204 63.500 60.391 63.500 61.067 C 63.500 61.742 65.391 59.867 67.703 56.900 C 70.015 53.934 71.573 51.173 71.165 50.765 C 70.758 50.358 68.803 50.893 66.822 51.955 "/></g>
<g fill="#485874FC" stroke="#485874FC">
<path d="M 59.766 79.717 C 59.346 80.312 60.734 81.882 63.016 83.392 C 67.175 86.144 68.392 88.576 65.084 87.527 C 64.030 87.192 62.882 87.382 62.532 87.948 C 62.154 88.560 62.525 88.736 63.448 88.382 C 64.350 88.035 65.000 88.319 65.000 89.060 C 65.000 89.760 65.296 90.037 65.658 89.675 C 66.020 89.313 66.807 89.402 67.408 89.872 C 68.985 91.106 76.789 92.150 77.374 91.204 C 77.997 90.196 76.823 88.500 75.500 88.500 C 73.507 88.500 60.076 80.762 60.285 79.734 C 60.432 79.011 60.269 79.006 59.766 79.717 "/></g>
<g fill="#485874FC" stroke="#485874FC">
<path d="M 29.136 22.250 C 33.634 28.681 42.244 39.000 43.113 39.000 C 43.601 39.000 43.887 39.563 43.750 40.250 C 43.613 40.938 44.063 41.455 44.750 41.400 C 45.503 41.340 45.537 41.240 44.833 41.150 C 44.192 41.068 43.953 40.713 44.304 40.363 C 44.654 40.012 43.976 38.371 42.797 36.716 L 40.654 33.705 44.312 30.353 C 46.324 28.509 47.597 27.000 47.140 27.000 C 46.684 27.000 45.493 27.903 44.494 29.006 C 43.496 30.110 42.455 30.788 42.181 30.515 C 41.908 30.241 41.083 30.516 40.348 31.126 C 38.917 32.314 38.264 31.719 31.755 23.281 C 27.940 18.335 25.814 17.499 29.136 22.250 "/></g>
<g fill="#64DCFCFC" stroke="#64DCFCFC">
<path d="M 36.381 51.528 C 33.388 54.521 33.681 56.384 37.211 56.805 C 39.208 57.044 40.232 56.360 41.884 53.687 C 43.048 51.804 44.000 49.980 44.000 49.632 C 44.000 47.953 38.615 49.294 36.381 51.528 "/></g>
<g fill="#34DC3CFC" stroke="#34DC3CFC">
<path d="M 47.369 33.301 C 44.492 35.937 43.913 37.022 44.664 38.363 C 45.519 39.891 46.113 39.694 50.310 36.490 C 52.889 34.520 55.000 32.720 55.000 32.489 C 55.000 32.259 54.107 31.592 53.015 31.008 C 51.364 30.125 50.414 30.511 47.369 33.301 "/></g>
<g fill="#FCF860FC" stroke="#FCF860FC">
<path d="M 61.000 40.378 C 61.000 41.135 61.675 42.315 62.500 43.000 C 64.480 44.644 64.407 48.947 62.346 52.027 C 61.331 53.544 62.317 52.953 64.894 50.500 C 67.205 48.300 69.197 46.500 69.320 46.500 C 69.443 46.500 68.019 44.813 66.155 42.750 C 62.597 38.812 61.000 38.077 61.000 40.378 "/></g>
<g fill="#00000004" stroke="#00000004">
<path d="M 52.500 2.024 L 39.500 2.639 54.500 2.698 C 62.750 2.730 71.525 2.417 74.000 2.003 C 78.232 1.295 78.113 1.255 72.000 1.329 C 68.425 1.373 59.650 1.685 52.500 2.024 "/></g>
<g fill="#6C90FCFC" stroke="#6C90FCFC">
<path d="M 26.260 69.258 C 23.156 77.002 22.460 80.365 24.864 75.999 C 27.324 71.533 29.846 69.291 33.000 68.767 C 35.332 68.380 35.365 68.296 33.500 67.524 C 32.400 67.069 30.794 66.093 29.931 65.356 C 28.556 64.183 28.101 64.666 26.260 69.258 "/></g>
<g fill="#00000004" stroke="#00000004">
<path d="M 6.704 8.852 C 5.342 10.308 3.502 12.940 2.614 14.700 C 0.762 18.373 0.414 23.480 2.087 22.446 C 2.685 22.077 2.952 20.925 2.681 19.887 C 2.409 18.849 2.643 18.000 3.201 18.000 C 3.758 18.000 3.955 17.325 3.638 16.500 C 3.322 15.675 3.499 15.000 4.031 15.000 C 4.564 15.000 4.887 14.639 4.750 14.198 C 4.613 13.757 6.226 11.877 8.336 10.019 C 10.874 7.784 11.665 6.568 10.675 6.423 C 9.853 6.302 8.065 7.395 6.704 8.852 "/></g>
<g fill="#888C9CFC" stroke="#888C9CFC">
<path d="M 40.500 79.786 C 36.305 81.903 31.095 83.632 27.500 84.101 L 21.500 84.883 28.013 84.576 C 32.913 84.344 36.071 83.488 40.768 81.117 C 44.202 79.384 47.121 77.580 47.256 77.109 C 47.390 76.638 44.350 77.843 40.500 79.786 "/></g>
<g fill="#888C9CFC" stroke="#888C9CFC">
<path d="M 75.066 52.763 C 72.627 55.918 67.677 61.687 64.066 65.581 C 60.455 69.476 61.775 68.342 67.000 63.060 C 72.225 57.779 77.175 52.011 78.000 50.242 C 79.035 48.022 78.127 48.802 75.066 52.763 "/></g>
<g fill="#485874FC" stroke="#485874FC">
<path d="M 68.000 72.878 C 68.000 73.360 68.675 74.315 69.500 75.000 C 70.325 75.685 71.000 75.904 71.000 75.488 C 71.000 75.071 71.920 75.900 73.045 77.330 C 74.169 78.760 75.069 80.170 75.045 80.465 C 75.020 80.759 75.225 81.000 75.500 81.000 C 75.775 81.000 77.013 81.912 78.250 83.026 C 79.488 84.140 78.296 82.115 75.602 78.526 C 71.262 72.743 68.000 70.319 68.000 72.878 "/></g>
<g fill="#303030FC" stroke="#303030FC">
<path d="M 19.735 93.392 C 20.313 96.419 23.452 99.457 25.007 98.496 C 25.630 98.110 26.489 96.853 26.915 95.701 C 27.517 94.073 27.282 93.576 25.862 93.471 C 24.514 93.372 24.305 93.662 25.066 94.579 C 25.748 95.401 25.759 96.031 25.099 96.439 C 24.179 97.007 21.378 93.140 21.884 92.000 C 22.006 91.725 21.465 91.366 20.682 91.202 C 19.660 90.987 19.393 91.605 19.735 93.392 "/></g>
<g fill="#2C2C2CFC" stroke="#2C2C2CFC">
<path d="M 56.783 59.645 C 55.256 61.173 55.294 61.418 57.319 63.065 C 59.266 64.649 59.679 64.678 61.169 63.338 C 62.722 61.941 62.705 61.705 60.919 59.919 C 58.604 57.604 58.811 57.618 56.783 59.645 "/></g>
<g fill="#2C2C2CFC" stroke="#2C2C2CFC">
<path d="M 23.354 61.170 C 20.163 64.875 16.993 77.259 18.929 78.456 C 19.631 78.890 20.000 77.537 20.000 74.533 C 20.000 71.942 20.979 67.750 22.250 64.894 C 23.488 62.115 23.984 60.439 23.354 61.170 "/></g>
<g fill="#2C2C2CFC" stroke="#2C2C2CFC">
<path d="M 31.224 45.274 C 27.801 48.728 25.000 51.969 25.000 52.477 C 25.000 52.984 27.304 50.814 30.121 47.654 C 32.937 44.494 35.525 42.191 35.871 42.538 C 36.217 42.884 36.556 42.679 36.625 42.083 C 36.694 41.488 36.806 40.697 36.875 40.326 C 36.944 39.955 38.238 40.730 39.750 42.047 L 42.500 44.444 39.974 41.719 L 37.448 38.994 31.224 45.274 "/></g>
<g fill="#485874FC" stroke="#485874FC">
<path d="M 80.000 56.500 C 79.215 57.446 79.148 58.000 79.819 58.000 C 80.403 58.000 81.181 57.517 81.545 56.927 C 81.957 56.260 82.788 56.681 83.737 58.035 C 84.906 59.704 84.979 60.395 84.049 60.970 C 83.162 61.518 83.283 61.895 84.498 62.361 C 86.963 63.307 87.011 63.255 86.655 60.003 C 86.475 58.355 86.093 57.241 85.806 57.527 C 85.519 57.814 84.716 57.362 84.020 56.524 C 82.432 54.611 81.572 54.606 80.000 56.500 "/></g>
<g fill="#2C2C2CFC" stroke="#2C2C2CFC">
<path d="M 34.578 47.117 C 33.078 48.297 31.422 50.391 30.897 51.770 C 30.373 53.149 29.647 53.980 29.284 53.617 C 28.921 53.254 28.523 53.643 28.400 54.482 C 28.218 55.723 28.619 55.658 30.554 54.136 C 31.862 53.107 32.703 52.037 32.424 51.757 C 32.144 51.478 33.341 50.049 35.083 48.583 C 38.900 45.372 38.452 44.070 34.578 47.117 "/></g>
<g fill="#888C9CFC" stroke="#888C9CFC">
<path d="M 50.636 57.840 C 50.160 58.576 47.910 60.048 45.636 61.110 L 41.500 63.042 45.000 62.498 C 46.925 62.199 48.651 61.512 48.835 60.971 C 49.020 60.430 49.582 60.242 50.085 60.553 C 50.954 61.090 51.170 60.630 51.400 57.750 C 51.473 56.835 51.268 56.859 50.636 57.840 "/></g>
<g fill="#888C9CFC" stroke="#888C9CFC">
<path d="M 57.678 52.261 C 56.675 52.767 54.650 52.903 53.178 52.565 L 50.500 51.949 52.735 53.724 C 54.038 54.760 54.663 55.998 54.235 56.694 C 53.831 57.351 54.850 56.416 56.500 54.615 C 58.298 52.653 58.770 51.710 57.678 52.261 "/></g>
<g fill="#2C2C2CFC" stroke="#2C2C2CFC">
<path d="M 53.645 55.848 C 50.737 59.077 51.553 60.132 54.854 57.412 C 57.179 55.495 57.736 54.579 56.670 54.422 C 55.824 54.298 54.463 54.940 53.645 55.848 "/></g>
<g fill="#2C2C2CFC" stroke="#2C2C2CFC">
<path d="M 41.342 55.821 C 39.842 58.227 41.317 61.083 43.126 59.274 C 43.940 58.460 44.035 57.396 43.417 56.014 C 42.534 54.040 42.457 54.033 41.342 55.821 "/></g>
<g fill="#888C9CFC" stroke="#888C9CFC">
<path d="M 47.487 28.318 C 47.108 28.768 46.069 28.857 45.179 28.515 C 44.289 28.174 43.889 28.222 44.290 28.623 C 44.690 29.024 44.036 30.398 42.835 31.676 C 41.634 32.954 41.117 34.000 41.685 34.000 C 42.254 34.000 43.947 32.538 45.448 30.750 C 46.948 28.963 47.866 27.868 47.487 28.318 "/></g>
<g fill="#888C9CFC" stroke="#888C9CFC">
<path d="M 30.500 19.393 C 33.250 20.179 35.688 20.638 35.917 20.412 C 36.785 19.554 35.182 18.992 30.421 18.485 L 25.500 17.962 30.500 19.393 "/></g>
<g fill="#6C90FCFC" stroke="#6C90FCFC">
<path d="M 37.345 59.829 C 38.255 60.835 39.007 62.297 39.015 63.079 C 39.028 64.289 39.166 64.286 39.946 63.054 C 41.127 61.186 39.466 58.000 37.310 58.000 C 35.830 58.000 35.833 58.158 37.345 59.829 "/></g>
<g fill="#64FCD0FC" stroke="#64FCD0FC">
<path d="M 39.667 46.667 C 38.448 47.886 38.978 48.946 40.513 48.357 C 41.345 48.037 42.695 48.332 43.513 49.011 C 45.282 50.479 45.528 48.928 43.800 47.200 C 42.472 45.872 40.691 45.642 39.667 46.667 "/></g>
<g fill="#2C2C2CFC" stroke="#2C2C2CFC">
<path d="M 22.063 80.250 C 22.029 81.213 21.523 82.000 20.941 82.000 C 20.359 82.000 20.160 81.550 20.500 81.000 C 20.840 80.450 20.641 80.000 20.059 80.000 C 18.126 80.000 18.964 82.051 21.250 82.916 C 24.098 83.993 24.255 83.820 23.085 80.895 C 22.390 79.157 22.109 78.980 22.063 80.250 "/></g>
<g fill="#888C9CFC" stroke="#888C9CFC">
<path d="M 58.000 19.500 C 55.525 20.825 54.017 21.930 54.648 21.955 C 55.279 21.980 57.754 20.880 60.148 19.512 C 65.722 16.325 63.947 16.315 58.000 19.500 "/></g>
<g fill="#C8FC64FC" stroke="#C8FC64FC">
<path d="M 66.750 26.115 C 65.238 27.244 64.000 28.626 64.000 29.187 C 64.000 29.748 65.591 28.811 67.535 27.104 C 71.500 23.622 70.976 22.962 66.750 26.115 "/></g>
<g fill="#34344CFC" stroke="#34344CFC">
<path d="M 32.417 15.134 C 32.123 15.610 32.246 16.006 32.691 16.014 C 33.136 16.021 34.513 16.299 35.750 16.630 C 36.988 16.962 38.000 16.783 38.000 16.233 C 38.000 14.949 33.125 13.989 32.417 15.134 "/></g>
<g fill="#2C2C2CFC" stroke="#2C2C2CFC">
<path d="M 80.591 57.853 C 80.301 58.322 80.726 59.559 81.534 60.603 C 82.976 62.463 82.992 62.462 82.333 60.586 C 81.871 59.272 82.023 58.896 82.819 59.388 C 83.575 59.856 83.771 59.566 83.382 58.552 C 82.728 56.849 81.415 56.520 80.591 57.853 "/></g>
<g fill="#00000004" stroke="#00000004">
<path d="M 85.078 25.822 L 85.733 30.500 85.866 26.309 C 85.940 24.004 85.645 21.899 85.212 21.631 C 84.779 21.363 84.719 23.249 85.078 25.822 "/></g>
<g fill="#64C8FCFC" stroke="#64C8FCFC">
<path d="M 33.781 56.139 C 35.390 58.200 39.745 59.106 40.359 57.508 C 40.663 56.715 40.004 56.468 38.403 56.774 C 37.075 57.028 35.204 56.620 34.244 55.868 C 32.690 54.649 32.640 54.679 33.781 56.139 "/></g>
<g fill="#FC6054FC" stroke="#FC6054FC">
<path d="M 59.959 58.924 C 60.570 60.066 61.756 61.000 62.594 61.000 C 64.482 61.000 63.568 59.374 60.869 57.930 C 59.032 56.947 58.950 57.037 59.959 58.924 "/></g>
<g fill="#888C9CFC" stroke="#888C9CFC">
<path d="M 62.500 63.449 L 58.500 67.559 62.500 63.449 L 66.500 59.338 62.500 63.449 "/></g>
<g fill="#485874FC" stroke="#485874FC">
<path d="M 82.608 89.545 C 81.613 90.272 81.096 91.347 81.459 91.933 C 82.516 93.643 83.999 93.162 83.299 91.336 C 82.893 90.279 83.055 89.916 83.742 90.341 C 84.342 90.711 84.733 90.388 84.620 89.616 C 84.449 88.453 84.118 88.441 82.608 89.545 "/></g>
<g fill="#485874FC" stroke="#485874FC">
<path d="M 55.495 73.861 C 53.915 76.375 53.857 76.712 55.214 75.482 C 56.157 74.628 57.170 73.945 57.464 73.964 C 57.759 73.984 58.000 73.775 58.000 73.500 C 58.000 73.225 57.931 73.113 57.848 73.250 C 57.764 73.388 57.649 72.867 57.593 72.093 C 57.537 71.319 56.593 72.114 55.495 73.861 "/></g>
<g fill="#2C2C2CFC" stroke="#2C2C2CFC">
<path d="M 70.000 35.000 L 74.000 39.000 70.000 35.000 L 66.000 31.000 70.000 35.000 "/></g>
<g fill="#2C2C2CFC" stroke="#2C2C2CFC">
<path d="M 69.000 26.675 L 66.500 29.080 69.000 26.675 L 71.500 24.269 69.000 26.675 "/></g>
<g fill="#00000004" stroke="#00000004">
<path d="M 76.500 93.000 C 76.148 93.569 77.009 94.000 78.500 94.000 C 79.991 94.000 80.852 93.569 80.500 93.000 C 80.160 92.450 79.260 92.000 78.500 92.000 C 77.740 92.000 76.840 92.450 76.500 93.000 "/></g>
<g fill="#888C9CFC" stroke="#888C9CFC">
<path d="M 17.667 20.667 C 17.300 21.033 17.046 22.721 17.102 24.417 L 17.205 27.500 18.026 24.007 C 18.881 20.367 18.792 19.541 17.667 20.667 "/></g>
<g fill="#543030FC" stroke="#543030FC">
<path d="M 71.000 75.583 C 71.000 75.942 72.350 77.774 74.000 79.653 C 75.650 81.532 77.000 82.776 77.000 82.417 C 77.000 82.058 75.650 80.226 74.000 78.347 C 72.350 76.468 71.000 75.224 71.000 75.583 "/></g>
<g fill="#2C2C2CFC" stroke="#2C2C2CFC">
<path d="M 62.029 24.961 C 61.220 25.473 60.893 26.226 61.303 26.636 C 61.712 27.046 62.808 26.620 63.738 25.690 C 65.545 23.883 64.464 23.421 62.029 24.961 "/></g>
<g fill="#78FC6CFC" stroke="#78FC6CFC">
<path d="M 56.888 38.750 C 56.672 41.078 56.765 41.193 57.494 39.500 C 57.967 38.400 58.837 37.169 59.427 36.765 C 60.082 36.317 59.846 36.025 58.822 36.015 C 57.714 36.005 57.056 36.936 56.888 38.750 "/></g>
<g fill="#8C84FCFC" stroke="#8C84FCFC">
<path d="M 40.000 63.500 C 40.000 64.417 40.484 65.005 41.075 64.808 C 41.666 64.611 42.150 64.023 42.150 63.500 C 42.150 62.978 41.666 62.389 41.075 62.192 C 40.484 61.995 40.000 62.583 40.000 63.500 "/></g>
<g fill="#485874FC" stroke="#485874FC">
<path d="M 48.980 75.585 L 46.500 78.288 49.287 76.505 C 50.820 75.524 51.936 74.307 51.767 73.801 C 51.598 73.295 50.344 74.098 48.980 75.585 "/></g>
<g fill="#34DC3CFC" stroke="#34DC3CFC">
<path d="M 60.599 24.366 C 59.516 25.123 59.125 25.959 59.691 26.309 C 60.237 26.647 61.093 26.049 61.592 24.980 C 62.411 23.227 62.315 23.167 60.599 24.366 "/></g>
<g fill="#C8FC64FC" stroke="#C8FC64FC">
<path d="M 58.850 38.000 C 58.405 40.967 58.640 41.279 59.792 39.250 C 60.585 37.855 60.677 37.000 60.035 37.000 C 59.466 37.000 58.933 37.450 58.850 38.000 "/></g>
<g fill="#2C2C2CFC" stroke="#2C2C2CFC">
<path d="M 54.379 30.379 C 54.512 31.282 55.246 32.578 56.012 33.260 C 57.192 34.312 57.202 34.234 56.079 32.750 C 55.351 31.788 55.125 31.000 55.578 31.000 C 56.030 31.000 55.891 30.491 55.269 29.869 C 54.428 29.028 54.200 29.159 54.379 30.379 "/></g>
<g fill="#00000004" stroke="#00000004">
<path d="M 15.976 82.764 C 16.586 84.010 17.479 85.135 17.960 85.264 C 18.440 85.394 17.941 84.375 16.850 83.000 C 15.059 80.744 14.974 80.721 15.976 82.764 "/></g>
<g fill="#FCF460FC" stroke="#FCF460FC">
<path d="M 66.500 49.410 L 64.500 51.567 66.500 49.410 L 68.500 47.253 66.500 49.410 "/></g>
<g fill="#485874FC" stroke="#485874FC">
<path d="M 64.500 66.410 L 62.500 68.567 64.500 66.410 L 66.500 64.253 64.500 66.410 "/></g>
<g fill="#2C2C2CFC" stroke="#2C2C2CFC">
<path d="M 67.000 49.888 L 65.500 51.563 67.000 49.888 L 68.500 48.212 67.000 49.888 "/></g>
<g fill="#FCE060FC" stroke="#FCE060FC">
<path d="M 68.952 50.069 C 67.870 50.767 68.116 50.919 69.918 50.666 C 71.248 50.479 71.901 50.057 71.370 49.729 C 70.839 49.401 69.751 49.554 68.952 50.069 "/></g>
<g fill="#888C9CFC" stroke="#888C9CFC">
<path d="M 20.750 13.628 C 20.338 14.016 20.042 15.046 20.093 15.917 C 20.146 16.802 20.476 16.492 20.843 15.212 C 21.205 13.953 21.163 13.241 20.750 13.628 "/></g>
<g fill="#485874FC" stroke="#485874FC">
<path d="M 63.828 70.649 L 62.500 71.798 63.828 70.649 L 65.156 69.500 63.828 70.649 "/></g>
<g fill="#485874FC" stroke="#485874FC">
<path d="M 78.645 59.688 C 78.267 60.067 78.642 60.477 79.478 60.600 C 80.315 60.723 81.000 60.413 81.000 59.912 C 81.000 58.837 79.626 58.707 78.645 59.688 "/></g>
<g fill="#485874FC" stroke="#485874FC">
<path d="M 21.645 13.688 C 21.267 14.067 21.642 14.477 22.478 14.600 C 23.315 14.723 24.000 14.413 24.000 13.912 C 24.000 12.837 22.626 12.707 21.645 13.688 "/></g>
<g fill="#34344CFC" stroke="#34344CFC">
<path d="M 83.000 60.017 C 81.735 60.820 81.788 60.972 83.333 60.985 C 84.342 60.993 85.017 60.564 84.833 60.032 C 84.621 59.416 83.955 59.410 83.000 60.017 "/></g>
<g fill="#34344CFC" stroke="#34344CFC">
<path d="M 47.872 49.702 C 46.580 51.305 46.644 51.305 48.973 49.702 C 50.332 48.766 50.950 48.000 50.345 48.000 C 49.740 48.000 48.627 48.766 47.872 49.702 "/></g>
<g fill="#E0FC64FC" stroke="#E0FC64FC">
<path d="M 65.750 28.666 C 65.338 29.033 65.030 29.821 65.066 30.417 C 65.102 31.013 65.439 30.712 65.816 29.750 C 66.192 28.787 66.163 28.300 65.750 28.666 "/></g>
<g fill="#888C9CFC" stroke="#888C9CFC">
<path d="M 20.800 47.200 C 21.733 48.133 22.000 48.133 22.000 47.200 C 22.000 46.540 21.460 46.000 20.800 46.000 C 19.867 46.000 19.867 46.267 20.800 47.200 "/></g>
<g fill="#888C9CFC" stroke="#888C9CFC">
<path d="M 23.000 16.800 C 23.000 17.460 23.540 18.000 24.200 18.000 C 25.133 18.000 25.133 17.733 24.200 16.800 C 23.267 15.867 23.000 15.867 23.000 16.800 "/></g>
<g fill="#485874FC" stroke="#485874FC">
<path d="M 71.378 65.378 L 70.500 66.256 71.378 65.378 L 72.256 64.500 71.378 65.378 "/></g>
<g fill="#485874FC" stroke="#485874FC">
<path d="M 68.378 60.378 L 67.500 61.256 68.378 60.378 L 69.256 59.500 68.378 60.378 "/></g>
<g fill="#485874FC" stroke="#485874FC">
<path d="M 68.378 57.378 L 67.500 58.256 68.378 57.378 L 69.256 56.500 68.378 57.378 "/></g>
<g fill="#485874FC" stroke="#485874FC">
<path d="M 34.378 37.378 L 33.500 38.256 34.378 37.378 L 35.256 36.500 34.378 37.378 "/></g>
<g fill="#303030FC" stroke="#303030FC">
<path d="M 80.387 92.157 C 81.776 92.963 82.090 92.955 81.578 92.126 C 81.195 91.507 80.346 91.014 79.691 91.030 C 79.036 91.047 79.349 91.554 80.387 92.157 "/></g>
<g fill="#34344CFC" stroke="#34344CFC">
<path d="M 74.624 87.799 C 74.212 88.466 74.390 89.000 75.024 89.000 C 75.653 89.000 75.987 88.460 75.766 87.799 C 75.455 86.865 75.202 86.865 74.624 87.799 "/></g>
<g fill="#34344CFC" stroke="#34344CFC">
<path d="M 79.422 53.874 C 79.805 54.493 80.654 54.986 81.309 54.970 C 81.964 54.953 81.651 54.446 80.613 53.843 C 79.224 53.037 78.910 53.045 79.422 53.874 "/></g>
<g fill="#34344CFC" stroke="#34344CFC">
<path d="M 52.800 23.200 C 53.733 24.133 54.000 24.133 54.000 23.200 C 54.000 22.540 53.460 22.000 52.800 22.000 C 51.867 22.000 51.867 22.267 52.800 23.200 "/></g>
<g fill="#34344CFC" stroke="#34344CFC">
<path d="M 39.000 16.800 C 39.000 17.460 39.540 18.000 40.200 18.000 C 41.133 18.000 41.133 17.733 40.200 16.800 C 39.267 15.867 39.000 15.867 39.000 16.800 "/></g>
</svg>
