<svg xmlns="http://www.w3.org/2000/svg" width="24px" height="24px" viewBox="0 0 56 54"><defs><style>.cls-1{fill:#00005b;}.cls-2{fill:#99f;}</style></defs><title>Asset 134</title><g id="Layer_2" data-name="Layer 2"><g id="Surfaces"><g id="Video_Audio_Surface" data-name="Video/Audio Surface"><g id="Outline_no_shadow" data-name="Outline no shadow"><rect class="cls-1" width="56" height="54" rx="9.91383"/></g></g></g><g id="Outlined_Mnemonics_Logos" data-name="Outlined Mnemonics &amp; Logos"><g id="Pl"><path class="cls-2" d="M14.63571,37.7063V14.06323c0-.17236.07422-.259.22217-.259q.59106,0,1.40576-.01856.81372-.0183,1.75781-.03686.94336-.01831,1.998-.03711,1.05468-.01831,2.09033-.01855a13.90366,13.90366,0,0,1,4.73584.70312,8.22066,8.22066,0,0,1,3.08984,1.887,7.24021,7.24021,0,0,1,1.6836,2.6084,8.66365,8.66365,0,0,1,.51757,2.97852,8.21981,8.21981,0,0,1-1.36914,4.884,7.73031,7.73031,0,0,1-3.6997,2.79346,14.72217,14.72217,0,0,1-5.18018.86963q-.81445,0-1.14648-.01856-.33325-.01832-.999-.01855v7.28906a.2945.2945,0,0,1-.333.333H14.895Q14.6357,38.0022,14.63571,37.7063Zm5.10644-19.46216v7.65894q.48048.03735.8877.03711h1.2207a8.72661,8.72661,0,0,0,2.64551-.36988,3.99058,3.99058,0,0,0,1.88769-1.22119,3.55281,3.55281,0,0,0,.7212-2.36792,3.74033,3.74033,0,0,0-.53662-2.03491A3.45133,3.45133,0,0,0,24.959,18.63281a6.85543,6.85543,0,0,0-2.70117-.46264q-.8877,0-1.57227.01855Q20,18.20777,19.74215,18.24414Z"/><path class="cls-2" d="M34.18115,33.22925V12.06519q0-.29554.333-.2959h4.47656q.33326,0,.333.2959v20.72a1.74565,1.74565,0,0,0,.27734,1.1101,1.16984,1.16984,0,0,0,.94385.333,2.15055,2.15055,0,0,0,.333-.01855c.07373-.01221.18506-.03076.333-.05542a.26222.26222,0,0,1,.11084.01831c.02441.01269.03711.09253.03711.24048v3.18212a1.50055,1.50055,0,0,1-.01856.2959c-.01269.04981-.06836.09888-.1665.1482a5.6973,5.6973,0,0,1-.92481.24048,8.432,8.432,0,0,1-1.40576.09252,6.34,6.34,0,0,1-2.38672-.42553,3.27115,3.27115,0,0,1-1.665-1.5542A6.72755,6.72755,0,0,1,34.18115,33.22925Z"/></g></g></g></svg>