<?xml version="1.0" standalone="no"?><!DOCTYPE svg PUBLIC "-//W3C//DTD SVG 1.1//EN" "http://www.w3.org/Graphics/SVG/1.1/DTD/svg11.dtd"><svg t="1697176233839" class="icon" viewBox="0 0 1024 1024" version="1.1" xmlns="http://www.w3.org/2000/svg" p-id="4075" xmlns:xlink="http://www.w3.org/1999/xlink" width="24px" height="24px"><path d="M155.205818 503.742061a348.590545 348.412121 90 1 0 696.824243 0 348.590545 348.412121 90 1 0-696.824243 0Z" fill="#959BC1" p-id="4076"></path><path d="M539.954424 168.622545a280.67297 285.405091 90 1 0 0 561.34594 280.67297 285.405091 90 1 0 0-561.34594Z" fill="#132373" p-id="4077"></path><path d="M302.045091 447.131152a241.621333 241.497212 90 1 0 482.994424 0 241.621333 241.497212 90 1 0-482.994424 0Z" fill="#0A1864" p-id="4078"></path><path d="M336.197818 563.665455l83.126303-73.037576 27.182546 84.224 27.318303-27.415273h64.892121l18.482424 5.562182 60.105697-72.490667 37.306182 11.205818 35.93697-65.404121c20.130909-36.425697 32.67103-56.420848 37.612606-59.985454 4.945455-3.568485 12.132848-8.358788 21.56606-14.374788-0.705939 4.968727-4.48 11.954424-11.314424 20.957091-10.251636 13.505939-19.068121 65.128727-19.068121 77.808485 0 12.683636-6.427152 72.556606-17.609697 102.283636-11.186424 29.72703-36.70497 98.65697-41.914182 98.65697-2.257455 0-23.544242 17.225697-68.165818 23.986424-24.013576 3.634424-52.941576 9.406061-92.60994 0-39.668364-9.409939-65.939394-18.350545-97.008484-39.714909-20.712727-14.242909-42.658909-38.330182-65.838546-72.261818z" fill="#13183A" p-id="4079"></path><path d="M645.178182 227.917576c-5.589333 23.214545-12.458667 39.059394-20.600243 47.538424-12.218182 12.722424-23.129212 22.784-44.95903 34.172121-21.837576 11.388121-92.066909 38.586182-129.989818 67.964121-37.926788 29.374061-59.275636 70.458182-54.128485 118.706425s31.375515 78.801455 42.752 90.003394c11.376485 11.198061 53.624242 40.098909 97.493333 36.134787 43.869091-3.964121 88.087273-29.110303 115.459879-70.194424 27.368727-41.080242 52.836848-115.382303 61.789091-131.382303 8.952242-15.996121 19.393939-29.354667 31.20097-38.458182 7.873939-6.070303 16.690424-11.721697 26.445576-16.95806-10.713212-29.121939-26.364121-55.497697-46.952728-79.123394-20.584727-23.621818-46.754909-43.093333-78.506666-58.402909z" fill="#3C48A5" fill-opacity=".32" p-id="4080"></path><path d="M487.761455 354.470788h107.104969c55.001212 0 80.232727-7.765333 103.839031-16.41503 15.740121-5.763879 31.127273-14.149818 46.157575-25.157819 8.215273 13.397333 13.626182 23.676121 16.244364 30.836364 2.614303 7.156364 4.390788 14.925576 5.325576 23.299879-3.727515-1.543758-10.918788 3.246545-21.566061 14.374788-15.972848 16.686545-29.071515 45.738667-37.616485 59.985454-8.54497 14.250667-41.782303 77.327515-52.499394 95.759515-10.713212 18.435879-38.690909 54.462061-69.341091 67.316364-30.646303 12.850424-61.641697 26.274909-105.999515 5.081212-44.357818-21.189818-73.409939-59.136-81.504969-95.64703-8.098909-36.507152 0-76.388848 16.849454-98.870303 16.845576-22.485333 45.203394-42.193455 52.359758-48 4.770909-3.87103 11.651879-8.060121 20.646788-12.563394z" fill="#FFFFFF" fill-opacity=".16" p-id="4081"></path><path d="M730.627879 240.667152c11.066182 20.227879 17.431273 34.598788 19.099151 43.108848 1.667879 8.513939 0.050424 18.222545-4.860121 29.121939 7.113697 11.349333 12.035879 20.549818 14.770424 27.597576 2.734545 7.051636 4.999758 17.299394 6.795637 30.75103 6.361212-8.533333 12.024242-13.253818 17.000727-14.169212 4.972606-0.919273 14.041212 0.550788 27.201939 4.402425-4.006788-14.863515-12.210424-33.369212-24.614788-55.524849-12.404364-22.147879-30.867394-43.915636-55.38909-65.287757z" fill="#1C32A0" p-id="4082"></path><path d="M576.690424 166.601697c22.30303 6.822788 59.434667 22.209939 66.598788 41.708606 7.156364 19.494788-0.143515 39.00897-33.373091 47.010909-33.225697 8.009697-126.526061 26.558061-171.093333 42.662788-44.57503 16.100848-119.497697 61.986909-153.37503 98.909091-33.877333 36.922182-54.590061 110.382545-54.590061 162.005333 0 51.626667 36.317091 167.524848 123.174788 207.914667 86.853818 40.393697 161.683394 33.528242 222.657939 0 60.974545-33.524364 101.042424-97.047273 119.478303-142.339879 18.439758-45.288727 38.357333-168.463515 50.14497-200.347151 11.791515-31.879758 18.307879-61.34303 35.618909-66.509576 17.31103-5.162667 26.542545 1.132606 37.810424 10.899394 11.271758 9.766788 21.72897 35.917576 26.038303 63.36 4.305455 27.442424 10.201212 81.400242 6.248728 114.532848-3.952485 33.132606-15.45697 67.774061-23.815758 89.31297-8.354909 21.53503-37.934545 68.530424-56.304485 90.701576-18.373818 22.171152-37.077333 40.389818-67.277576 61.769697-30.204121 21.379879-69.015273 42.534788-118.582303 54.675394-49.563152 12.140606-105.37503 13.199515-141.463272 5.849212-36.092121-7.350303-64.752485-14.611394-100.305455-33.776485-35.556848-19.161212-73.173333-45.195636-108.710788-88.517818-35.541333-43.326061-52.270545-78.933333-66.292363-124.012606S152.304485 507.454061 157.645576 456.009697C162.986667 404.557576 192.958061 330.325333 221.443879 295.342545 249.933576 260.355879 293.888 221.090909 333.847273 198.462061 373.802667 175.825455 414.607515 162.862545 464.678788 157.994667c50.067394-4.871758 89.708606 1.784242 112.015515 8.60703z" fill="#D9DEE9" p-id="4083"></path></svg>