<?xml version="1.0" standalone="no"?><!DOCTYPE svg PUBLIC "-//W3C//DTD SVG 1.1//EN" "http://www.w3.org/Graphics/SVG/1.1/DTD/svg11.dtd"><svg t="1697188129530" class="icon" viewBox="0 0 1024 1024" version="1.1" xmlns="http://www.w3.org/2000/svg" p-id="6850" xmlns:xlink="http://www.w3.org/1999/xlink" width="24px" height="24px"><path d="M0 512c0 282.752 229.248 512 512 512s512-229.248 512-512S794.752 0 512 0 0 229.248 0 512z" fill="#EDEDED" p-id="6851"></path><path d="M1013.76 408.576C965.632 175.104 759.808 0 512 0 229.376 0 0 229.376 0 512c0 123.904 44.032 236.544 116.736 324.608A601.429333 601.429333 0 0 0 409.6 911.36c301.056 0 550.912-217.088 604.16-502.784z" fill="#F4F4F4" p-id="6852"></path><path d="M460.8 447.488c-23.552 175.104-132.096 253.952-236.544 263.168-64.512 6.144-118.784-78.848-121.856-171.008-6.144-203.776 98.304-277.504 189.44-284.672 105.472-9.216 182.272 102.4 168.96 192.512zM572.416 447.488c23.552 175.104 132.096 253.952 236.544 263.168 65.536 6.144 119.808-78.848 122.88-171.008 6.144-203.776-98.304-277.504-189.44-284.672-105.472-9.216-182.272 102.4-169.984 192.512zM515.072 690.176a30.165333 30.165333 0 0 1-30.72-30.72v-81.92c0-17.408 13.312-30.72 30.72-30.72s30.72 13.312 30.72 30.72v81.92c0 17.408-14.336 30.72-30.72 30.72zM430.08 925.696a31.445333 31.445333 0 0 0-37.888 21.504l-15.36 58.368c19.456 5.12 39.936 9.216 60.416 12.288l15.36-55.296a30.549333 30.549333 0 0 0-22.528-36.864z m163.84 0a30.208 30.208 0 0 0-21.504 37.888l15.36 55.296c20.48-3.072 40.96-7.168 60.416-12.288l-15.36-58.368c-6.144-17.408-22.528-27.648-38.912-22.528z" fill="#3A3A3A" p-id="6853"></path></svg>