<?xml version="1.0" encoding="UTF-8"?>
<svg xmlns="http://www.w3.org/2000/svg" xmlns:xlink="http://www.w3.org/1999/xlink" width="40px" height="40px" viewBox="0 0 40 40" version="1.1">
<g id="surface1">
<path style=" stroke:none;fill-rule:nonzero;fill:rgb(100%,100%,100%);fill-opacity:1;" d="M 20.515625 7.746094 C 20.179688 7.964844 19.921875 8.285156 19.777344 8.660156 C 19.628906 9.144531 19.652344 9.660156 19.835938 10.132812 C 19.988281 10.628906 20.292969 11.0625 20.703125 11.375 C 20.914062 11.523438 21.15625 11.617188 21.414062 11.648438 C 21.671875 11.679688 21.929688 11.636719 22.160156 11.519531 C 22.433594 11.367188 22.652344 11.128906 22.78125 10.84375 C 22.90625 10.554688 22.976562 10.246094 22.984375 9.933594 C 23.011719 9.535156 22.960938 9.136719 22.835938 8.757812 C 22.699219 8.34375 22.433594 7.988281 22.074219 7.746094 C 21.890625 7.628906 21.6875 7.550781 21.472656 7.519531 C 21.257812 7.488281 21.039062 7.511719 20.835938 7.589844 C 20.722656 7.636719 20.613281 7.695312 20.511719 7.765625 "/>
<path style=" stroke:none;fill-rule:nonzero;fill:rgb(0.784314%,0.784314%,1.568628%);fill-opacity:1;" d="M 31.648438 23.691406 C 31.449219 22.585938 31.136719 21.503906 30.71875 20.464844 C 30.433594 19.691406 30.046875 18.957031 29.566406 18.285156 C 29.082031 17.640625 28.46875 17.097656 27.996094 16.445312 C 27.746094 16.105469 27.535156 15.726562 27.273438 15.394531 C 27.167969 15.175781 27.066406 14.957031 26.964844 14.738281 C 26.652344 14.054688 26.367188 13.355469 25.996094 12.707031 C 25.9375 12.605469 25.875 12.503906 25.816406 12.40625 C 25.769531 11.78125 25.703125 11.15625 25.667969 10.53125 C 25.695312 9.277344 25.589844 8.019531 25.351562 6.785156 C 25.1875 6.195312 24.9375 5.628906 24.609375 5.113281 C 24.226562 4.503906 23.734375 3.972656 23.15625 3.546875 C 22.214844 2.878906 21.089844 2.519531 19.9375 2.515625 C 19.089844 2.496094 18.25 2.6875 17.496094 3.078125 C 16.703125 3.511719 16.0625 4.179688 15.660156 4.988281 C 15.285156 5.804688 15.085938 6.6875 15.074219 7.585938 C 15.042969 8.46875 15.125 9.34375 15.160156 10.226562 C 15.195312 11.140625 15.175781 12.058594 15.25 12.972656 C 15.273438 13.265625 15.308594 13.558594 15.308594 13.855469 C 15.308594 14.003906 15.300781 14.152344 15.296875 14.296875 L 15.285156 14.328125 C 14.886719 15.003906 14.445312 15.65625 13.964844 16.277344 C 13.628906 16.703125 13.292969 17.125 12.953125 17.542969 C 12.511719 18.039062 12.136719 18.589844 11.839844 19.183594 C 11.640625 19.699219 11.480469 20.230469 11.355469 20.769531 L 11.34375 20.8125 C 11.15625 21.433594 10.921875 22.035156 10.640625 22.617188 C 10.613281 22.671875 10.585938 22.730469 10.5625 22.78125 C 10.394531 23.128906 10.21875 23.476562 10.035156 23.816406 L 9.824219 24.210938 C 9.691406 24.449219 9.574219 24.695312 9.472656 24.945312 C 9.414062 25.097656 9.367188 25.253906 9.339844 25.414062 C 9.289062 25.753906 9.3125 26.097656 9.402344 26.425781 C 9.421875 26.507812 9.449219 26.589844 9.476562 26.671875 C 9.5625 26.914062 9.664062 27.152344 9.785156 27.378906 C 9.839844 27.484375 9.898438 27.585938 9.953125 27.691406 L 10.003906 27.765625 C 10.058594 27.863281 10.117188 27.960938 10.175781 28.054688 L 10.183594 28.066406 C 10.25 28.175781 10.324219 28.28125 10.394531 28.386719 L 10.40625 28.402344 C 10.480469 28.503906 10.554688 28.609375 10.632812 28.710938 C 10.921875 29.839844 11.453125 30.890625 12.183594 31.796875 C 12.070312 31.996094 11.96875 32.191406 11.855469 32.386719 C 11.457031 32.964844 11.128906 33.585938 10.875 34.238281 C 10.769531 34.574219 10.742188 34.929688 10.800781 35.277344 C 10.855469 35.628906 11.035156 35.945312 11.308594 36.175781 C 11.492188 36.316406 11.703125 36.414062 11.925781 36.460938 C 12.148438 36.507812 12.378906 36.53125 12.609375 36.519531 C 13.476562 36.453125 14.335938 36.28125 15.164062 36.015625 C 15.664062 35.882812 16.164062 35.765625 16.671875 35.664062 C 17.199219 35.542969 17.734375 35.46875 18.273438 35.445312 C 18.40625 35.449219 18.539062 35.441406 18.667969 35.433594 C 19.035156 35.472656 19.402344 35.488281 19.773438 35.472656 L 19.910156 35.464844 C 20.003906 35.476562 20.101562 35.480469 20.199219 35.488281 C 20.847656 35.523438 21.492188 35.589844 22.132812 35.6875 C 22.695312 35.773438 23.257812 35.882812 23.8125 36.019531 C 24.667969 36.277344 25.546875 36.449219 26.441406 36.523438 C 26.675781 36.535156 26.910156 36.515625 27.144531 36.46875 C 27.375 36.421875 27.59375 36.320312 27.78125 36.179688 C 28.054688 35.953125 28.234375 35.636719 28.292969 35.285156 C 28.351562 34.9375 28.324219 34.582031 28.21875 34.246094 C 27.960938 33.59375 27.628906 32.972656 27.222656 32.398438 C 27.082031 32.160156 26.949219 31.914062 26.808594 31.675781 C 27.414062 31 27.949219 30.257812 28.398438 29.46875 C 28.671875 29.484375 28.941406 29.453125 29.203125 29.367188 C 29.886719 29.136719 30.480469 28.691406 30.894531 28.097656 C 31.019531 27.921875 31.117188 27.726562 31.175781 27.519531 C 31.445312 27.101562 31.628906 26.632812 31.714844 26.140625 C 31.839844 25.328125 31.820312 24.496094 31.65625 23.691406 Z M 31.648438 23.691406 "/>
<path style=" stroke:none;fill-rule:nonzero;fill:rgb(100%,100%,100%);fill-opacity:1;" d="M 16.625 12.625 C 16.503906 12.78125 16.417969 12.964844 16.375 13.15625 C 16.332031 13.347656 16.304688 13.546875 16.300781 13.742188 C 16.3125 14.136719 16.28125 14.53125 16.203125 14.917969 C 16.066406 15.320312 15.859375 15.691406 15.59375 16.023438 C 15.136719 16.597656 14.777344 17.242188 14.53125 17.929688 C 14.40625 18.355469 14.363281 18.800781 14.410156 19.246094 C 13.9375 19.945312 13.527344 20.6875 13.1875 21.460938 C 12.664062 22.628906 12.328125 23.875 12.191406 25.148438 C 12.023438 26.714844 12.253906 28.296875 12.855469 29.75 C 13.296875 30.796875 13.96875 31.734375 14.820312 32.488281 C 15.257812 32.867188 15.738281 33.1875 16.253906 33.441406 C 18.078125 34.332031 20.214844 34.3125 22.019531 33.386719 C 22.921875 32.859375 23.746094 32.207031 24.464844 31.453125 C 24.929688 31.03125 25.34375 30.558594 25.707031 30.042969 C 26.3125 28.992188 26.667969 27.8125 26.742188 26.601562 C 27.117188 24.507812 26.886719 22.351562 26.082031 20.382812 C 25.765625 19.726562 25.347656 19.125 24.839844 18.601562 C 24.703125 17.683594 24.4375 16.789062 24.050781 15.945312 C 23.769531 15.339844 23.429688 14.761719 23.167969 14.140625 C 23.0625 13.886719 22.96875 13.628906 22.851562 13.382812 C 22.738281 13.132812 22.582031 12.902344 22.390625 12.707031 C 22.183594 12.515625 21.9375 12.371094 21.667969 12.289062 C 21.398438 12.203125 21.121094 12.15625 20.839844 12.148438 C 20.277344 12.121094 19.710938 12.191406 19.15625 12.171875 C 18.707031 12.152344 18.265625 12.074219 17.816406 12.101562 C 17.59375 12.113281 17.371094 12.15625 17.164062 12.238281 C 16.953125 12.320312 16.769531 12.453125 16.625 12.628906 M 16.804688 7.742188 C 16.59375 7.757812 16.394531 7.847656 16.242188 7.992188 C 16.089844 8.136719 15.976562 8.320312 15.914062 8.519531 C 15.808594 8.925781 15.78125 9.351562 15.839844 9.769531 C 15.847656 10.148438 15.914062 10.527344 16.039062 10.886719 C 16.109375 11.0625 16.210938 11.226562 16.34375 11.363281 C 16.476562 11.5 16.644531 11.601562 16.828125 11.648438 C 17.003906 11.691406 17.1875 11.683594 17.355469 11.628906 C 17.523438 11.574219 17.679688 11.480469 17.804688 11.355469 C 17.988281 11.167969 18.121094 10.9375 18.1875 10.6875 C 18.253906 10.4375 18.285156 10.175781 18.277344 9.914062 C 18.277344 9.589844 18.226562 9.265625 18.128906 8.953125 C 18.03125 8.640625 17.863281 8.355469 17.636719 8.117188 C 17.527344 8.003906 17.402344 7.90625 17.261719 7.835938 C 17.117188 7.769531 16.960938 7.734375 16.804688 7.742188 M 20.515625 7.742188 C 20.179688 7.960938 19.921875 8.28125 19.777344 8.65625 C 19.628906 9.140625 19.652344 9.65625 19.835938 10.128906 C 19.988281 10.625 20.292969 11.058594 20.703125 11.371094 C 20.914062 11.519531 21.15625 11.613281 21.414062 11.644531 C 21.671875 11.675781 21.929688 11.632812 22.160156 11.515625 C 22.433594 11.363281 22.652344 11.125 22.78125 10.839844 C 22.90625 10.550781 22.976562 10.242188 22.984375 9.929688 C 23.011719 9.53125 22.960938 9.132812 22.835938 8.753906 C 22.699219 8.339844 22.433594 7.984375 22.074219 7.742188 C 21.890625 7.625 21.6875 7.546875 21.472656 7.515625 C 21.257812 7.484375 21.039062 7.507812 20.835938 7.585938 C 20.722656 7.632812 20.613281 7.691406 20.511719 7.761719 "/>
<path style=" stroke:none;fill-rule:nonzero;fill:rgb(0.784314%,0.784314%,1.568628%);fill-opacity:1;" d="M 21.269531 8.734375 C 21.144531 8.742188 21.027344 8.78125 20.921875 8.847656 C 20.816406 8.914062 20.726562 9.003906 20.65625 9.105469 C 20.523438 9.3125 20.449219 9.554688 20.445312 9.804688 C 20.433594 9.988281 20.460938 10.175781 20.519531 10.351562 C 20.578125 10.527344 20.6875 10.683594 20.828125 10.800781 C 20.976562 10.921875 21.15625 10.992188 21.347656 11.003906 C 21.539062 11.011719 21.726562 10.960938 21.882812 10.851562 C 22.007812 10.761719 22.109375 10.648438 22.179688 10.511719 C 22.25 10.378906 22.292969 10.230469 22.3125 10.082031 C 22.351562 9.816406 22.304688 9.542969 22.1875 9.304688 C 22.066406 9.0625 21.859375 8.878906 21.609375 8.78125 C 21.5 8.738281 21.386719 8.722656 21.269531 8.726562 "/>
<path style=" stroke:none;fill-rule:nonzero;fill:rgb(100%,100%,100%);fill-opacity:1;" d="M 16.804688 7.746094 C 16.59375 7.761719 16.394531 7.851562 16.242188 7.996094 C 16.089844 8.140625 15.976562 8.324219 15.914062 8.523438 C 15.808594 8.929688 15.78125 9.355469 15.839844 9.773438 C 15.847656 10.152344 15.914062 10.53125 16.039062 10.890625 C 16.109375 11.070312 16.210938 11.230469 16.34375 11.367188 C 16.476562 11.503906 16.644531 11.605469 16.828125 11.652344 C 17.003906 11.695312 17.1875 11.6875 17.355469 11.632812 C 17.523438 11.578125 17.679688 11.484375 17.804688 11.359375 C 17.988281 11.171875 18.121094 10.941406 18.1875 10.691406 C 18.253906 10.441406 18.285156 10.179688 18.277344 9.917969 C 18.277344 9.59375 18.226562 9.269531 18.128906 8.957031 C 18.03125 8.644531 17.863281 8.359375 17.636719 8.121094 C 17.527344 8.007812 17.402344 7.910156 17.261719 7.839844 C 17.117188 7.773438 16.960938 7.738281 16.804688 7.746094 "/>
<path style=" stroke:none;fill-rule:nonzero;fill:rgb(0.784314%,0.784314%,1.568628%);fill-opacity:1;" d="M 16.300781 9.484375 C 16.25 9.746094 16.261719 10.019531 16.34375 10.273438 C 16.40625 10.441406 16.5 10.59375 16.625 10.722656 C 16.703125 10.808594 16.792969 10.882812 16.898438 10.933594 C 17.003906 10.988281 17.121094 11.003906 17.238281 10.976562 C 17.34375 10.949219 17.433594 10.886719 17.5 10.800781 C 17.566406 10.714844 17.613281 10.617188 17.644531 10.515625 C 17.734375 10.210938 17.726562 9.886719 17.628906 9.582031 C 17.566406 9.359375 17.445312 9.15625 17.273438 9.003906 C 17.191406 8.933594 17.089844 8.878906 16.984375 8.851562 C 16.875 8.824219 16.761719 8.832031 16.65625 8.878906 C 16.546875 8.933594 16.457031 9.023438 16.402344 9.132812 C 16.347656 9.242188 16.3125 9.359375 16.296875 9.480469 "/>
<path style=" stroke:none;fill-rule:nonzero;fill:rgb(85.09804%,60.392159%,1.176471%);fill-opacity:1;" d="M 15.804688 12.769531 C 15.8125 12.804688 15.824219 12.839844 15.84375 12.867188 C 15.878906 12.921875 15.921875 12.964844 15.976562 13 C 16.027344 13.035156 16.078125 13.066406 16.128906 13.097656 C 16.398438 13.28125 16.636719 13.507812 16.828125 13.773438 C 17.0625 14.140625 17.355469 14.46875 17.6875 14.75 C 17.941406 14.925781 18.238281 15.03125 18.546875 15.058594 C 18.90625 15.085938 19.269531 15.042969 19.617188 14.933594 C 19.9375 14.839844 20.246094 14.707031 20.535156 14.53125 C 21.03125 14.132812 21.5625 13.78125 22.125 13.488281 C 22.257812 13.441406 22.390625 13.40625 22.515625 13.347656 C 22.644531 13.292969 22.753906 13.199219 22.820312 13.074219 C 22.863281 12.949219 22.890625 12.816406 22.894531 12.683594 C 22.914062 12.542969 22.960938 12.40625 22.984375 12.265625 C 23.015625 12.125 23.003906 11.980469 22.953125 11.84375 C 22.898438 11.738281 22.8125 11.652344 22.707031 11.597656 C 22.601562 11.546875 22.484375 11.515625 22.367188 11.511719 C 22.128906 11.519531 21.894531 11.542969 21.664062 11.582031 C 21.351562 11.609375 21.039062 11.570312 20.726562 11.582031 C 20.339844 11.59375 19.953125 11.679688 19.5625 11.695312 C 19.117188 11.71875 18.675781 11.648438 18.230469 11.628906 C 18.039062 11.617188 17.84375 11.625 17.652344 11.65625 C 17.460938 11.683594 17.277344 11.753906 17.117188 11.863281 C 16.96875 11.980469 16.832031 12.105469 16.699219 12.238281 C 16.628906 12.300781 16.550781 12.355469 16.46875 12.398438 C 16.382812 12.441406 16.292969 12.464844 16.195312 12.460938 C 16.148438 12.453125 16.097656 12.453125 16.050781 12.460938 C 16.023438 12.472656 15.996094 12.488281 15.976562 12.507812 L 15.917969 12.578125 C 15.878906 12.636719 15.84375 12.699219 15.816406 12.761719 "/>
<path style=" stroke:none;fill-rule:nonzero;fill:rgb(37.64706%,26.666668%,1.960784%);fill-opacity:1;" d="M 16.785156 11.785156 C 16.628906 11.878906 16.476562 11.980469 16.324219 12.085938 C 16.242188 12.136719 16.175781 12.203125 16.125 12.285156 C 16.097656 12.347656 16.085938 12.414062 16.089844 12.480469 C 16.09375 12.546875 16.09375 12.613281 16.089844 12.679688 C 16.085938 12.722656 16.070312 12.769531 16.070312 12.816406 C 16.070312 12.839844 16.070312 12.863281 16.078125 12.882812 C 16.085938 12.90625 16.09375 12.925781 16.109375 12.941406 C 16.128906 12.960938 16.15625 12.976562 16.1875 12.984375 C 16.214844 12.992188 16.246094 12.996094 16.277344 13.003906 C 16.414062 13.042969 16.539062 13.117188 16.640625 13.214844 C 16.746094 13.308594 16.839844 13.417969 16.953125 13.507812 C 17.265625 13.742188 17.644531 13.863281 18.03125 13.859375 C 18.417969 13.851562 18.800781 13.796875 19.171875 13.699219 C 19.464844 13.636719 19.753906 13.558594 20.035156 13.460938 C 20.472656 13.296875 20.875 13.058594 21.222656 12.75 C 21.375 12.601562 21.535156 12.46875 21.707031 12.347656 C 21.863281 12.25 22.046875 12.183594 22.203125 12.089844 C 22.21875 12.082031 22.230469 12.070312 22.246094 12.0625 C 22.257812 12.050781 22.269531 12.039062 22.277344 12.023438 C 22.289062 11.996094 22.289062 11.964844 22.277344 11.9375 C 22.269531 11.910156 22.257812 11.886719 22.242188 11.867188 C 22.222656 11.84375 22.199219 11.820312 22.175781 11.800781 C 21.996094 11.667969 21.78125 11.59375 21.558594 11.585938 C 21.332031 11.570312 21.117188 11.585938 20.898438 11.542969 C 20.695312 11.5 20.496094 11.441406 20.300781 11.371094 C 20.09375 11.304688 19.882812 11.253906 19.664062 11.21875 C 19.15625 11.136719 18.640625 11.148438 18.136719 11.257812 C 17.664062 11.363281 17.207031 11.542969 16.785156 11.785156 "/>
<path style=" stroke:none;fill-rule:nonzero;fill:rgb(96.078432%,74.117649%,4.705882%);fill-opacity:1;" d="M 16.734375 11.253906 C 16.507812 11.40625 16.304688 11.59375 16.128906 11.804688 C 16.027344 11.921875 15.945312 12.058594 15.890625 12.207031 C 15.855469 12.324219 15.832031 12.445312 15.8125 12.566406 C 15.800781 12.609375 15.792969 12.65625 15.792969 12.703125 C 15.792969 12.726562 15.796875 12.75 15.804688 12.769531 C 15.8125 12.792969 15.824219 12.8125 15.839844 12.828125 C 15.867188 12.855469 15.902344 12.871094 15.941406 12.878906 C 15.976562 12.886719 16.015625 12.886719 16.054688 12.890625 C 16.226562 12.917969 16.386719 12.988281 16.527344 13.089844 C 16.667969 13.1875 16.800781 13.300781 16.945312 13.394531 C 17.273438 13.589844 17.648438 13.695312 18.03125 13.703125 C 18.414062 13.710938 18.792969 13.671875 19.164062 13.589844 C 19.460938 13.535156 19.753906 13.453125 20.039062 13.34375 C 20.464844 13.160156 20.863281 12.921875 21.226562 12.632812 C 21.394531 12.507812 21.558594 12.375 21.710938 12.230469 C 21.761719 12.179688 21.8125 12.128906 21.867188 12.082031 C 21.921875 12.035156 21.984375 12 22.050781 11.976562 C 22.15625 11.949219 22.265625 11.945312 22.375 11.972656 C 22.453125 11.992188 22.535156 12 22.617188 12 C 22.660156 12 22.699219 11.992188 22.738281 11.980469 C 22.777344 11.964844 22.8125 11.941406 22.835938 11.910156 C 22.871094 11.867188 22.886719 11.816406 22.886719 11.761719 C 22.886719 11.707031 22.871094 11.65625 22.84375 11.609375 C 22.785156 11.519531 22.695312 11.449219 22.597656 11.410156 C 22.460938 11.355469 22.320312 11.3125 22.175781 11.285156 C 21.734375 11.179688 21.304688 11.023438 20.898438 10.820312 C 20.695312 10.71875 20.503906 10.609375 20.300781 10.503906 C 20.097656 10.390625 19.886719 10.292969 19.667969 10.222656 C 19.164062 10.085938 18.628906 10.109375 18.140625 10.292969 C 17.59375 10.484375 17.105469 10.816406 16.730469 11.257812 "/>
<path style=" stroke:none;fill-rule:nonzero;fill:rgb(80.392158%,53.725493%,2.745098%);fill-opacity:1;" d="M 19.277344 10.632812 C 19.304688 10.722656 19.445312 10.707031 19.527344 10.746094 C 19.609375 10.785156 19.65625 10.859375 19.734375 10.867188 C 19.816406 10.875 19.929688 10.839844 19.941406 10.765625 C 19.957031 10.664062 19.808594 10.601562 19.714844 10.566406 C 19.589844 10.507812 19.449219 10.503906 19.324219 10.558594 C 19.296875 10.570312 19.269531 10.605469 19.277344 10.632812 Z M 17.933594 10.585938 C 17.828125 10.550781 17.65625 10.734375 17.707031 10.832031 C 17.722656 10.859375 17.769531 10.890625 17.800781 10.875 C 17.832031 10.859375 17.890625 10.753906 17.941406 10.71875 C 17.980469 10.6875 17.972656 10.597656 17.933594 10.585938 Z M 17.933594 10.585938 "/>
<path style=" stroke:none;fill-rule:nonzero;fill:rgb(96.078432%,74.117649%,4.705882%);fill-opacity:1;" d="M 34.675781 32.414062 C 34.597656 32.617188 34.484375 32.804688 34.34375 32.972656 C 34.015625 33.324219 33.617188 33.605469 33.179688 33.800781 C 32.4375 34.144531 31.714844 34.527344 31.011719 34.945312 C 30.554688 35.25 30.128906 35.59375 29.734375 35.976562 C 29.410156 36.316406 29.0625 36.628906 28.695312 36.921875 C 28.3125 37.203125 27.871094 37.394531 27.402344 37.46875 C 26.828125 37.542969 26.246094 37.453125 25.71875 37.214844 C 25.339844 37.070312 25.011719 36.816406 24.78125 36.480469 C 24.585938 36.121094 24.496094 35.71875 24.515625 35.3125 C 24.539062 34.597656 24.625 33.886719 24.773438 33.183594 C 24.875 32.597656 24.976562 32.011719 25.039062 31.421875 C 25.148438 30.34375 25.160156 29.261719 25.078125 28.183594 C 25.058594 28.003906 25.058594 27.820312 25.078125 27.640625 C 25.101562 27.273438 25.410156 26.992188 25.78125 26.996094 C 25.949219 26.992188 26.117188 27.007812 26.28125 27.039062 C 26.671875 27.085938 27.0625 27.152344 27.445312 27.242188 C 27.683594 27.304688 27.921875 27.390625 28.160156 27.457031 C 28.558594 27.574219 28.980469 27.609375 29.394531 27.570312 C 29.828125 27.46875 30.269531 27.402344 30.714844 27.363281 C 30.898438 27.371094 31.082031 27.402344 31.253906 27.457031 C 31.433594 27.507812 31.601562 27.597656 31.738281 27.726562 C 31.835938 27.832031 31.914062 27.953125 31.964844 28.085938 C 32.039062 28.285156 32.085938 28.492188 32.101562 28.703125 C 32.109375 28.890625 32.125 29.078125 32.148438 29.265625 C 32.214844 29.566406 32.359375 29.847656 32.5625 30.082031 C 32.769531 30.308594 32.992188 30.519531 33.234375 30.707031 C 33.464844 30.910156 33.707031 31.097656 33.960938 31.269531 C 34.082031 31.351562 34.203125 31.425781 34.316406 31.515625 C 34.433594 31.601562 34.53125 31.710938 34.605469 31.835938 C 34.699219 32.007812 34.730469 32.207031 34.683594 32.398438 "/>
<path style=" stroke:none;fill-rule:nonzero;fill:rgb(96.078432%,74.117649%,4.705882%);fill-opacity:1;" d="M 34.675781 32.414062 C 34.597656 32.617188 34.484375 32.804688 34.34375 32.972656 C 34.015625 33.324219 33.617188 33.605469 33.179688 33.800781 C 32.4375 34.144531 31.714844 34.527344 31.011719 34.945312 C 30.554688 35.25 30.128906 35.59375 29.734375 35.976562 C 29.410156 36.316406 29.0625 36.628906 28.695312 36.921875 C 28.3125 37.203125 27.871094 37.394531 27.402344 37.46875 C 26.828125 37.542969 26.246094 37.453125 25.71875 37.214844 C 25.339844 37.070312 25.011719 36.816406 24.78125 36.480469 C 24.585938 36.121094 24.496094 35.71875 24.515625 35.3125 C 24.539062 34.597656 24.625 33.886719 24.773438 33.183594 C 24.875 32.597656 24.976562 32.011719 25.039062 31.421875 C 25.148438 30.34375 25.160156 29.261719 25.078125 28.183594 C 25.058594 28.003906 25.058594 27.820312 25.078125 27.640625 C 25.101562 27.273438 25.410156 26.992188 25.78125 26.996094 C 25.949219 26.992188 26.117188 27.007812 26.28125 27.039062 C 26.671875 27.085938 27.0625 27.152344 27.445312 27.242188 C 27.683594 27.304688 27.921875 27.390625 28.160156 27.457031 C 28.558594 27.574219 28.980469 27.609375 29.394531 27.570312 C 29.828125 27.46875 30.269531 27.402344 30.714844 27.363281 C 30.898438 27.371094 31.082031 27.402344 31.253906 27.457031 C 31.433594 27.507812 31.601562 27.597656 31.738281 27.726562 C 31.835938 27.832031 31.914062 27.953125 31.964844 28.085938 C 32.039062 28.285156 32.085938 28.492188 32.101562 28.703125 C 32.109375 28.890625 32.125 29.078125 32.148438 29.265625 C 32.214844 29.566406 32.359375 29.847656 32.5625 30.082031 C 32.769531 30.308594 32.992188 30.519531 33.234375 30.707031 C 33.464844 30.910156 33.707031 31.097656 33.960938 31.269531 C 34.082031 31.351562 34.203125 31.425781 34.316406 31.515625 C 34.433594 31.601562 34.53125 31.710938 34.605469 31.835938 C 34.699219 32.007812 34.730469 32.207031 34.683594 32.398438 M 10.132812 26.417969 C 10.324219 26.34375 10.53125 26.324219 10.734375 26.363281 C 10.9375 26.402344 11.128906 26.484375 11.296875 26.601562 C 11.621094 26.847656 11.902344 27.152344 12.125 27.492188 C 12.675781 28.25 13.203125 29.023438 13.683594 29.828125 C 14.074219 30.480469 14.429688 31.152344 14.878906 31.765625 C 15.171875 32.164062 15.503906 32.535156 15.800781 32.933594 C 16.109375 33.324219 16.34375 33.769531 16.488281 34.242188 C 16.660156 34.871094 16.589844 35.539062 16.296875 36.121094 C 16.085938 36.527344 15.769531 36.867188 15.382812 37.101562 C 14.992188 37.335938 14.542969 37.453125 14.085938 37.441406 C 13.367188 37.34375 12.671875 37.125 12.03125 36.792969 C 10.667969 36.25 9.1875 36.078125 7.78125 35.65625 C 7.347656 35.527344 6.925781 35.371094 6.488281 35.253906 C 6.292969 35.207031 6.101562 35.148438 5.914062 35.070312 C 5.730469 34.992188 5.570312 34.859375 5.464844 34.691406 C 5.386719 34.554688 5.347656 34.398438 5.351562 34.242188 C 5.355469 34.085938 5.386719 33.933594 5.441406 33.792969 C 5.546875 33.5 5.71875 33.238281 5.832031 32.949219 C 6.003906 32.472656 6.070312 31.960938 6.027344 31.457031 C 6.003906 30.953125 5.914062 30.449219 5.886719 29.945312 C 5.863281 29.71875 5.871094 29.492188 5.910156 29.269531 C 5.96875 28.824219 6.316406 28.46875 6.765625 28.402344 C 6.972656 28.367188 7.179688 28.351562 7.386719 28.363281 C 7.59375 28.375 7.804688 28.375 8.011719 28.363281 C 8.21875 28.351562 8.425781 28.292969 8.609375 28.195312 C 8.777344 28.09375 8.925781 27.953125 9.039062 27.789062 C 9.152344 27.625 9.253906 27.457031 9.347656 27.28125 C 9.441406 27.105469 9.546875 26.941406 9.671875 26.785156 C 9.789062 26.625 9.949219 26.503906 10.132812 26.417969 "/>
<path style=" stroke:none;fill-rule:nonzero;fill:rgb(96.078432%,74.117649%,4.705882%);fill-opacity:1;" d="M 10.132812 26.421875 C 10.324219 26.347656 10.53125 26.328125 10.734375 26.367188 C 10.9375 26.40625 11.128906 26.488281 11.296875 26.605469 C 11.621094 26.851562 11.902344 27.15625 12.125 27.496094 C 12.675781 28.253906 13.203125 29.027344 13.683594 29.832031 C 14.074219 30.484375 14.429688 31.15625 14.878906 31.769531 C 15.171875 32.167969 15.503906 32.539062 15.800781 32.9375 C 16.109375 33.328125 16.34375 33.773438 16.488281 34.246094 C 16.660156 34.875 16.589844 35.542969 16.296875 36.125 C 16.085938 36.53125 15.769531 36.871094 15.382812 37.105469 C 14.992188 37.339844 14.542969 37.457031 14.085938 37.445312 C 13.367188 37.347656 12.671875 37.128906 12.03125 36.796875 C 10.667969 36.253906 9.1875 36.082031 7.78125 35.660156 C 7.347656 35.53125 6.925781 35.375 6.488281 35.257812 C 6.292969 35.210938 6.101562 35.152344 5.914062 35.074219 C 5.730469 34.996094 5.570312 34.863281 5.464844 34.695312 C 5.386719 34.558594 5.347656 34.402344 5.351562 34.246094 C 5.355469 34.089844 5.386719 33.9375 5.441406 33.796875 C 5.546875 33.503906 5.71875 33.242188 5.832031 32.953125 C 6.003906 32.476562 6.070312 31.964844 6.027344 31.460938 C 6.003906 30.957031 5.914062 30.457031 5.886719 29.949219 C 5.863281 29.722656 5.871094 29.496094 5.910156 29.273438 C 5.96875 28.828125 6.316406 28.472656 6.765625 28.40625 C 6.972656 28.371094 7.179688 28.355469 7.386719 28.367188 C 7.59375 28.378906 7.804688 28.378906 8.011719 28.367188 C 8.21875 28.355469 8.425781 28.296875 8.609375 28.199219 C 8.777344 28.097656 8.925781 27.957031 9.039062 27.792969 C 9.152344 27.628906 9.253906 27.460938 9.347656 27.285156 C 9.441406 27.109375 9.546875 26.945312 9.671875 26.789062 C 9.789062 26.628906 9.949219 26.503906 10.132812 26.421875 "/>
<path style=" stroke:none;fill-rule:nonzero;fill:rgb(96.078432%,74.117649%,4.705882%);fill-opacity:1;" d="M 10.433594 26.75 C 10.605469 26.683594 10.796875 26.671875 10.976562 26.714844 C 11.15625 26.757812 11.324219 26.839844 11.46875 26.957031 C 11.746094 27.199219 11.980469 27.488281 12.15625 27.8125 C 12.625 28.570312 13.082031 29.335938 13.507812 30.117188 C 13.816406 30.714844 14.164062 31.292969 14.546875 31.84375 C 14.8125 32.203125 15.117188 32.53125 15.390625 32.882812 C 15.675781 33.230469 15.890625 33.625 16.023438 34.050781 C 16.179688 34.609375 16.113281 35.207031 15.847656 35.726562 C 15.652344 36.09375 15.359375 36.402344 15 36.609375 C 14.640625 36.820312 14.226562 36.921875 13.8125 36.902344 C 13.160156 36.800781 12.527344 36.605469 11.929688 36.320312 C 10.742188 35.886719 9.449219 35.832031 8.230469 35.492188 C 7.792969 35.375 7.367188 35.214844 6.925781 35.105469 C 6.730469 35.0625 6.535156 35.007812 6.347656 34.9375 C 6.160156 34.867188 5.996094 34.734375 5.886719 34.566406 C 5.816406 34.433594 5.78125 34.285156 5.789062 34.136719 C 5.796875 33.988281 5.828125 33.839844 5.882812 33.699219 C 5.988281 33.421875 6.15625 33.167969 6.261719 32.890625 C 6.410156 32.460938 6.460938 32.007812 6.414062 31.554688 C 6.382812 31.105469 6.300781 30.660156 6.277344 30.207031 C 6.261719 30.007812 6.269531 29.804688 6.304688 29.605469 C 6.339844 29.40625 6.433594 29.222656 6.574219 29.074219 C 6.738281 28.925781 6.941406 28.828125 7.160156 28.800781 C 7.378906 28.773438 7.597656 28.773438 7.8125 28.800781 C 8.03125 28.828125 8.25 28.835938 8.46875 28.832031 C 8.898438 28.832031 9.289062 28.582031 9.472656 28.191406 C 9.5625 28.015625 9.640625 27.832031 9.703125 27.648438 C 9.769531 27.460938 9.859375 27.285156 9.964844 27.117188 C 10.074219 26.949219 10.230469 26.816406 10.414062 26.738281 "/>
</g>
</svg>
