<?xml version="1.0" encoding="UTF-8"?>
<svg xmlns="http://www.w3.org/2000/svg" xmlns:xlink="http://www.w3.org/1999/xlink" width="40px" height="40px" viewBox="0 0 150 150" version="1.1">
<g id="surface1">
<path style=" stroke:none;fill-rule:nonzero;fill:rgb(100%,100%,100%);fill-opacity:1;" d="M 76.933594 29.046875 C 75.671875 29.867188 74.707031 31.070312 74.164062 32.476562 C 73.609375 34.292969 73.695312 36.226562 74.386719 38 C 74.957031 39.859375 76.097656 41.484375 77.636719 42.65625 C 78.429688 43.214844 79.335938 43.566406 80.304688 43.683594 C 81.269531 43.800781 82.238281 43.636719 83.101562 43.199219 C 84.125 42.628906 84.945312 41.734375 85.429688 40.664062 C 85.898438 39.582031 86.164062 38.421875 86.191406 37.25 C 86.292969 35.757812 86.105469 34.261719 85.636719 32.84375 C 85.121094 31.289062 84.125 29.957031 82.777344 29.046875 C 82.089844 28.609375 81.328125 28.316406 80.523438 28.199219 C 79.71875 28.082031 78.898438 28.167969 78.136719 28.460938 C 77.710938 28.636719 77.300781 28.859375 76.917969 29.121094 "/>
<path style=" stroke:none;fill-rule:nonzero;fill:rgb(0.784314%,0.784314%,1.568628%);fill-opacity:1;" d="M 118.679688 88.84375 C 117.933594 84.695312 116.761719 80.640625 115.195312 76.742188 C 114.125 73.84375 112.675781 71.089844 110.875 68.570312 C 109.058594 66.152344 106.757812 64.117188 104.984375 61.667969 C 104.046875 60.394531 103.257812 58.972656 102.273438 57.730469 C 101.878906 56.910156 101.5 56.089844 101.117188 55.269531 C 99.945312 52.703125 98.878906 50.082031 97.484375 47.652344 C 97.265625 47.269531 97.03125 46.890625 96.8125 46.523438 C 96.636719 44.179688 96.386719 41.835938 96.253906 39.492188 C 96.359375 34.789062 95.960938 30.074219 95.070312 25.445312 C 94.453125 23.230469 93.515625 21.109375 92.285156 19.175781 C 90.851562 16.890625 89.003906 14.898438 86.835938 13.300781 C 83.304688 10.796875 79.085938 9.449219 74.765625 9.433594 C 71.585938 9.359375 68.4375 10.078125 65.609375 11.542969 C 62.636719 13.167969 60.234375 15.671875 58.726562 18.707031 C 57.320312 21.765625 56.574219 25.078125 56.527344 28.445312 C 56.410156 31.757812 56.71875 35.039062 56.851562 38.347656 C 56.984375 41.777344 56.910156 45.21875 57.1875 48.648438 C 57.277344 49.746094 57.40625 50.84375 57.40625 51.957031 C 57.40625 52.515625 57.378906 53.070312 57.363281 53.613281 L 57.320312 53.730469 C 55.824219 56.265625 54.171875 58.710938 52.367188 61.039062 C 51.109375 62.636719 49.847656 64.21875 48.574219 65.785156 C 46.917969 67.648438 45.511719 69.710938 44.398438 71.9375 C 43.652344 73.871094 43.050781 75.863281 42.582031 77.886719 L 42.539062 78.046875 C 41.835938 80.375 40.957031 82.632812 39.902344 84.8125 C 39.800781 85.019531 39.699219 85.238281 39.609375 85.429688 C 38.980469 86.734375 38.320312 88.039062 37.632812 89.3125 L 36.839844 90.792969 C 36.34375 91.683594 35.902344 92.609375 35.523438 93.546875 C 35.304688 94.117188 35.128906 94.703125 35.023438 95.304688 C 34.835938 96.578125 34.921875 97.867188 35.257812 99.097656 C 35.332031 99.40625 35.433594 99.710938 35.539062 100.019531 C 35.859375 100.929688 36.242188 101.820312 36.695312 102.671875 C 36.898438 103.066406 37.121094 103.445312 37.324219 103.84375 L 37.515625 104.121094 C 37.71875 104.488281 37.941406 104.851562 38.160156 105.203125 L 38.1875 105.25 C 38.4375 105.660156 38.714844 106.054688 38.980469 106.449219 L 39.023438 106.507812 C 39.300781 106.890625 39.582031 107.285156 39.875 107.664062 C 40.957031 111.898438 42.949219 115.839844 45.6875 119.238281 C 45.265625 119.984375 44.882812 120.71875 44.457031 121.449219 C 42.964844 123.617188 41.734375 125.945312 40.78125 128.394531 C 40.386719 129.652344 40.285156 130.984375 40.503906 132.289062 C 40.707031 133.609375 41.382812 134.796875 42.40625 135.660156 C 43.097656 136.1875 43.886719 136.554688 44.722656 136.726562 C 45.558594 136.90625 46.421875 136.992188 47.285156 136.949219 C 50.539062 136.699219 53.761719 136.054688 56.867188 135.058594 C 58.742188 134.5625 60.617188 134.121094 62.519531 133.738281 C 64.496094 133.285156 66.503906 133.007812 68.527344 132.917969 C 69.023438 132.933594 69.523438 132.90625 70.003906 132.875 C 71.382812 133.023438 72.757812 133.082031 74.152344 133.023438 L 74.664062 132.992188 C 75.015625 133.035156 75.382812 133.050781 75.746094 133.082031 C 78.179688 133.210938 80.597656 133.460938 83 133.828125 C 85.109375 134.148438 87.21875 134.5625 89.296875 135.074219 C 92.503906 136.039062 95.800781 136.683594 99.15625 136.960938 C 100.035156 137.007812 100.914062 136.933594 101.792969 136.757812 C 102.65625 136.582031 103.476562 136.203125 104.179688 135.671875 C 105.203125 134.824219 105.878906 133.636719 106.097656 132.320312 C 106.320312 131.015625 106.214844 129.683594 105.820312 128.421875 C 104.855469 125.976562 103.609375 123.648438 102.085938 121.492188 C 101.558594 120.601562 101.058594 119.679688 100.53125 118.785156 C 102.804688 116.25 104.808594 113.46875 106.496094 110.507812 C 107.519531 110.566406 108.53125 110.449219 109.511719 110.125 C 112.074219 109.261719 114.300781 107.59375 115.855469 105.367188 C 116.324219 104.707031 116.691406 103.976562 116.910156 103.199219 C 117.921875 101.632812 118.609375 99.875 118.929688 98.027344 C 119.398438 94.980469 119.328125 91.859375 118.710938 88.84375 Z M 118.679688 88.84375 "/>
<path style=" stroke:none;fill-rule:nonzero;fill:rgb(100%,100%,100%);fill-opacity:1;" d="M 62.34375 47.34375 C 61.890625 47.929688 61.566406 48.617188 61.40625 49.335938 C 61.246094 50.054688 61.144531 50.800781 61.128906 51.53125 C 61.171875 53.011719 61.054688 54.492188 60.761719 55.941406 C 60.25 57.453125 59.472656 58.84375 58.476562 60.089844 C 56.761719 62.242188 55.414062 64.65625 54.492188 67.238281 C 54.023438 68.832031 53.863281 70.503906 54.039062 72.171875 C 52.265625 74.796875 50.726562 77.578125 49.453125 80.480469 C 47.492188 84.859375 46.230469 89.53125 45.71875 94.308594 C 45.085938 100.179688 45.953125 106.113281 48.207031 111.5625 C 49.863281 115.488281 52.382812 119.003906 55.578125 121.832031 C 57.21875 123.253906 59.019531 124.453125 60.953125 125.40625 C 67.792969 128.746094 75.804688 128.671875 82.574219 125.199219 C 85.957031 123.222656 89.046875 120.777344 91.742188 117.949219 C 93.484375 116.367188 95.039062 114.59375 96.402344 112.660156 C 98.671875 108.71875 100.003906 104.296875 100.28125 99.757812 C 101.6875 91.90625 100.824219 83.820312 97.808594 76.4375 C 96.621094 73.972656 95.054688 71.71875 93.148438 69.753906 C 92.636719 66.3125 91.640625 62.960938 90.191406 59.792969 C 89.136719 57.523438 87.863281 55.355469 86.878906 53.027344 C 86.484375 52.074219 86.132812 51.109375 85.695312 50.183594 C 85.269531 49.25 84.683594 48.382812 83.964844 47.652344 C 83.1875 46.933594 82.265625 46.390625 81.253906 46.082031 C 80.246094 45.761719 79.203125 45.585938 78.148438 45.554688 C 76.039062 45.453125 73.914062 45.71875 71.835938 45.644531 C 70.152344 45.570312 68.496094 45.277344 66.8125 45.378906 C 65.976562 45.425781 65.140625 45.585938 64.367188 45.894531 C 63.574219 46.203125 62.886719 46.699219 62.34375 47.359375 M 63.015625 29.03125 C 62.226562 29.089844 61.480469 29.429688 60.90625 29.96875 C 60.335938 30.511719 59.914062 31.199219 59.679688 31.949219 C 59.28125 33.472656 59.179688 35.070312 59.398438 36.636719 C 59.429688 38.054688 59.679688 39.476562 60.148438 40.824219 C 60.410156 41.484375 60.792969 42.101562 61.289062 42.613281 C 61.789062 43.125 62.417969 43.507812 63.105469 43.679688 C 63.765625 43.84375 64.453125 43.8125 65.082031 43.609375 C 65.714844 43.402344 66.300781 43.050781 66.769531 42.582031 C 67.457031 41.878906 67.953125 41.015625 68.203125 40.078125 C 68.453125 39.140625 68.570312 38.160156 68.539062 37.175781 C 68.539062 35.960938 68.351562 34.746094 67.984375 33.574219 C 67.617188 32.402344 66.988281 31.332031 66.136719 30.4375 C 65.726562 30.015625 65.257812 29.648438 64.730469 29.382812 C 64.1875 29.136719 63.605469 29.003906 63.019531 29.03125 M 76.933594 29.03125 C 75.671875 29.851562 74.707031 31.054688 74.164062 32.460938 C 73.609375 34.277344 73.695312 36.210938 74.386719 37.984375 C 74.957031 39.84375 76.097656 41.46875 77.636719 42.640625 C 78.429688 43.199219 79.335938 43.550781 80.304688 43.667969 C 81.269531 43.785156 82.238281 43.621094 83.101562 43.183594 C 84.125 42.613281 84.945312 41.71875 85.429688 40.648438 C 85.898438 39.566406 86.164062 38.40625 86.191406 37.234375 C 86.292969 35.742188 86.105469 34.246094 85.636719 32.828125 C 85.121094 31.273438 84.125 29.941406 82.777344 29.03125 C 82.089844 28.59375 81.328125 28.300781 80.523438 28.183594 C 79.71875 28.066406 78.898438 28.152344 78.136719 28.445312 C 77.710938 28.621094 77.300781 28.84375 76.917969 29.105469 "/>
<path style=" stroke:none;fill-rule:nonzero;fill:rgb(0.784314%,0.784314%,1.568628%);fill-opacity:1;" d="M 79.761719 32.753906 C 79.292969 32.78125 78.851562 32.929688 78.457031 33.179688 C 78.0625 33.429688 77.726562 33.765625 77.460938 34.144531 C 76.964844 34.921875 76.683594 35.828125 76.671875 36.765625 C 76.625 37.457031 76.730469 38.160156 76.949219 38.820312 C 77.167969 39.476562 77.578125 40.0625 78.105469 40.503906 C 78.664062 40.957031 79.335938 41.21875 80.054688 41.265625 C 80.773438 41.292969 81.476562 41.101562 82.0625 40.695312 C 82.53125 40.355469 82.910156 39.929688 83.175781 39.417969 C 83.4375 38.921875 83.597656 38.363281 83.671875 37.808594 C 83.820312 36.8125 83.640625 35.785156 83.203125 34.890625 C 82.75 33.984375 81.972656 33.296875 81.035156 32.929688 C 80.625 32.769531 80.199219 32.710938 79.761719 32.726562 "/>
<path style=" stroke:none;fill-rule:nonzero;fill:rgb(100%,100%,100%);fill-opacity:1;" d="M 63.015625 29.046875 C 62.226562 29.105469 61.480469 29.445312 60.90625 29.984375 C 60.335938 30.527344 59.914062 31.214844 59.679688 31.964844 C 59.28125 33.484375 59.179688 35.082031 59.398438 36.648438 C 59.429688 38.070312 59.679688 39.492188 60.148438 40.839844 C 60.410156 41.515625 60.792969 42.113281 61.289062 42.625 C 61.789062 43.140625 62.417969 43.519531 63.105469 43.695312 C 63.765625 43.859375 64.453125 43.828125 65.082031 43.625 C 65.714844 43.417969 66.300781 43.066406 66.769531 42.597656 C 67.457031 41.894531 67.953125 41.03125 68.203125 40.09375 C 68.453125 39.15625 68.570312 38.171875 68.539062 37.191406 C 68.539062 35.976562 68.351562 34.761719 67.984375 33.589844 C 67.617188 32.417969 66.988281 31.347656 66.136719 30.453125 C 65.726562 30.027344 65.257812 29.664062 64.730469 29.398438 C 64.1875 29.148438 63.605469 29.019531 63.019531 29.046875 "/>
<path style=" stroke:none;fill-rule:nonzero;fill:rgb(0.784314%,0.784314%,1.568628%);fill-opacity:1;" d="M 61.128906 35.566406 C 60.9375 36.546875 60.980469 37.574219 61.289062 38.523438 C 61.523438 39.15625 61.875 39.726562 62.34375 40.210938 C 62.636719 40.53125 62.972656 40.8125 63.367188 41 C 63.765625 41.207031 64.203125 41.265625 64.644531 41.164062 C 65.039062 41.058594 65.375 40.824219 65.625 40.503906 C 65.875 40.179688 66.050781 39.8125 66.167969 39.433594 C 66.503906 38.289062 66.476562 37.074219 66.109375 35.933594 C 65.875 35.097656 65.421875 34.335938 64.773438 33.765625 C 64.46875 33.5 64.085938 33.296875 63.691406 33.191406 C 63.28125 33.089844 62.855469 33.121094 62.460938 33.296875 C 62.050781 33.5 61.714844 33.835938 61.507812 34.246094 C 61.304688 34.65625 61.171875 35.097656 61.113281 35.550781 "/>
<path style=" stroke:none;fill-rule:nonzero;fill:rgb(85.09804%,60.392159%,1.176471%);fill-opacity:1;" d="M 59.265625 47.886719 C 59.296875 48.015625 59.339844 48.148438 59.414062 48.25 C 59.546875 48.457031 59.707031 48.617188 59.914062 48.75 C 60.101562 48.882812 60.292969 49 60.484375 49.117188 C 61.492188 49.804688 62.386719 50.652344 63.105469 51.648438 C 63.984375 53.027344 65.082031 54.257812 66.328125 55.3125 C 67.28125 55.972656 68.394531 56.367188 69.550781 56.46875 C 70.898438 56.570312 72.261719 56.410156 73.5625 56 C 74.765625 55.648438 75.921875 55.152344 77.007812 54.492188 C 78.867188 52.996094 80.859375 51.679688 82.96875 50.582031 C 83.46875 50.40625 83.964844 50.273438 84.433594 50.054688 C 84.917969 49.847656 85.328125 49.496094 85.574219 49.027344 C 85.738281 48.558594 85.839844 48.0625 85.855469 47.5625 C 85.925781 47.035156 86.101562 46.523438 86.191406 45.996094 C 86.308594 45.46875 86.265625 44.925781 86.074219 44.414062 C 85.867188 44.019531 85.546875 43.695312 85.152344 43.492188 C 84.753906 43.300781 84.316406 43.183594 83.875 43.167969 C 82.984375 43.199219 82.105469 43.285156 81.238281 43.433594 C 80.066406 43.535156 78.894531 43.386719 77.722656 43.433594 C 76.273438 43.476562 74.824219 43.796875 73.359375 43.855469 C 71.6875 43.945312 70.035156 43.679688 68.363281 43.609375 C 67.644531 43.5625 66.914062 43.59375 66.195312 43.710938 C 65.476562 43.8125 64.789062 44.078125 64.1875 44.488281 C 63.632812 44.925781 63.121094 45.394531 62.621094 45.894531 C 62.359375 46.128906 62.066406 46.332031 61.757812 46.492188 C 61.433594 46.65625 61.097656 46.742188 60.730469 46.726562 C 60.554688 46.699219 60.367188 46.699219 60.191406 46.726562 C 60.085938 46.773438 59.984375 46.832031 59.910156 46.90625 L 59.691406 47.167969 C 59.546875 47.386719 59.414062 47.621094 59.3125 47.855469 "/>
<path style=" stroke:none;fill-rule:nonzero;fill:rgb(37.64706%,26.666668%,1.960784%);fill-opacity:1;" d="M 62.945312 44.195312 C 62.359375 44.546875 61.789062 44.925781 61.214844 45.320312 C 60.90625 45.511719 60.660156 45.761719 60.46875 46.070312 C 60.367188 46.304688 60.320312 46.554688 60.335938 46.800781 C 60.351562 47.050781 60.351562 47.300781 60.335938 47.546875 C 60.320312 47.710938 60.265625 47.886719 60.265625 48.0625 C 60.265625 48.148438 60.265625 48.238281 60.292969 48.3125 C 60.320312 48.398438 60.351562 48.472656 60.410156 48.53125 C 60.484375 48.601562 60.585938 48.664062 60.703125 48.691406 C 60.804688 48.71875 60.921875 48.734375 61.039062 48.765625 C 61.554688 48.910156 62.023438 49.1875 62.402344 49.554688 C 62.796875 49.90625 63.148438 50.316406 63.574219 50.65625 C 64.746094 51.53125 66.167969 51.988281 67.617188 51.972656 C 69.066406 51.945312 70.503906 51.738281 71.894531 51.371094 C 72.992188 51.136719 74.078125 50.84375 75.132812 50.476562 C 76.773438 49.863281 78.28125 48.96875 79.585938 47.8125 C 80.15625 47.253906 80.757812 46.757812 81.402344 46.304688 C 81.988281 45.9375 82.675781 45.6875 83.261719 45.335938 C 83.320312 45.308594 83.363281 45.261719 83.421875 45.234375 C 83.46875 45.191406 83.511719 45.144531 83.539062 45.085938 C 83.582031 44.984375 83.582031 44.867188 83.539062 44.765625 C 83.511719 44.664062 83.46875 44.574219 83.40625 44.5 C 83.335938 44.414062 83.246094 44.324219 83.160156 44.253906 C 82.484375 43.753906 81.679688 43.476562 80.84375 43.445312 C 79.996094 43.390625 79.1875 43.445312 78.367188 43.285156 C 77.609375 43.125 76.859375 42.90625 76.128906 42.640625 C 75.351562 42.390625 74.5625 42.203125 73.742188 42.070312 C 71.835938 41.761719 69.902344 41.804688 68.011719 42.21875 C 66.242188 42.613281 64.527344 43.285156 62.945312 44.195312 "/>
<path style=" stroke:none;fill-rule:nonzero;fill:rgb(96.078432%,74.117649%,4.705882%);fill-opacity:1;" d="M 62.753906 42.203125 C 61.902344 42.773438 61.140625 43.476562 60.484375 44.269531 C 60.101562 44.707031 59.796875 45.21875 59.589844 45.777344 C 59.457031 46.214844 59.371094 46.671875 59.296875 47.125 C 59.253906 47.285156 59.222656 47.460938 59.222656 47.636719 C 59.222656 47.726562 59.238281 47.8125 59.265625 47.886719 C 59.296875 47.972656 59.339844 48.046875 59.398438 48.105469 C 59.5 48.207031 59.632812 48.265625 59.78125 48.296875 C 59.910156 48.324219 60.058594 48.324219 60.203125 48.339844 C 60.847656 48.441406 61.449219 48.707031 61.976562 49.085938 C 62.503906 49.453125 63.003906 49.878906 63.542969 50.230469 C 64.773438 50.960938 66.179688 51.359375 67.617188 51.386719 C 69.054688 51.417969 70.472656 51.269531 71.867188 50.960938 C 72.976562 50.757812 74.078125 50.449219 75.148438 50.039062 C 76.742188 49.351562 78.238281 48.457031 79.601562 47.375 C 80.230469 46.90625 80.84375 46.40625 81.414062 45.863281 C 81.605469 45.675781 81.796875 45.484375 82 45.308594 C 82.207031 45.132812 82.441406 45 82.691406 44.914062 C 83.085938 44.808594 83.496094 44.796875 83.90625 44.898438 C 84.199219 44.972656 84.507812 45 84.8125 45 C 84.976562 45 85.121094 44.972656 85.269531 44.925781 C 85.414062 44.867188 85.546875 44.78125 85.632812 44.664062 C 85.765625 44.5 85.824219 44.3125 85.824219 44.105469 C 85.824219 43.902344 85.765625 43.710938 85.664062 43.535156 C 85.445312 43.199219 85.109375 42.933594 84.742188 42.789062 C 84.226562 42.582031 83.703125 42.421875 83.160156 42.320312 C 81.503906 41.925781 79.894531 41.339844 78.367188 40.578125 C 77.609375 40.195312 76.890625 39.785156 76.128906 39.390625 C 75.367188 38.964844 74.574219 38.597656 73.753906 38.335938 C 71.867188 37.824219 69.859375 37.910156 68.027344 38.597656 C 65.976562 39.316406 64.144531 40.5625 62.738281 42.21875 "/>
<path style=" stroke:none;fill-rule:nonzero;fill:rgb(80.392158%,53.725493%,2.745098%);fill-opacity:1;" d="M 72.289062 39.875 C 72.390625 40.210938 72.921875 40.152344 73.226562 40.296875 C 73.535156 40.445312 73.710938 40.722656 74.003906 40.75 C 74.3125 40.78125 74.734375 40.648438 74.78125 40.371094 C 74.839844 39.988281 74.28125 39.757812 73.929688 39.625 C 73.460938 39.402344 72.933594 39.390625 72.464844 39.59375 C 72.363281 39.636719 72.261719 39.769531 72.289062 39.871094 Z M 67.25 39.695312 C 66.855469 39.566406 66.210938 40.253906 66.402344 40.621094 C 66.460938 40.722656 66.636719 40.839844 66.753906 40.78125 C 66.871094 40.722656 67.089844 40.328125 67.28125 40.195312 C 67.425781 40.078125 67.398438 39.742188 67.25 39.699219 Z M 67.25 39.695312 "/>
<path style=" stroke:none;fill-rule:nonzero;fill:rgb(96.078432%,74.117649%,4.705882%);fill-opacity:1;" d="M 130.035156 121.554688 C 129.742188 122.3125 129.316406 123.015625 128.789062 123.648438 C 127.558594 124.964844 126.0625 126.019531 124.425781 126.753906 C 121.640625 128.042969 118.929688 129.476562 116.292969 131.046875 C 114.578125 132.1875 112.984375 133.476562 111.503906 134.910156 C 110.289062 136.1875 108.984375 137.359375 107.609375 138.457031 C 106.171875 139.511719 104.515625 140.230469 102.757812 140.507812 C 100.605469 140.785156 98.421875 140.449219 96.445312 139.554688 C 95.023438 139.011719 93.792969 138.0625 92.929688 136.800781 C 92.195312 135.453125 91.859375 133.945312 91.933594 132.421875 C 92.023438 129.742188 92.34375 127.074219 92.898438 124.4375 C 93.28125 122.242188 93.664062 120.042969 93.898438 117.832031 C 94.304688 113.789062 94.351562 109.730469 94.042969 105.6875 C 93.96875 105.015625 93.96875 104.328125 94.042969 103.652344 C 94.132812 102.273438 95.289062 101.21875 96.679688 101.234375 C 97.308594 101.21875 97.9375 101.28125 98.554688 101.398438 C 100.019531 101.574219 101.484375 101.820312 102.917969 102.160156 C 103.8125 102.394531 104.707031 102.714844 105.601562 102.964844 C 107.09375 103.402344 108.675781 103.535156 110.230469 103.390625 C 111.855469 103.007812 113.511719 102.757812 115.179688 102.613281 C 115.867188 102.640625 116.558594 102.757812 117.203125 102.964844 C 117.875 103.15625 118.503906 103.492188 119.019531 103.976562 C 119.382812 104.371094 119.675781 104.824219 119.867188 105.324219 C 120.144531 106.070312 120.320312 106.847656 120.378906 107.636719 C 120.410156 108.339844 120.46875 109.042969 120.554688 109.746094 C 120.804688 110.875 121.347656 111.929688 122.109375 112.808594 C 122.886719 113.65625 123.71875 114.449219 124.628906 115.152344 C 125.492188 115.914062 126.402344 116.617188 127.351562 117.261719 C 127.808594 117.570312 128.261719 117.847656 128.6875 118.183594 C 129.125 118.507812 129.492188 118.914062 129.769531 119.382812 C 130.121094 120.03125 130.238281 120.777344 130.0625 121.492188 "/>
<path style=" stroke:none;fill-rule:nonzero;fill:rgb(96.078432%,74.117649%,4.705882%);fill-opacity:1;" d="M 130.035156 121.554688 C 129.742188 122.3125 129.316406 123.015625 128.789062 123.648438 C 127.558594 124.964844 126.0625 126.019531 124.425781 126.753906 C 121.640625 128.042969 118.929688 129.476562 116.292969 131.046875 C 114.578125 132.1875 112.984375 133.476562 111.503906 134.910156 C 110.289062 136.1875 108.984375 137.359375 107.609375 138.457031 C 106.171875 139.511719 104.515625 140.230469 102.757812 140.507812 C 100.605469 140.785156 98.421875 140.449219 96.445312 139.554688 C 95.023438 139.011719 93.792969 138.0625 92.929688 136.800781 C 92.195312 135.453125 91.859375 133.945312 91.933594 132.421875 C 92.023438 129.742188 92.34375 127.074219 92.898438 124.4375 C 93.28125 122.242188 93.664062 120.042969 93.898438 117.832031 C 94.304688 113.789062 94.351562 109.730469 94.042969 105.6875 C 93.96875 105.015625 93.96875 104.328125 94.042969 103.652344 C 94.132812 102.273438 95.289062 101.21875 96.679688 101.234375 C 97.308594 101.21875 97.9375 101.28125 98.554688 101.398438 C 100.019531 101.574219 101.484375 101.820312 102.917969 102.160156 C 103.8125 102.394531 104.707031 102.714844 105.601562 102.964844 C 107.09375 103.402344 108.675781 103.535156 110.230469 103.390625 C 111.855469 103.007812 113.511719 102.757812 115.179688 102.613281 C 115.867188 102.640625 116.558594 102.757812 117.203125 102.964844 C 117.875 103.15625 118.503906 103.492188 119.019531 103.976562 C 119.382812 104.371094 119.675781 104.824219 119.867188 105.324219 C 120.144531 106.070312 120.320312 106.847656 120.378906 107.636719 C 120.410156 108.339844 120.46875 109.042969 120.554688 109.746094 C 120.804688 110.875 121.347656 111.929688 122.109375 112.808594 C 122.886719 113.65625 123.71875 114.449219 124.628906 115.152344 C 125.492188 115.914062 126.402344 116.617188 127.351562 117.261719 C 127.808594 117.570312 128.261719 117.847656 128.6875 118.183594 C 129.125 118.507812 129.492188 118.914062 129.769531 119.382812 C 130.121094 120.03125 130.238281 120.777344 130.0625 121.492188 M 38 99.066406 C 38.714844 98.789062 39.492188 98.714844 40.253906 98.863281 C 41.015625 99.007812 41.734375 99.316406 42.363281 99.757812 C 43.578125 100.679688 44.632812 101.820312 45.46875 103.09375 C 47.535156 105.9375 49.511719 108.835938 51.3125 111.855469 C 52.777344 114.300781 54.109375 116.820312 55.796875 119.121094 C 56.894531 120.617188 58.140625 122.007812 59.253906 123.5 C 60.410156 124.964844 61.289062 126.636719 61.832031 128.40625 C 62.476562 130.765625 62.210938 133.273438 61.113281 135.453125 C 60.320312 136.976562 59.136719 138.25 57.6875 139.132812 C 56.21875 140.007812 54.535156 140.449219 52.820312 140.40625 C 50.128906 140.039062 47.519531 139.21875 45.117188 137.972656 C 40.003906 135.9375 34.453125 135.292969 29.179688 133.710938 C 27.554688 133.226562 25.972656 132.640625 24.332031 132.203125 C 23.597656 132.027344 22.882812 131.804688 22.179688 131.515625 C 21.488281 131.21875 20.890625 130.722656 20.492188 130.09375 C 20.199219 129.578125 20.054688 128.992188 20.070312 128.40625 C 20.082031 127.820312 20.199219 127.25 20.40625 126.722656 C 20.800781 125.625 21.445312 124.644531 21.871094 123.558594 C 22.515625 121.773438 22.765625 119.851562 22.601562 117.964844 C 22.515625 116.074219 22.179688 114.183594 22.074219 112.292969 C 21.988281 111.445312 22.015625 110.59375 22.164062 109.761719 C 22.382812 108.089844 23.6875 106.757812 25.371094 106.507812 C 26.148438 106.375 26.921875 106.316406 27.699219 106.363281 C 28.476562 106.40625 29.265625 106.40625 30.042969 106.363281 C 30.820312 106.316406 31.597656 106.097656 32.285156 105.730469 C 32.914062 105.351562 33.472656 104.824219 33.898438 104.207031 C 34.320312 103.59375 34.703125 102.964844 35.054688 102.304688 C 35.40625 101.644531 35.800781 101.03125 36.269531 100.445312 C 36.710938 99.84375 37.308594 99.390625 38 99.066406 "/>
<path style=" stroke:none;fill-rule:nonzero;fill:rgb(96.078432%,74.117649%,4.705882%);fill-opacity:1;" d="M 38 99.082031 C 38.714844 98.804688 39.492188 98.730469 40.253906 98.875 C 41.015625 99.023438 41.734375 99.332031 42.363281 99.769531 C 43.578125 100.695312 44.632812 101.835938 45.46875 103.109375 C 47.535156 105.953125 49.511719 108.851562 51.3125 111.871094 C 52.777344 114.316406 54.109375 116.835938 55.796875 119.136719 C 56.894531 120.628906 58.140625 122.023438 59.253906 123.515625 C 60.410156 124.980469 61.289062 126.648438 61.832031 128.421875 C 62.476562 130.78125 62.210938 133.285156 61.113281 135.46875 C 60.320312 136.992188 59.136719 138.265625 57.6875 139.144531 C 56.21875 140.023438 54.535156 140.464844 52.820312 140.421875 C 50.128906 140.054688 47.519531 139.234375 45.117188 137.988281 C 40.003906 135.953125 34.453125 135.308594 29.179688 133.726562 C 27.554688 133.242188 25.972656 132.65625 24.332031 132.21875 C 23.597656 132.039062 22.882812 131.820312 22.179688 131.527344 C 21.488281 131.234375 20.890625 130.738281 20.492188 130.109375 C 20.199219 129.59375 20.054688 129.007812 20.070312 128.421875 C 20.082031 127.835938 20.199219 127.265625 20.40625 126.738281 C 20.800781 125.640625 21.445312 124.65625 21.871094 123.574219 C 22.515625 121.785156 22.765625 119.867188 22.601562 117.976562 C 22.515625 116.089844 22.179688 114.214844 22.074219 112.308594 C 21.988281 111.460938 22.015625 110.609375 22.164062 109.773438 C 22.382812 108.105469 23.6875 106.773438 25.371094 106.523438 C 26.148438 106.390625 26.921875 106.332031 27.699219 106.375 C 28.476562 106.421875 29.265625 106.421875 30.042969 106.375 C 30.820312 106.332031 31.597656 106.113281 32.285156 105.746094 C 32.914062 105.367188 33.472656 104.839844 33.898438 104.222656 C 34.320312 103.609375 34.703125 102.976562 35.054688 102.320312 C 35.40625 101.660156 35.800781 101.042969 36.269531 100.457031 C 36.710938 99.859375 37.308594 99.390625 38 99.082031 "/>
<path style=" stroke:none;fill-rule:nonzero;fill:rgb(96.078432%,74.117649%,4.705882%);fill-opacity:1;" d="M 39.125 100.3125 C 39.769531 100.0625 40.488281 100.019531 41.164062 100.179688 C 41.835938 100.34375 42.464844 100.648438 43.007812 101.089844 C 44.046875 101.996094 44.925781 103.082031 45.585938 104.296875 C 47.34375 107.140625 49.058594 110.007812 50.65625 112.9375 C 51.8125 115.179688 53.117188 117.347656 54.550781 119.414062 C 55.546875 120.761719 56.691406 121.992188 57.714844 123.3125 C 58.785156 124.613281 59.589844 126.09375 60.089844 127.691406 C 60.675781 129.785156 60.425781 132.027344 59.429688 133.976562 C 58.695312 135.351562 57.597656 136.507812 56.25 137.285156 C 54.902344 138.078125 53.351562 138.457031 51.796875 138.382812 C 49.351562 138.003906 46.976562 137.269531 44.738281 136.203125 C 40.285156 134.574219 35.433594 134.371094 30.863281 133.09375 C 29.222656 132.65625 27.628906 132.054688 25.972656 131.644531 C 25.238281 131.484375 24.507812 131.28125 23.804688 131.015625 C 23.101562 130.753906 22.484375 130.253906 22.074219 129.625 C 21.8125 129.125 21.679688 128.570312 21.710938 128.011719 C 21.738281 127.457031 21.855469 126.898438 22.0625 126.371094 C 22.457031 125.332031 23.085938 124.378906 23.480469 123.339844 C 24.039062 121.726562 24.230469 120.03125 24.054688 118.328125 C 23.9375 116.644531 23.628906 114.976562 23.539062 113.277344 C 23.480469 112.527344 23.511719 111.765625 23.644531 111.019531 C 23.773438 110.273438 24.125 109.585938 24.652344 109.027344 C 25.269531 108.472656 26.03125 108.105469 26.851562 108.003906 C 27.671875 107.898438 28.492188 107.898438 29.296875 108.003906 C 30.117188 108.105469 30.9375 108.132812 31.757812 108.121094 C 33.371094 108.121094 34.835938 107.183594 35.523438 105.71875 C 35.859375 105.058594 36.152344 104.371094 36.386719 103.679688 C 36.636719 102.976562 36.972656 102.320312 37.367188 101.6875 C 37.777344 101.058594 38.363281 100.5625 39.054688 100.269531 "/>
</g>
</svg>
